<?xml version="1.0" encoding="utf-8"?>
<svg xmlns="http://www.w3.org/2000/svg" xmlns:xlink="http://www.w3.org/1999/xlink" width="500" height="375" viewBox="0 0 2000 1500">
<defs>
  <clipPath id="clip090">
    <rect x="0" y="0" width="2000" height="1500"/>
  </clipPath>
</defs>
<defs>
  <clipPath id="clip091">
    <rect x="400" y="0" width="1401" height="1401"/>
  </clipPath>
</defs>
<defs>
  <clipPath id="clip092">
    <rect x="393" y="47" width="1561" height="1126"/>
  </clipPath>
</defs>
<polyline clip-path="url(#clip090)" style="stroke:#8f9191; stroke-linecap:round; stroke-linejoin:round; stroke-width:4; stroke-opacity:1; fill:none" points="393.214,1172.19 1952.76,1172.19 "/>
<polyline clip-path="url(#clip090)" style="stroke:#8f9191; stroke-linecap:round; stroke-linejoin:round; stroke-width:4; stroke-opacity:1; fill:none" points="437.352,1172.19 437.352,1153.29 "/>
<polyline clip-path="url(#clip090)" style="stroke:#8f9191; stroke-linecap:round; stroke-linejoin:round; stroke-width:4; stroke-opacity:1; fill:none" points="917.563,1172.19 917.563,1153.29 "/>
<polyline clip-path="url(#clip090)" style="stroke:#8f9191; stroke-linecap:round; stroke-linejoin:round; stroke-width:4; stroke-opacity:1; fill:none" points="1397.77,1172.19 1397.77,1153.29 "/>
<polyline clip-path="url(#clip090)" style="stroke:#8f9191; stroke-linecap:round; stroke-linejoin:round; stroke-width:4; stroke-opacity:1; fill:none" points="1877.99,1172.19 1877.99,1153.29 "/>
<path clip-path="url(#clip090)" d="M414.737 1199.91 Q411.126 1199.91 409.297 1203.47 Q407.491 1207.01 407.491 1214.14 Q407.491 1221.25 409.297 1224.81 Q411.126 1228.36 414.737 1228.36 Q418.371 1228.36 420.176 1224.81 Q422.005 1221.25 422.005 1214.14 Q422.005 1207.01 420.176 1203.47 Q418.371 1199.91 414.737 1199.91 M414.737 1196.2 Q420.547 1196.2 423.602 1200.81 Q426.681 1205.39 426.681 1214.14 Q426.681 1222.87 423.602 1227.48 Q420.547 1232.06 414.737 1232.06 Q408.927 1232.06 405.848 1227.48 Q402.792 1222.87 402.792 1214.14 Q402.792 1205.39 405.848 1200.81 Q408.927 1196.2 414.737 1196.2 Z" fill="#8f9191" fill-rule="nonzero" fill-opacity="1" /><path clip-path="url(#clip090)" d="M434.899 1225.51 L439.783 1225.51 L439.783 1231.39 L434.899 1231.39 L434.899 1225.51 Z" fill="#8f9191" fill-rule="nonzero" fill-opacity="1" /><path clip-path="url(#clip090)" d="M459.968 1199.91 Q456.357 1199.91 454.528 1203.47 Q452.723 1207.01 452.723 1214.14 Q452.723 1221.25 454.528 1224.81 Q456.357 1228.36 459.968 1228.36 Q463.602 1228.36 465.408 1224.81 Q467.236 1221.25 467.236 1214.14 Q467.236 1207.01 465.408 1203.47 Q463.602 1199.91 459.968 1199.91 M459.968 1196.2 Q465.778 1196.2 468.834 1200.81 Q471.912 1205.39 471.912 1214.14 Q471.912 1222.87 468.834 1227.48 Q465.778 1232.06 459.968 1232.06 Q454.158 1232.06 451.079 1227.48 Q448.024 1222.87 448.024 1214.14 Q448.024 1205.39 451.079 1200.81 Q454.158 1196.2 459.968 1196.2 Z" fill="#8f9191" fill-rule="nonzero" fill-opacity="1" /><path clip-path="url(#clip090)" d="M895.561 1199.91 Q891.95 1199.91 890.121 1203.47 Q888.316 1207.01 888.316 1214.14 Q888.316 1221.25 890.121 1224.81 Q891.95 1228.36 895.561 1228.36 Q899.195 1228.36 901.001 1224.81 Q902.83 1221.25 902.83 1214.14 Q902.83 1207.01 901.001 1203.47 Q899.195 1199.91 895.561 1199.91 M895.561 1196.2 Q901.371 1196.2 904.427 1200.81 Q907.505 1205.39 907.505 1214.14 Q907.505 1222.87 904.427 1227.48 Q901.371 1232.06 895.561 1232.06 Q889.751 1232.06 886.672 1227.48 Q883.617 1222.87 883.617 1214.14 Q883.617 1205.39 886.672 1200.81 Q889.751 1196.2 895.561 1196.2 Z" fill="#8f9191" fill-rule="nonzero" fill-opacity="1" /><path clip-path="url(#clip090)" d="M915.723 1225.51 L920.607 1225.51 L920.607 1231.39 L915.723 1231.39 L915.723 1225.51 Z" fill="#8f9191" fill-rule="nonzero" fill-opacity="1" /><path clip-path="url(#clip090)" d="M931.603 1227.45 L939.241 1227.45 L939.241 1201.09 L930.931 1202.75 L930.931 1198.49 L939.195 1196.83 L943.871 1196.83 L943.871 1227.45 L951.51 1227.45 L951.51 1231.39 L931.603 1231.39 L931.603 1227.45 Z" fill="#8f9191" fill-rule="nonzero" fill-opacity="1" /><path clip-path="url(#clip090)" d="M1375.96 1199.91 Q1372.35 1199.91 1370.52 1203.47 Q1368.71 1207.01 1368.71 1214.14 Q1368.71 1221.25 1370.52 1224.81 Q1372.35 1228.36 1375.96 1228.36 Q1379.59 1228.36 1381.4 1224.81 Q1383.23 1221.25 1383.23 1214.14 Q1383.23 1207.01 1381.4 1203.47 Q1379.59 1199.91 1375.96 1199.91 M1375.96 1196.2 Q1381.77 1196.2 1384.82 1200.81 Q1387.9 1205.39 1387.9 1214.14 Q1387.9 1222.87 1384.82 1227.48 Q1381.77 1232.06 1375.96 1232.06 Q1370.15 1232.06 1367.07 1227.48 Q1364.01 1222.87 1364.01 1214.14 Q1364.01 1205.39 1367.07 1200.81 Q1370.15 1196.2 1375.96 1196.2 Z" fill="#8f9191" fill-rule="nonzero" fill-opacity="1" /><path clip-path="url(#clip090)" d="M1396.12 1225.51 L1401 1225.51 L1401 1231.39 L1396.12 1231.39 L1396.12 1225.51 Z" fill="#8f9191" fill-rule="nonzero" fill-opacity="1" /><path clip-path="url(#clip090)" d="M1415.22 1227.45 L1431.54 1227.45 L1431.54 1231.39 L1409.59 1231.39 L1409.59 1227.45 Q1412.25 1224.7 1416.84 1220.07 Q1421.44 1215.42 1422.62 1214.07 Q1424.87 1211.55 1425.75 1209.81 Q1426.65 1208.05 1426.65 1206.36 Q1426.65 1203.61 1424.71 1201.87 Q1422.79 1200.14 1419.68 1200.14 Q1417.48 1200.14 1415.03 1200.9 Q1412.6 1201.67 1409.82 1203.22 L1409.82 1198.49 Q1412.65 1197.36 1415.1 1196.78 Q1417.55 1196.2 1419.59 1196.2 Q1424.96 1196.2 1428.16 1198.89 Q1431.35 1201.57 1431.35 1206.06 Q1431.35 1208.19 1430.54 1210.11 Q1429.75 1212.01 1427.65 1214.61 Q1427.07 1215.28 1423.97 1218.49 Q1420.86 1221.69 1415.22 1227.45 Z" fill="#8f9191" fill-rule="nonzero" fill-opacity="1" /><path clip-path="url(#clip090)" d="M1855.69 1199.91 Q1852.08 1199.91 1850.25 1203.47 Q1848.45 1207.01 1848.45 1214.14 Q1848.45 1221.25 1850.25 1224.81 Q1852.08 1228.36 1855.69 1228.36 Q1859.33 1228.36 1861.13 1224.81 Q1862.96 1221.25 1862.96 1214.14 Q1862.96 1207.01 1861.13 1203.47 Q1859.33 1199.91 1855.69 1199.91 M1855.69 1196.2 Q1861.5 1196.2 1864.56 1200.81 Q1867.64 1205.39 1867.64 1214.14 Q1867.64 1222.87 1864.56 1227.48 Q1861.5 1232.06 1855.69 1232.06 Q1849.88 1232.06 1846.8 1227.48 Q1843.75 1222.87 1843.75 1214.14 Q1843.75 1205.39 1846.8 1200.81 Q1849.88 1196.2 1855.69 1196.2 Z" fill="#8f9191" fill-rule="nonzero" fill-opacity="1" /><path clip-path="url(#clip090)" d="M1875.86 1225.51 L1880.74 1225.51 L1880.74 1231.39 L1875.86 1231.39 L1875.86 1225.51 Z" fill="#8f9191" fill-rule="nonzero" fill-opacity="1" /><path clip-path="url(#clip090)" d="M1905.09 1212.75 Q1908.45 1213.47 1910.32 1215.74 Q1912.22 1218.01 1912.22 1221.34 Q1912.22 1226.46 1908.7 1229.26 Q1905.18 1232.06 1898.7 1232.06 Q1896.53 1232.06 1894.21 1231.62 Q1891.92 1231.2 1889.47 1230.35 L1889.47 1225.83 Q1891.41 1226.97 1893.73 1227.54 Q1896.04 1228.12 1898.56 1228.12 Q1902.96 1228.12 1905.25 1226.39 Q1907.57 1224.65 1907.57 1221.34 Q1907.57 1218.29 1905.42 1216.57 Q1903.29 1214.84 1899.47 1214.84 L1895.44 1214.84 L1895.44 1210.99 L1899.65 1210.99 Q1903.1 1210.99 1904.93 1209.63 Q1906.76 1208.24 1906.76 1205.65 Q1906.76 1202.98 1904.86 1201.57 Q1902.99 1200.14 1899.47 1200.14 Q1897.55 1200.14 1895.35 1200.55 Q1893.15 1200.97 1890.51 1201.85 L1890.51 1197.68 Q1893.17 1196.94 1895.49 1196.57 Q1897.82 1196.2 1899.88 1196.2 Q1905.21 1196.2 1908.31 1198.63 Q1911.41 1201.04 1911.41 1205.16 Q1911.41 1208.03 1909.77 1210.02 Q1908.12 1211.99 1905.09 1212.75 Z" fill="#8f9191" fill-rule="nonzero" fill-opacity="1" /><path clip-path="url(#clip090)" d="M1159.47 1275.4 L1187.29 1275.4 L1187.29 1280.75 L1165.27 1306.37 L1187.29 1306.37 L1187.29 1311.05 L1158.68 1311.05 L1158.68 1305.7 L1180.7 1280.08 L1159.47 1280.08 L1159.47 1275.4 Z" fill="#8f9191" fill-rule="nonzero" fill-opacity="1" /><polyline clip-path="url(#clip090)" style="stroke:#8f9191; stroke-linecap:round; stroke-linejoin:round; stroke-width:4; stroke-opacity:1; fill:none" points="393.214,1172.19 393.214,47.2441 "/>
<polyline clip-path="url(#clip090)" style="stroke:#8f9191; stroke-linecap:round; stroke-linejoin:round; stroke-width:4; stroke-opacity:1; fill:none" points="393.214,1124.55 412.112,1124.55 "/>
<polyline clip-path="url(#clip090)" style="stroke:#8f9191; stroke-linecap:round; stroke-linejoin:round; stroke-width:4; stroke-opacity:1; fill:none" points="393.214,884.447 412.112,884.447 "/>
<polyline clip-path="url(#clip090)" style="stroke:#8f9191; stroke-linecap:round; stroke-linejoin:round; stroke-width:4; stroke-opacity:1; fill:none" points="393.214,644.341 412.112,644.341 "/>
<polyline clip-path="url(#clip090)" style="stroke:#8f9191; stroke-linecap:round; stroke-linejoin:round; stroke-width:4; stroke-opacity:1; fill:none" points="393.214,404.236 412.112,404.236 "/>
<polyline clip-path="url(#clip090)" style="stroke:#8f9191; stroke-linecap:round; stroke-linejoin:round; stroke-width:4; stroke-opacity:1; fill:none" points="393.214,164.13 412.112,164.13 "/>
<path clip-path="url(#clip090)" d="M275.877 1110.35 Q272.266 1110.35 270.437 1113.92 Q268.631 1117.46 268.631 1124.59 Q268.631 1131.69 270.437 1135.26 Q272.266 1138.8 275.877 1138.8 Q279.511 1138.8 281.317 1135.26 Q283.145 1131.69 283.145 1124.59 Q283.145 1117.46 281.317 1113.92 Q279.511 1110.35 275.877 1110.35 M275.877 1106.65 Q281.687 1106.65 284.743 1111.25 Q287.821 1115.84 287.821 1124.59 Q287.821 1133.31 284.743 1137.92 Q281.687 1142.5 275.877 1142.5 Q270.067 1142.5 266.988 1137.92 Q263.932 1133.31 263.932 1124.59 Q263.932 1115.84 266.988 1111.25 Q270.067 1106.65 275.877 1106.65 Z" fill="#8f9191" fill-rule="nonzero" fill-opacity="1" /><path clip-path="url(#clip090)" d="M296.039 1135.95 L300.923 1135.95 L300.923 1141.83 L296.039 1141.83 L296.039 1135.95 Z" fill="#8f9191" fill-rule="nonzero" fill-opacity="1" /><path clip-path="url(#clip090)" d="M321.108 1110.35 Q317.497 1110.35 315.668 1113.92 Q313.863 1117.46 313.863 1124.59 Q313.863 1131.69 315.668 1135.26 Q317.497 1138.8 321.108 1138.8 Q324.742 1138.8 326.548 1135.26 Q328.377 1131.69 328.377 1124.59 Q328.377 1117.46 326.548 1113.92 Q324.742 1110.35 321.108 1110.35 M321.108 1106.65 Q326.918 1106.65 329.974 1111.25 Q333.052 1115.84 333.052 1124.59 Q333.052 1133.31 329.974 1137.92 Q326.918 1142.5 321.108 1142.5 Q315.298 1142.5 312.219 1137.92 Q309.164 1133.31 309.164 1124.59 Q309.164 1115.84 312.219 1111.25 Q315.298 1106.65 321.108 1106.65 Z" fill="#8f9191" fill-rule="nonzero" fill-opacity="1" /><path clip-path="url(#clip090)" d="M351.27 1110.35 Q347.659 1110.35 345.83 1113.92 Q344.025 1117.46 344.025 1124.59 Q344.025 1131.69 345.83 1135.26 Q347.659 1138.8 351.27 1138.8 Q354.904 1138.8 356.71 1135.26 Q358.538 1131.69 358.538 1124.59 Q358.538 1117.46 356.71 1113.92 Q354.904 1110.35 351.27 1110.35 M351.27 1106.65 Q357.08 1106.65 360.136 1111.25 Q363.214 1115.84 363.214 1124.59 Q363.214 1133.31 360.136 1137.92 Q357.08 1142.5 351.27 1142.5 Q345.46 1142.5 342.381 1137.92 Q339.326 1133.31 339.326 1124.59 Q339.326 1115.84 342.381 1111.25 Q345.46 1106.65 351.27 1106.65 Z" fill="#8f9191" fill-rule="nonzero" fill-opacity="1" /><path clip-path="url(#clip090)" d="M276.872 870.246 Q273.261 870.246 271.432 873.81 Q269.627 877.352 269.627 884.482 Q269.627 891.588 271.432 895.153 Q273.261 898.695 276.872 898.695 Q280.506 898.695 282.312 895.153 Q284.141 891.588 284.141 884.482 Q284.141 877.352 282.312 873.81 Q280.506 870.246 276.872 870.246 M276.872 866.542 Q282.682 866.542 285.738 871.148 Q288.817 875.732 288.817 884.482 Q288.817 893.208 285.738 897.815 Q282.682 902.398 276.872 902.398 Q271.062 902.398 267.983 897.815 Q264.928 893.208 264.928 884.482 Q264.928 875.732 267.983 871.148 Q271.062 866.542 276.872 866.542 Z" fill="#8f9191" fill-rule="nonzero" fill-opacity="1" /><path clip-path="url(#clip090)" d="M297.034 895.847 L301.918 895.847 L301.918 901.727 L297.034 901.727 L297.034 895.847 Z" fill="#8f9191" fill-rule="nonzero" fill-opacity="1" /><path clip-path="url(#clip090)" d="M322.103 870.246 Q318.492 870.246 316.664 873.81 Q314.858 877.352 314.858 884.482 Q314.858 891.588 316.664 895.153 Q318.492 898.695 322.103 898.695 Q325.738 898.695 327.543 895.153 Q329.372 891.588 329.372 884.482 Q329.372 877.352 327.543 873.81 Q325.738 870.246 322.103 870.246 M322.103 866.542 Q327.914 866.542 330.969 871.148 Q334.048 875.732 334.048 884.482 Q334.048 893.208 330.969 897.815 Q327.914 902.398 322.103 902.398 Q316.293 902.398 313.215 897.815 Q310.159 893.208 310.159 884.482 Q310.159 875.732 313.215 871.148 Q316.293 866.542 322.103 866.542 Z" fill="#8f9191" fill-rule="nonzero" fill-opacity="1" /><path clip-path="url(#clip090)" d="M342.312 867.167 L360.668 867.167 L360.668 871.102 L346.594 871.102 L346.594 879.574 Q347.613 879.227 348.631 879.065 Q349.65 878.88 350.668 878.88 Q356.455 878.88 359.835 882.051 Q363.214 885.222 363.214 890.639 Q363.214 896.218 359.742 899.32 Q356.27 902.398 349.95 902.398 Q347.775 902.398 345.506 902.028 Q343.261 901.657 340.853 900.917 L340.853 896.218 Q342.937 897.352 345.159 897.908 Q347.381 898.463 349.858 898.463 Q353.863 898.463 356.2 896.357 Q358.538 894.25 358.538 890.639 Q358.538 887.028 356.2 884.921 Q353.863 882.815 349.858 882.815 Q347.983 882.815 346.108 883.232 Q344.256 883.648 342.312 884.528 L342.312 867.167 Z" fill="#8f9191" fill-rule="nonzero" fill-opacity="1" /><path clip-path="url(#clip090)" d="M275.877 630.14 Q272.266 630.14 270.437 633.705 Q268.631 637.247 268.631 644.376 Q268.631 651.483 270.437 655.047 Q272.266 658.589 275.877 658.589 Q279.511 658.589 281.317 655.047 Q283.145 651.483 283.145 644.376 Q283.145 637.247 281.317 633.705 Q279.511 630.14 275.877 630.14 M275.877 626.436 Q281.687 626.436 284.743 631.043 Q287.821 635.626 287.821 644.376 Q287.821 653.103 284.743 657.709 Q281.687 662.293 275.877 662.293 Q270.067 662.293 266.988 657.709 Q263.932 653.103 263.932 644.376 Q263.932 635.626 266.988 631.043 Q270.067 626.436 275.877 626.436 Z" fill="#8f9191" fill-rule="nonzero" fill-opacity="1" /><path clip-path="url(#clip090)" d="M296.039 655.742 L300.923 655.742 L300.923 661.621 L296.039 661.621 L296.039 655.742 Z" fill="#8f9191" fill-rule="nonzero" fill-opacity="1" /><path clip-path="url(#clip090)" d="M311.918 657.686 L319.557 657.686 L319.557 631.321 L311.247 632.987 L311.247 628.728 L319.511 627.061 L324.187 627.061 L324.187 657.686 L331.826 657.686 L331.826 661.621 L311.918 661.621 L311.918 657.686 Z" fill="#8f9191" fill-rule="nonzero" fill-opacity="1" /><path clip-path="url(#clip090)" d="M351.27 630.14 Q347.659 630.14 345.83 633.705 Q344.025 637.247 344.025 644.376 Q344.025 651.483 345.83 655.047 Q347.659 658.589 351.27 658.589 Q354.904 658.589 356.71 655.047 Q358.538 651.483 358.538 644.376 Q358.538 637.247 356.71 633.705 Q354.904 630.14 351.27 630.14 M351.27 626.436 Q357.08 626.436 360.136 631.043 Q363.214 635.626 363.214 644.376 Q363.214 653.103 360.136 657.709 Q357.08 662.293 351.27 662.293 Q345.46 662.293 342.381 657.709 Q339.326 653.103 339.326 644.376 Q339.326 635.626 342.381 631.043 Q345.46 626.436 351.27 626.436 Z" fill="#8f9191" fill-rule="nonzero" fill-opacity="1" /><path clip-path="url(#clip090)" d="M276.872 390.035 Q273.261 390.035 271.432 393.599 Q269.627 397.141 269.627 404.271 Q269.627 411.377 271.432 414.942 Q273.261 418.484 276.872 418.484 Q280.506 418.484 282.312 414.942 Q284.141 411.377 284.141 404.271 Q284.141 397.141 282.312 393.599 Q280.506 390.035 276.872 390.035 M276.872 386.331 Q282.682 386.331 285.738 390.937 Q288.817 395.521 288.817 404.271 Q288.817 412.997 285.738 417.604 Q282.682 422.187 276.872 422.187 Q271.062 422.187 267.983 417.604 Q264.928 412.997 264.928 404.271 Q264.928 395.521 267.983 390.937 Q271.062 386.331 276.872 386.331 Z" fill="#8f9191" fill-rule="nonzero" fill-opacity="1" /><path clip-path="url(#clip090)" d="M297.034 415.636 L301.918 415.636 L301.918 421.516 L297.034 421.516 L297.034 415.636 Z" fill="#8f9191" fill-rule="nonzero" fill-opacity="1" /><path clip-path="url(#clip090)" d="M312.914 417.581 L320.553 417.581 L320.553 391.215 L312.242 392.882 L312.242 388.623 L320.506 386.956 L325.182 386.956 L325.182 417.581 L332.821 417.581 L332.821 421.516 L312.914 421.516 L312.914 417.581 Z" fill="#8f9191" fill-rule="nonzero" fill-opacity="1" /><path clip-path="url(#clip090)" d="M342.312 386.956 L360.668 386.956 L360.668 390.891 L346.594 390.891 L346.594 399.363 Q347.613 399.016 348.631 398.854 Q349.65 398.669 350.668 398.669 Q356.455 398.669 359.835 401.84 Q363.214 405.011 363.214 410.428 Q363.214 416.007 359.742 419.109 Q356.27 422.187 349.95 422.187 Q347.775 422.187 345.506 421.817 Q343.261 421.446 340.853 420.706 L340.853 416.007 Q342.937 417.141 345.159 417.697 Q347.381 418.252 349.858 418.252 Q353.863 418.252 356.2 416.146 Q358.538 414.039 358.538 410.428 Q358.538 406.817 356.2 404.71 Q353.863 402.604 349.858 402.604 Q347.983 402.604 346.108 403.021 Q344.256 403.437 342.312 404.317 L342.312 386.956 Z" fill="#8f9191" fill-rule="nonzero" fill-opacity="1" /><path clip-path="url(#clip090)" d="M275.877 149.929 Q272.266 149.929 270.437 153.494 Q268.631 157.036 268.631 164.165 Q268.631 171.272 270.437 174.836 Q272.266 178.378 275.877 178.378 Q279.511 178.378 281.317 174.836 Q283.145 171.272 283.145 164.165 Q283.145 157.036 281.317 153.494 Q279.511 149.929 275.877 149.929 M275.877 146.225 Q281.687 146.225 284.743 150.832 Q287.821 155.415 287.821 164.165 Q287.821 172.892 284.743 177.498 Q281.687 182.082 275.877 182.082 Q270.067 182.082 266.988 177.498 Q263.932 172.892 263.932 164.165 Q263.932 155.415 266.988 150.832 Q270.067 146.225 275.877 146.225 Z" fill="#8f9191" fill-rule="nonzero" fill-opacity="1" /><path clip-path="url(#clip090)" d="M296.039 175.531 L300.923 175.531 L300.923 181.41 L296.039 181.41 L296.039 175.531 Z" fill="#8f9191" fill-rule="nonzero" fill-opacity="1" /><path clip-path="url(#clip090)" d="M315.136 177.475 L331.455 177.475 L331.455 181.41 L309.511 181.41 L309.511 177.475 Q312.173 174.721 316.756 170.091 Q321.363 165.438 322.543 164.096 Q324.789 161.573 325.668 159.836 Q326.571 158.077 326.571 156.387 Q326.571 153.633 324.627 151.897 Q322.705 150.161 319.603 150.161 Q317.404 150.161 314.951 150.924 Q312.52 151.688 309.742 153.239 L309.742 148.517 Q312.566 147.383 315.02 146.804 Q317.474 146.225 319.511 146.225 Q324.881 146.225 328.076 148.911 Q331.27 151.596 331.27 156.087 Q331.27 158.216 330.46 160.137 Q329.673 162.036 327.566 164.628 Q326.988 165.299 323.886 168.517 Q320.784 171.711 315.136 177.475 Z" fill="#8f9191" fill-rule="nonzero" fill-opacity="1" /><path clip-path="url(#clip090)" d="M351.27 149.929 Q347.659 149.929 345.83 153.494 Q344.025 157.036 344.025 164.165 Q344.025 171.272 345.83 174.836 Q347.659 178.378 351.27 178.378 Q354.904 178.378 356.71 174.836 Q358.538 171.272 358.538 164.165 Q358.538 157.036 356.71 153.494 Q354.904 149.929 351.27 149.929 M351.27 146.225 Q357.08 146.225 360.136 150.832 Q363.214 155.415 363.214 164.165 Q363.214 172.892 360.136 177.498 Q357.08 182.082 351.27 182.082 Q345.46 182.082 342.381 177.498 Q339.326 172.892 339.326 164.165 Q339.326 155.415 342.381 150.832 Q345.46 146.225 351.27 146.225 Z" fill="#8f9191" fill-rule="nonzero" fill-opacity="1" /><path clip-path="url(#clip090)" d="M173.092 636.566 Q172.106 635.993 170.928 635.739 Q169.782 635.452 168.382 635.452 Q163.416 635.452 160.743 638.699 Q158.101 641.914 158.101 647.961 L158.101 666.74 L152.213 666.74 L152.213 631.092 L158.101 631.092 L158.101 636.63 Q159.947 633.384 162.907 631.824 Q165.867 630.232 170.1 630.232 Q170.705 630.232 171.437 630.328 Q172.169 630.392 173.06 630.551 L173.092 636.566 Z" fill="#8f9191" fill-rule="nonzero" fill-opacity="1" /><polyline clip-path="url(#clip092)" style="stroke:#6496c8; stroke-linecap:round; stroke-linejoin:round; stroke-width:8; stroke-opacity:1; fill:none" points="1899.43,363.711 1853.84,363.701 1787.37,363.788 1717.14,364.066 1646.99,364.599 1577.05,365.396 1507.03,366.472 1436.78,367.807 1366.08,369.382 1294.56,371.116 1222.45,372.912 1151.33,374.573 1081.9,375.894 1013.61,376.763 946.587,377.416 881.696,377.834 820.734,377.603 763.872,376.422 711.193,374.011 662.97,370.127 619.53,364.59 581.204,357.315 548.329,348.301 521,337.669 499.021,325.462 482.127,311.608 470.266,295.968 463.687,278.642 462.525,260.149 466.703,240.642 476.201,221.343 490.824,202.528 510.474,184.347 535.022,167.045 564.142,150.997 597.32,136.586 633.994,124.119 673.582,113.771 715.563,105.67 759.636,99.8302 805.42,96.2478 852.73,94.8792 901.284,95.6764 950.938,98.5864 1001.64,103.537 1053.85,110.573 1108.97,119.629 1165.56,130.271 1222.91,142.295 1280.83,155.626 1339.22,170.152 1397.87,185.788 1456.69,202.466 1515.66,220.147 1574.46,238.707 1633.2,258.175 1691.69,278.478 1749.77,299.569 1807.11,321.304 1860.89,342.567 1899.8,358.491 "/>
<polyline clip-path="url(#clip092)" style="stroke:#c86464; stroke-linecap:round; stroke-linejoin:round; stroke-width:8; stroke-opacity:1; fill:none" points="437.352,1124.55 440.166,1099.13 447.816,1076.31 460.095,1054.68 476.878,1034.15 498.013,1014.83 523.214,996.888 552.128,980.484 584.316,965.756 619.352,952.776 656.833,941.558 696.344,932.108 737.676,924.352 780.468,918.225 824.546,913.663 869.729,910.566 916.027,908.832 962.516,908.462 1013.61,908.688 1089.35,908.698 1166.79,908.794 1244.39,908.875 1322.05,908.947 1399.73,909.024 1477.39,909.101 1554.91,909.192 1631.05,909.231 1695.96,910.551 1754.01,915.296 1809.64,923.848 1862.14,936.463 1908.62,952.022 "/>
<circle clip-path="url(#clip092)" cx="1013.61" cy="882.089" r="10.8" fill="#64c864" fill-rule="evenodd" fill-opacity="1" stroke="none"/>
<circle clip-path="url(#clip092)" cx="1013.61" cy="828.901" r="10.8" fill="#64c864" fill-rule="evenodd" fill-opacity="1" stroke="none"/>
<circle clip-path="url(#clip092)" cx="1013.61" cy="775.708" r="10.8" fill="#64c864" fill-rule="evenodd" fill-opacity="1" stroke="none"/>
<circle clip-path="url(#clip092)" cx="1013.61" cy="722.515" r="10.8" fill="#64c864" fill-rule="evenodd" fill-opacity="1" stroke="none"/>
<circle clip-path="url(#clip092)" cx="1013.61" cy="669.322" r="10.8" fill="#64c864" fill-rule="evenodd" fill-opacity="1" stroke="none"/>
<circle clip-path="url(#clip092)" cx="1013.61" cy="616.153" r="10.8" fill="#64c864" fill-rule="evenodd" fill-opacity="1" stroke="none"/>
<circle clip-path="url(#clip092)" cx="1013.61" cy="562.946" r="10.8" fill="#64c864" fill-rule="evenodd" fill-opacity="1" stroke="none"/>
<circle clip-path="url(#clip092)" cx="1013.61" cy="509.738" r="10.8" fill="#64c864" fill-rule="evenodd" fill-opacity="1" stroke="none"/>
<circle clip-path="url(#clip092)" cx="1013.61" cy="456.531" r="10.8" fill="#64c864" fill-rule="evenodd" fill-opacity="1" stroke="none"/>
<circle clip-path="url(#clip092)" cx="1013.61" cy="403.372" r="10.8" fill="#64c864" fill-rule="evenodd" fill-opacity="1" stroke="none"/>
<path clip-path="url(#clip090)" d="M445.199 724.974 L964.23 724.974 L964.23 517.614 L445.199 517.614  Z" fill="#000000" fill-rule="evenodd" fill-opacity="0"/>
<polyline clip-path="url(#clip090)" style="stroke:#000000; stroke-linecap:round; stroke-linejoin:round; stroke-width:4; stroke-opacity:0; fill:none" points="445.199,724.974 964.23,724.974 964.23,517.614 445.199,517.614 445.199,724.974 "/>
<polyline clip-path="url(#clip090)" style="stroke:#6496c8; stroke-linecap:round; stroke-linejoin:round; stroke-width:8; stroke-opacity:1; fill:none" points="462.527,569.454 566.497,569.454 "/>
<path clip-path="url(#clip090)" d="M588.501 556.017 L588.501 582.891 L594.149 582.891 Q601.302 582.891 604.612 579.651 Q607.945 576.41 607.945 569.419 Q607.945 562.475 604.612 559.257 Q601.302 556.017 594.149 556.017 L588.501 556.017 M583.825 552.174 L593.431 552.174 Q603.478 552.174 608.177 556.364 Q612.876 560.53 612.876 569.419 Q612.876 578.354 608.154 582.544 Q603.431 586.734 593.431 586.734 L583.825 586.734 L583.825 552.174 Z" fill="#8f9191" fill-rule="nonzero" fill-opacity="1" /><path clip-path="url(#clip090)" d="M619.704 576.503 L619.704 560.808 L623.964 560.808 L623.964 576.34 Q623.964 580.021 625.399 581.873 Q626.834 583.702 629.704 583.702 Q633.153 583.702 635.144 581.502 Q637.158 579.303 637.158 575.507 L637.158 560.808 L641.417 560.808 L641.417 586.734 L637.158 586.734 L637.158 582.752 Q635.607 585.114 633.547 586.271 Q631.51 587.405 628.802 587.405 Q624.334 587.405 622.019 584.627 Q619.704 581.85 619.704 576.503 M630.422 560.183 L630.422 560.183 Z" fill="#8f9191" fill-rule="nonzero" fill-opacity="1" /><path clip-path="url(#clip090)" d="M668.848 561.804 L668.848 565.785 Q667.042 564.79 665.213 564.304 Q663.408 563.794 661.556 563.794 Q657.413 563.794 655.121 566.433 Q652.829 569.049 652.829 573.794 Q652.829 578.54 655.121 581.178 Q657.413 583.794 661.556 583.794 Q663.408 583.794 665.213 583.308 Q667.042 582.799 668.848 581.803 L668.848 585.739 Q667.065 586.572 665.144 586.989 Q663.246 587.405 661.093 587.405 Q655.237 587.405 651.788 583.725 Q648.338 580.044 648.338 573.794 Q648.338 567.452 651.811 563.817 Q655.306 560.183 661.371 560.183 Q663.338 560.183 665.213 560.6 Q667.088 560.993 668.848 561.804 Z" fill="#8f9191" fill-rule="nonzero" fill-opacity="1" /><path clip-path="url(#clip090)" d="M680.468 553.447 L680.468 560.808 L689.241 560.808 L689.241 564.118 L680.468 564.118 L680.468 578.192 Q680.468 581.364 681.324 582.266 Q682.204 583.169 684.866 583.169 L689.241 583.169 L689.241 586.734 L684.866 586.734 Q679.936 586.734 678.061 584.905 Q676.186 583.053 676.186 578.192 L676.186 564.118 L673.061 564.118 L673.061 560.808 L676.186 560.808 L676.186 553.447 L680.468 553.447 Z" fill="#8f9191" fill-rule="nonzero" fill-opacity="1" /><polyline clip-path="url(#clip090)" style="stroke:#c86464; stroke-linecap:round; stroke-linejoin:round; stroke-width:8; stroke-opacity:1; fill:none" points="462.527,621.294 566.497,621.294 "/>
<path clip-path="url(#clip090)" d="M611.695 606.676 L611.695 611.606 Q609.334 609.407 606.649 608.319 Q603.987 607.232 600.978 607.232 Q595.052 607.232 591.904 610.866 Q588.755 614.477 588.755 621.329 Q588.755 628.157 591.904 631.792 Q595.052 635.403 600.978 635.403 Q603.987 635.403 606.649 634.315 Q609.334 633.227 611.695 631.028 L611.695 635.912 Q609.241 637.579 606.487 638.412 Q603.755 639.245 600.7 639.245 Q592.853 639.245 588.339 634.454 Q583.825 629.639 583.825 621.329 Q583.825 612.995 588.339 608.204 Q592.853 603.389 600.7 603.389 Q603.802 603.389 606.533 604.222 Q609.288 605.032 611.695 606.676 Z" fill="#8f9191" fill-rule="nonzero" fill-opacity="1" /><path clip-path="url(#clip090)" d="M640.908 624.546 L640.908 626.63 L621.325 626.63 Q621.603 631.028 623.964 633.342 Q626.348 635.634 630.584 635.634 Q633.038 635.634 635.329 635.032 Q637.644 634.43 639.913 633.227 L639.913 637.255 Q637.621 638.227 635.214 638.736 Q632.806 639.245 630.329 639.245 Q624.126 639.245 620.491 635.634 Q616.88 632.023 616.88 625.866 Q616.88 619.5 620.306 615.773 Q623.755 612.023 629.589 612.023 Q634.82 612.023 637.852 615.403 Q640.908 618.759 640.908 624.546 M636.649 623.296 Q636.602 619.801 634.681 617.718 Q632.783 615.634 629.635 615.634 Q626.07 615.634 623.917 617.648 Q621.788 619.662 621.464 623.319 L636.649 623.296 Z" fill="#8f9191" fill-rule="nonzero" fill-opacity="1" /><path clip-path="url(#clip090)" d="M669.449 622.926 L669.449 638.574 L665.19 638.574 L665.19 623.065 Q665.19 619.384 663.755 617.556 Q662.32 615.727 659.45 615.727 Q656 615.727 654.01 617.926 Q652.019 620.125 652.019 623.921 L652.019 638.574 L647.737 638.574 L647.737 612.648 L652.019 612.648 L652.019 616.676 Q653.547 614.338 655.607 613.181 Q657.69 612.023 660.399 612.023 Q664.866 612.023 667.158 614.801 Q669.449 617.556 669.449 622.926 Z" fill="#8f9191" fill-rule="nonzero" fill-opacity="1" /><path clip-path="url(#clip090)" d="M682.158 605.287 L682.158 612.648 L690.931 612.648 L690.931 615.958 L682.158 615.958 L682.158 630.032 Q682.158 633.204 683.014 634.106 Q683.894 635.009 686.556 635.009 L690.931 635.009 L690.931 638.574 L686.556 638.574 Q681.625 638.574 679.75 636.745 Q677.875 634.893 677.875 630.032 L677.875 615.958 L674.75 615.958 L674.75 612.648 L677.875 612.648 L677.875 605.287 L682.158 605.287 Z" fill="#8f9191" fill-rule="nonzero" fill-opacity="1" /><path clip-path="url(#clip090)" d="M718.708 624.546 L718.708 626.63 L699.125 626.63 Q699.403 631.028 701.764 633.342 Q704.148 635.634 708.384 635.634 Q710.838 635.634 713.13 635.032 Q715.445 634.43 717.713 633.227 L717.713 637.255 Q715.421 638.227 713.014 638.736 Q710.607 639.245 708.13 639.245 Q701.926 639.245 698.292 635.634 Q694.681 632.023 694.681 625.866 Q694.681 619.5 698.107 615.773 Q701.556 612.023 707.389 612.023 Q712.621 612.023 715.653 615.403 Q718.708 618.759 718.708 624.546 M714.449 623.296 Q714.403 619.801 712.482 617.718 Q710.584 615.634 707.435 615.634 Q703.871 615.634 701.718 617.648 Q699.588 619.662 699.264 623.319 L714.449 623.296 Z" fill="#8f9191" fill-rule="nonzero" fill-opacity="1" /><path clip-path="url(#clip090)" d="M740.722 616.63 Q740.005 616.213 739.148 616.028 Q738.315 615.819 737.296 615.819 Q733.685 615.819 731.741 618.181 Q729.82 620.518 729.82 624.917 L729.82 638.574 L725.537 638.574 L725.537 612.648 L729.82 612.648 L729.82 616.676 Q731.162 614.315 733.315 613.181 Q735.468 612.023 738.546 612.023 Q738.986 612.023 739.519 612.093 Q740.051 612.139 740.699 612.255 L740.722 616.63 Z" fill="#8f9191" fill-rule="nonzero" fill-opacity="1" /><path clip-path="url(#clip090)" d="M765.12 622.069 L765.12 634.731 L772.62 634.731 Q776.393 634.731 778.199 633.18 Q780.028 631.606 780.028 628.389 Q780.028 625.148 778.199 623.62 Q776.393 622.069 772.62 622.069 L765.12 622.069 M765.12 607.857 L765.12 618.273 L772.042 618.273 Q775.467 618.273 777.134 617 Q778.824 615.704 778.824 613.065 Q778.824 610.449 777.134 609.153 Q775.467 607.857 772.042 607.857 L765.12 607.857 M760.444 604.014 L772.389 604.014 Q777.736 604.014 780.629 606.236 Q783.523 608.458 783.523 612.556 Q783.523 615.727 782.041 617.602 Q780.56 619.477 777.69 619.94 Q781.139 620.681 783.037 623.042 Q784.958 625.38 784.958 628.898 Q784.958 633.528 781.81 636.051 Q778.662 638.574 772.852 638.574 L760.444 638.574 L760.444 604.014 Z" fill="#8f9191" fill-rule="nonzero" fill-opacity="1" /><path clip-path="url(#clip090)" d="M802.828 615.634 Q799.403 615.634 797.412 618.319 Q795.421 620.981 795.421 625.634 Q795.421 630.287 797.389 632.972 Q799.379 635.634 802.828 635.634 Q806.231 635.634 808.222 632.949 Q810.213 630.264 810.213 625.634 Q810.213 621.028 808.222 618.343 Q806.231 615.634 802.828 615.634 M802.828 612.023 Q808.384 612.023 811.555 615.634 Q814.726 619.245 814.726 625.634 Q814.726 632 811.555 635.634 Q808.384 639.245 802.828 639.245 Q797.25 639.245 794.078 635.634 Q790.93 632 790.93 625.634 Q790.93 619.245 794.078 615.634 Q797.25 612.023 802.828 612.023 Z" fill="#8f9191" fill-rule="nonzero" fill-opacity="1" /><path clip-path="url(#clip090)" d="M838.847 616.583 L838.847 602.556 L843.106 602.556 L843.106 638.574 L838.847 638.574 L838.847 634.685 Q837.504 637 835.444 638.134 Q833.407 639.245 830.537 639.245 Q825.838 639.245 822.875 635.495 Q819.935 631.745 819.935 625.634 Q819.935 619.523 822.875 615.773 Q825.838 612.023 830.537 612.023 Q833.407 612.023 835.444 613.157 Q837.504 614.269 838.847 616.583 M824.333 625.634 Q824.333 630.333 826.254 633.018 Q828.199 635.68 831.578 635.68 Q834.958 635.68 836.902 633.018 Q838.847 630.333 838.847 625.634 Q838.847 620.935 836.902 618.273 Q834.958 615.588 831.578 615.588 Q828.199 615.588 826.254 618.273 Q824.333 620.935 824.333 625.634 Z" fill="#8f9191" fill-rule="nonzero" fill-opacity="1" /><path clip-path="url(#clip090)" d="M862.666 640.981 Q860.861 645.611 859.148 647.023 Q857.435 648.435 854.564 648.435 L851.161 648.435 L851.161 644.87 L853.661 644.87 Q855.421 644.87 856.393 644.037 Q857.365 643.204 858.546 640.102 L859.31 638.157 L848.824 612.648 L853.337 612.648 L861.439 632.926 L869.541 612.648 L874.055 612.648 L862.666 640.981 Z" fill="#8f9191" fill-rule="nonzero" fill-opacity="1" /><circle clip-path="url(#clip090)" cx="514.512" cy="673.134" r="23.04" fill="#64c864" fill-rule="evenodd" fill-opacity="1" stroke="none"/>
<path clip-path="url(#clip090)" d="M588.501 673.909 L588.501 686.571 L596.001 686.571 Q599.774 686.571 601.579 685.02 Q603.408 683.446 603.408 680.229 Q603.408 676.988 601.579 675.46 Q599.774 673.909 596.001 673.909 L588.501 673.909 M588.501 659.697 L588.501 670.113 L595.422 670.113 Q598.848 670.113 600.515 668.84 Q602.204 667.544 602.204 664.905 Q602.204 662.289 600.515 660.993 Q598.848 659.697 595.422 659.697 L588.501 659.697 M583.825 655.854 L595.769 655.854 Q601.117 655.854 604.01 658.076 Q606.904 660.298 606.904 664.396 Q606.904 667.567 605.422 669.442 Q603.941 671.317 601.07 671.78 Q604.519 672.521 606.417 674.882 Q608.339 677.22 608.339 680.738 Q608.339 685.368 605.191 687.891 Q602.042 690.414 596.232 690.414 L583.825 690.414 L583.825 655.854 Z" fill="#8f9191" fill-rule="nonzero" fill-opacity="1" /><path clip-path="url(#clip090)" d="M616.163 654.396 L620.422 654.396 L620.422 690.414 L616.163 690.414 L616.163 654.396 Z" fill="#8f9191" fill-rule="nonzero" fill-opacity="1" /><path clip-path="url(#clip090)" d="M641.116 677.382 Q635.954 677.382 633.964 678.562 Q631.973 679.743 631.973 682.59 Q631.973 684.858 633.454 686.201 Q634.959 687.52 637.528 687.52 Q641.07 687.52 643.2 685.02 Q645.352 682.497 645.352 678.331 L645.352 677.382 L641.116 677.382 M649.612 675.622 L649.612 690.414 L645.352 690.414 L645.352 686.479 Q643.894 688.84 641.718 689.974 Q639.542 691.085 636.394 691.085 Q632.413 691.085 630.052 688.863 Q627.714 686.618 627.714 682.868 Q627.714 678.493 630.63 676.27 Q633.57 674.048 639.38 674.048 L645.352 674.048 L645.352 673.632 Q645.352 670.692 643.408 669.095 Q641.487 667.474 637.991 667.474 Q635.769 667.474 633.663 668.007 Q631.556 668.539 629.612 669.604 L629.612 665.669 Q631.95 664.766 634.149 664.326 Q636.348 663.863 638.431 663.863 Q644.056 663.863 646.834 666.78 Q649.612 669.696 649.612 675.622 Z" fill="#8f9191" fill-rule="nonzero" fill-opacity="1" /><path clip-path="url(#clip090)" d="M675.445 668.423 L675.445 654.396 L679.704 654.396 L679.704 690.414 L675.445 690.414 L675.445 686.525 Q674.102 688.84 672.042 689.974 Q670.005 691.085 667.135 691.085 Q662.436 691.085 659.473 687.335 Q656.533 683.585 656.533 677.474 Q656.533 671.363 659.473 667.613 Q662.436 663.863 667.135 663.863 Q670.005 663.863 672.042 664.997 Q674.102 666.109 675.445 668.423 M660.931 677.474 Q660.931 682.173 662.852 684.858 Q664.797 687.52 668.176 687.52 Q671.556 687.52 673.5 684.858 Q675.445 682.173 675.445 677.474 Q675.445 672.775 673.5 670.113 Q671.556 667.428 668.176 667.428 Q664.797 667.428 662.852 670.113 Q660.931 672.775 660.931 677.474 Z" fill="#8f9191" fill-rule="nonzero" fill-opacity="1" /><path clip-path="url(#clip090)" d="M710.653 676.386 L710.653 678.47 L691.07 678.47 Q691.348 682.868 693.709 685.182 Q696.093 687.474 700.329 687.474 Q702.783 687.474 705.074 686.872 Q707.389 686.27 709.658 685.067 L709.658 689.095 Q707.366 690.067 704.959 690.576 Q702.551 691.085 700.074 691.085 Q693.871 691.085 690.236 687.474 Q686.625 683.863 686.625 677.706 Q686.625 671.34 690.051 667.613 Q693.5 663.863 699.334 663.863 Q704.565 663.863 707.597 667.243 Q710.653 670.599 710.653 676.386 M706.394 675.136 Q706.347 671.641 704.426 669.558 Q702.528 667.474 699.38 667.474 Q695.815 667.474 693.662 669.488 Q691.533 671.502 691.209 675.159 L706.394 675.136 Z" fill="#8f9191" fill-rule="nonzero" fill-opacity="1" /><path clip-path="url(#clip090)" d="M732.898 655.854 L754.75 655.854 L754.75 659.789 L737.574 659.789 L737.574 670.021 L754.032 670.021 L754.032 673.956 L737.574 673.956 L737.574 686.479 L755.167 686.479 L755.167 690.414 L732.898 690.414 L732.898 655.854 Z" fill="#8f9191" fill-rule="nonzero" fill-opacity="1" /><path clip-path="url(#clip090)" d="M762.667 654.396 L766.926 654.396 L766.926 690.414 L762.667 690.414 L762.667 654.396 Z" fill="#8f9191" fill-rule="nonzero" fill-opacity="1" /><path clip-path="url(#clip090)" d="M798.014 676.386 L798.014 678.47 L778.43 678.47 Q778.708 682.868 781.069 685.182 Q783.454 687.474 787.69 687.474 Q790.143 687.474 792.435 686.872 Q794.75 686.27 797.018 685.067 L797.018 689.095 Q794.727 690.067 792.319 690.576 Q789.912 691.085 787.435 691.085 Q781.231 691.085 777.597 687.474 Q773.986 683.863 773.986 677.706 Q773.986 671.34 777.412 667.613 Q780.861 663.863 786.694 663.863 Q791.926 663.863 794.958 667.243 Q798.014 670.599 798.014 676.386 M793.754 675.136 Q793.708 671.641 791.787 669.558 Q789.889 667.474 786.741 667.474 Q783.176 667.474 781.023 669.488 Q778.893 671.502 778.569 675.159 L793.754 675.136 Z" fill="#8f9191" fill-rule="nonzero" fill-opacity="1" /><path clip-path="url(#clip090)" d="M825.189 669.465 Q826.787 666.595 829.009 665.229 Q831.231 663.863 834.24 663.863 Q838.291 663.863 840.49 666.71 Q842.689 669.534 842.689 674.766 L842.689 690.414 L838.407 690.414 L838.407 674.905 Q838.407 671.178 837.087 669.372 Q835.768 667.567 833.06 667.567 Q829.75 667.567 827.828 669.766 Q825.907 671.965 825.907 675.761 L825.907 690.414 L821.625 690.414 L821.625 674.905 Q821.625 671.155 820.305 669.372 Q818.986 667.567 816.231 667.567 Q812.967 667.567 811.046 669.789 Q809.125 671.988 809.125 675.761 L809.125 690.414 L804.842 690.414 L804.842 664.488 L809.125 664.488 L809.125 668.516 Q810.583 666.132 812.62 664.997 Q814.657 663.863 817.458 663.863 Q820.282 663.863 822.25 665.298 Q824.24 666.734 825.189 669.465 Z" fill="#8f9191" fill-rule="nonzero" fill-opacity="1" /><path clip-path="url(#clip090)" d="M873.36 676.386 L873.36 678.47 L853.777 678.47 Q854.055 682.868 856.416 685.182 Q858.8 687.474 863.036 687.474 Q865.49 687.474 867.782 686.872 Q870.097 686.27 872.365 685.067 L872.365 689.095 Q870.073 690.067 867.666 690.576 Q865.259 691.085 862.782 691.085 Q856.578 691.085 852.944 687.474 Q849.333 683.863 849.333 677.706 Q849.333 671.34 852.759 667.613 Q856.208 663.863 862.041 663.863 Q867.273 663.863 870.305 667.243 Q873.36 670.599 873.36 676.386 M869.101 675.136 Q869.055 671.641 867.134 669.558 Q865.235 667.474 862.087 667.474 Q858.523 667.474 856.37 669.488 Q854.24 671.502 853.916 675.159 L869.101 675.136 Z" fill="#8f9191" fill-rule="nonzero" fill-opacity="1" /><path clip-path="url(#clip090)" d="M901.902 674.766 L901.902 690.414 L897.643 690.414 L897.643 674.905 Q897.643 671.224 896.208 669.396 Q894.772 667.567 891.902 667.567 Q888.453 667.567 886.462 669.766 Q884.471 671.965 884.471 675.761 L884.471 690.414 L880.189 690.414 L880.189 664.488 L884.471 664.488 L884.471 668.516 Q885.999 666.178 888.059 665.021 Q890.143 663.863 892.851 663.863 Q897.319 663.863 899.61 666.641 Q901.902 669.396 901.902 674.766 Z" fill="#8f9191" fill-rule="nonzero" fill-opacity="1" /><path clip-path="url(#clip090)" d="M914.61 657.127 L914.61 664.488 L923.383 664.488 L923.383 667.798 L914.61 667.798 L914.61 681.872 Q914.61 685.044 915.467 685.946 Q916.346 686.849 919.008 686.849 L923.383 686.849 L923.383 690.414 L919.008 690.414 Q914.078 690.414 912.203 688.585 Q910.328 686.733 910.328 681.872 L910.328 667.798 L907.203 667.798 L907.203 664.488 L910.328 664.488 L910.328 657.127 L914.61 657.127 Z" fill="#8f9191" fill-rule="nonzero" fill-opacity="1" /><path clip-path="url(#clip090)" d="M945.513 665.252 L945.513 669.28 Q943.707 668.354 941.763 667.891 Q939.818 667.428 937.735 667.428 Q934.564 667.428 932.967 668.4 Q931.393 669.372 931.393 671.317 Q931.393 672.798 932.527 673.655 Q933.661 674.488 937.087 675.252 L938.545 675.576 Q943.082 676.548 944.98 678.331 Q946.902 680.09 946.902 683.261 Q946.902 686.872 944.031 688.979 Q941.184 691.085 936.184 691.085 Q934.101 691.085 931.832 690.669 Q929.587 690.275 927.087 689.465 L927.087 685.067 Q929.448 686.294 931.74 686.919 Q934.031 687.52 936.277 687.52 Q939.286 687.52 940.906 686.502 Q942.527 685.46 942.527 683.585 Q942.527 681.849 941.346 680.923 Q940.189 679.997 936.23 679.141 L934.749 678.794 Q930.791 677.96 929.031 676.247 Q927.272 674.511 927.272 671.502 Q927.272 667.845 929.865 665.854 Q932.457 663.863 937.226 663.863 Q939.587 663.863 941.67 664.21 Q943.754 664.558 945.513 665.252 Z" fill="#8f9191" fill-rule="nonzero" fill-opacity="1" /></svg>
