<?xml version="1.0" encoding="utf-8"?>
<svg xmlns="http://www.w3.org/2000/svg" xmlns:xlink="http://www.w3.org/1999/xlink" width="600" height="600" viewBox="0 0 2400 2400">
<defs>
  <clipPath id="clip080">
    <rect x="0" y="0" width="2400" height="2400"/>
  </clipPath>
</defs>
<path clip-path="url(#clip080)" d="M0 2400 L2400 2400 L2400 0 L0 0  Z" fill="#ffffff" fill-rule="evenodd" fill-opacity="1"/>
<defs>
  <clipPath id="clip081">
    <rect x="480" y="240" width="1681" height="1681"/>
  </clipPath>
</defs>
<defs>
  <clipPath id="clip082">
    <rect x="135" y="31" width="2234" height="2249"/>
  </clipPath>
</defs>
<path clip-path="url(#clip082)" d="M723.545 1541.45 L728.563 1456.71 L733.841 1371.98 L739.329 1287.24 L744.976 1202.5 L750.734 1117.76 L756.553 1033.02 L762.385 948.282 L768.182 863.544 L773.901 778.805 L779.496 694.066 L779.496 1550.23 L773.901 1550.23 L768.182 1550.23 L762.385 1550.23 L756.553 1550.23 L750.734 1550.23 L744.976 1550.23 L739.329 1550.23 L733.841 1550.23 L728.563 1550.23 L723.545 1550.23  Z" fill="#4062d7" fill-rule="evenodd" fill-opacity="0.333333"/>
<polyline clip-path="url(#clip082)" style="stroke:#4062d7; stroke-linecap:round; stroke-linejoin:round; stroke-width:6; stroke-opacity:1; fill:none" points="723.545,1541.45 728.563,1456.71 733.841,1371.98 739.329,1287.24 744.976,1202.5 750.734,1117.76 756.553,1033.02 762.385,948.282 768.182,863.544 773.901,778.805 779.496,694.066 "/>
<path clip-path="url(#clip082)" d="M1084.55 1541.45 L1069.5 1456.71 L1053.67 1371.98 L1037.2 1287.24 L1020.26 1202.5 L1002.99 1117.76 L985.532 1033.02 L968.036 948.282 L950.643 863.544 L933.488 778.805 L916.702 694.066 L916.702 1550.23 L933.488 1550.23 L950.643 1550.23 L968.036 1550.23 L985.532 1550.23 L1002.99 1550.23 L1020.26 1550.23 L1037.2 1550.23 L1053.67 1550.23 L1069.5 1550.23 L1084.55 1550.23  Z" fill="#4062d7" fill-rule="evenodd" fill-opacity="0.333333"/>
<polyline clip-path="url(#clip082)" style="stroke:#4062d7; stroke-linecap:round; stroke-linejoin:round; stroke-width:6; stroke-opacity:1; fill:none" points="1084.55,1541.45 1069.5,1456.71 1053.67,1371.98 1037.2,1287.24 1020.26,1202.5 1002.99,1117.76 985.532,1033.02 968.036,948.282 950.643,863.544 933.488,778.805 916.702,694.066 "/>
<path clip-path="url(#clip082)" d="M779.496 689.676 L916.702 689.676 L916.702 1550.23 L779.496 1550.23  Z" fill="#4062d7" fill-rule="evenodd" fill-opacity="0.333333"/>
<polyline clip-path="url(#clip082)" style="stroke:#69ae5f; stroke-linecap:round; stroke-linejoin:round; stroke-width:0; stroke-opacity:1; fill:none" points="779.496,689.676 916.702,689.676 "/>
<path clip-path="url(#clip082)" d="M199.113 672.113 L199.447 676.536 L200.771 680.562 L203.084 684.207 L206.387 687.484 L210.678 690.409 L215.957 692.996 L222.224 695.259 L229.478 697.214 L237.718 698.874 L246.945 700.254 L257.157 701.369 L268.354 702.232 L280.536 702.86 L293.701 703.265 L307.851 703.464 L322.983 703.469 L339.098 703.297 L356.194 702.96 L374.272 702.475 L393.332 701.855 L413.371 701.114 L434.391 700.268 L456.39 699.331 L479.368 698.318 L503.325 697.242 L528.259 696.119 L554.171 694.963 L581.06 693.789 L608.925 692.61 L637.766 691.443 L667.583 690.3 L698.374 689.197 L730.14 688.149 L762.88 687.169 L796.593 686.272 L831.279 685.473 L866.937 684.786 L903.567 684.227 L941.169 683.808 L979.741 683.546 L1019.28 683.454 L1059.8 683.546 L1101.28 683.839 L1143.73 684.345 L1187.15 685.08 L1231.53 686.058 L1276.89 687.293 L1323.21 688.801 L1370.5 690.595 L1418.75 692.691 L1467.97 695.102 L1518.15 697.843 L1569.3 700.929 L1621.41 704.375 L1674.48 708.194 L1728.52 712.401 L1783.52 717.012 L1839.48 722.04 L1896.4 727.499 L1954.28 733.405 L1954.28 733.405 L1896.4 717.199 L1839.48 701.828 L1783.52 687.276 L1728.52 673.526 L1674.48 660.563 L1621.41 648.369 L1569.3 636.928 L1518.15 626.222 L1467.97 616.237 L1418.75 606.954 L1370.5 598.358 L1323.21 590.431 L1276.89 583.157 L1231.53 576.52 L1187.15 570.503 L1143.73 565.089 L1101.28 560.262 L1059.8 556.005 L1019.28 552.301 L979.741 549.134 L941.169 546.488 L903.567 544.345 L866.937 542.69 L831.279 541.504 L796.593 540.773 L762.88 540.479 L730.14 540.606 L698.374 541.136 L667.583 542.055 L637.766 543.344 L608.925 544.987 L581.06 546.968 L554.171 549.27 L528.259 551.876 L503.325 554.771 L479.368 557.936 L456.39 561.356 L434.391 565.014 L413.371 568.894 L393.332 572.979 L374.272 577.251 L356.194 581.696 L339.098 586.295 L322.983 591.033 L307.851 595.892 L293.701 600.857 L280.536 605.91 L268.354 611.036 L257.157 616.217 L246.945 621.436 L237.718 626.678 L229.478 631.925 L222.224 637.162 L215.957 642.371 L210.678 647.535 L206.387 652.639 L203.084 657.665 L200.771 662.597 L199.447 667.419 L199.113 672.113  Z" fill="#389725" fill-rule="evenodd" fill-opacity="0.333333"/>
<polyline clip-path="url(#clip082)" style="stroke:#389725; stroke-linecap:round; stroke-linejoin:round; stroke-width:20; stroke-opacity:1; fill:none" points="199.113,672.113 199.447,676.536 200.771,680.562 203.084,684.207 206.387,687.484 210.678,690.409 215.957,692.996 222.224,695.259 229.478,697.214 237.718,698.874 246.945,700.254 257.157,701.369 268.354,702.232 280.536,702.86 293.701,703.265 307.851,703.464 322.983,703.469 339.098,703.297 356.194,702.96 374.272,702.475 393.332,701.855 413.371,701.114 434.391,700.268 456.39,699.331 479.368,698.318 503.325,697.242 528.259,696.119 554.171,694.963 581.06,693.789 608.925,692.61 637.766,691.443 667.583,690.3 698.374,689.197 730.14,688.149 762.88,687.169 796.593,686.272 831.279,685.473 866.937,684.786 903.567,684.227 941.169,683.808 979.741,683.546 1019.28,683.454 1059.8,683.546 1101.28,683.839 1143.73,684.345 1187.15,685.08 1231.53,686.058 1276.89,687.293 1323.21,688.801 1370.5,690.595 1418.75,692.691 1467.97,695.102 1518.15,697.843 1569.3,700.929 1621.41,704.375 1674.48,708.194 1728.52,712.401 1783.52,717.012 1839.48,722.04 1896.4,727.499 1954.28,733.405 "/>
<polyline clip-path="url(#clip082)" style="stroke:#389725; stroke-linecap:round; stroke-linejoin:round; stroke-width:20; stroke-opacity:1; fill:none" points="199.113,672.113 199.766,667.419 201.398,662.597 204.011,657.665 207.604,652.639 212.175,647.535 217.725,642.371 224.253,637.162 231.758,631.925 240.24,626.678 249.697,621.436 260.131,616.217 271.539,611.036 283.921,605.91 297.278,600.857 311.607,595.892 326.909,591.033 343.183,586.295 360.429,581.696 378.645,577.251 397.832,572.979 417.989,568.894 439.114,565.014 461.208,561.356 484.27,557.936 508.3,554.771 533.296,551.876 559.259,549.27 586.187,546.968 614.08,544.987 642.938,543.344 672.76,542.055 703.545,541.136 735.292,540.606 768.002,540.479 801.674,540.773 836.306,541.504 871.899,542.69 908.452,544.345 945.964,546.488 984.435,549.134 1023.86,552.301 1064.25,556.005 1105.59,560.262 1147.89,565.089 1191.15,570.503 1235.36,576.52 1280.53,583.157 1326.64,590.431 1373.72,598.358 1421.74,606.954 1470.72,616.237 1520.65,626.222 1571.53,636.928 1623.36,648.369 1676.15,660.563 1729.88,673.526 1784.56,687.276 1840.18,701.828 1896.76,717.199 1954.28,733.405 "/>
<path clip-path="url(#clip082)" d="M419.608 1765.62 L422.499 1754.55 L427.308 1739.25 L434.021 1721.95 L442.62 1704.03 L453.081 1686.28 L465.372 1669.16 L479.46 1652.94 L495.305 1637.77 L512.862 1623.76 L532.081 1610.96 L552.907 1599.4 L575.281 1589.11 L599.141 1580.07 L624.418 1572.28 L651.041 1565.72 L678.934 1560.36 L708.019 1556.18 L738.212 1553.14 L769.429 1551.19 L801.58 1550.3 L834.575 1550.23 L868.32 1550.23 L902.719 1550.23 L937.676 1550.23 L973.09 1550.23 L1008.86 1550.23 L1044.89 1550.23 L1081.07 1550.24 L1117.3 1550.95 L1153.48 1552.82 L1189.51 1555.84 L1225.28 1559.98 L1260.7 1565.21 L1295.65 1571.46 L1330.05 1578.67 L1363.8 1586.76 L1396.79 1595.66 L1428.94 1605.26 L1460.16 1615.46 L1490.35 1626.15 L1519.44 1637.22 L1547.33 1648.54 L1573.95 1659.99 L1599.23 1671.45 L1623.09 1682.78 L1645.47 1693.87 L1666.29 1704.59 L1685.51 1714.83 L1703.07 1724.46 L1718.91 1733.4 L1733 1741.53 L1745.29 1748.77 L1755.75 1755.03 L1764.35 1760.26 L1771.07 1764.38 L1775.87 1767.36 L1775.87 1769.76 L1771.07 1769.76 L1764.35 1769.76 L1755.75 1769.76 L1745.29 1769.76 L1733 1769.76 L1718.91 1769.76 L1703.07 1769.76 L1685.51 1769.76 L1666.29 1769.76 L1645.47 1769.76 L1623.09 1769.76 L1599.23 1769.76 L1573.95 1769.76 L1547.33 1769.76 L1519.44 1769.76 L1490.35 1769.76 L1460.16 1769.76 L1428.94 1769.76 L1396.79 1769.76 L1363.8 1769.76 L1330.05 1769.76 L1295.65 1769.76 L1260.7 1769.76 L1225.28 1769.76 L1189.51 1769.76 L1153.48 1769.76 L1117.3 1769.76 L1081.07 1769.76 L1044.89 1769.76 L1008.86 1769.76 L973.09 1769.76 L937.676 1769.76 L902.719 1769.76 L868.32 1769.76 L834.575 1769.76 L801.58 1769.76 L769.429 1769.76 L738.212 1769.76 L708.019 1769.76 L678.934 1769.76 L651.041 1769.76 L624.418 1769.76 L599.141 1769.76 L575.281 1769.76 L552.907 1769.76 L532.081 1769.76 L512.862 1769.76 L495.305 1769.76 L479.46 1769.76 L465.372 1769.76 L453.081 1769.76 L442.62 1769.76 L434.021 1769.76 L427.308 1769.76 L422.499 1769.76 L419.608 1769.76  Z" fill="#ca3b33" fill-rule="evenodd" fill-opacity="0.333333"/>
<polyline clip-path="url(#clip082)" style="stroke:#ca3b33; stroke-linecap:round; stroke-linejoin:round; stroke-width:20; stroke-opacity:1; fill:none" points="419.608,1765.62 422.499,1754.55 427.308,1739.25 434.021,1721.95 442.62,1704.03 453.081,1686.28 465.372,1669.16 479.46,1652.94 495.305,1637.77 512.862,1623.76 532.081,1610.96 552.907,1599.4 575.281,1589.11 599.141,1580.07 624.418,1572.28 651.041,1565.72 678.934,1560.36 708.019,1556.18 738.212,1553.14 769.429,1551.19 801.58,1550.3 834.575,1550.23 868.32,1550.23 902.719,1550.23 937.676,1550.23 973.09,1550.23 1008.86,1550.23 1044.89,1550.23 1081.07,1550.24 1117.3,1550.95 1153.48,1552.82 1189.51,1555.84 1225.28,1559.98 1260.7,1565.21 1295.65,1571.46 1330.05,1578.67 1363.8,1586.76 1396.79,1595.66 1428.94,1605.26 1460.16,1615.46 1490.35,1626.15 1519.44,1637.22 1547.33,1648.54 1573.95,1659.99 1599.23,1671.45 1623.09,1682.78 1645.47,1693.87 1666.29,1704.59 1685.51,1714.83 1703.07,1724.46 1718.91,1733.4 1733,1741.53 1745.29,1748.77 1755.75,1755.03 1764.35,1760.26 1771.07,1764.38 1775.87,1767.36 "/>
<polyline clip-path="url(#clip082)" style="stroke:#9457b1; stroke-linecap:round; stroke-linejoin:round; stroke-width:16; stroke-opacity:1; fill:none" points="813.798,1509.49 833.116,1509.58 852.435,1509.68 871.753,1509.78 891.072,1509.88 910.391,1509.99 929.709,1510.11 949.028,1510.24 968.347,1510.38 987.665,1510.54 1006.98,1510.72 1026.3,1510.94 1045.62,1511.19 1064.94,1511.51 1084.26,1511.92 1103.58,1512.47 1122.9,1513.21 1142.21,1514.15 1161.53,1515.32 1180.85,1516.71 1200.17,1518.34 1219.49,1520.19 1238.81,1522.27 1258.13,1524.59 1277.44,1527.12 1296.76,1529.88 1316.08,1532.84 1335.4,1536.01 1354.72,1539.37 1374.04,1542.92 1393.36,1546.63 1412.68,1550.49 1431.99,1554.49 1451.31,1558.61 1470.63,1562.81 1489.95,1567.08 1509.27,1571.4 1528.59,1575.72 1547.91,1580.02 1567.22,1584.26 1586.54,1588.4 1605.86,1592.42 1625.18,1596.27 1644.5,1599.93 1663.82,1603.36 1683.14,1606.55 1702.46,1609.47 1721.77,1612.12 1741.09,1614.51 1760.41,1616.66 1779.73,1618.61 1797.19,1620.17 1814.64,1621.5 1832.1,1622.65 1849.55,1623.63 1867.01,1624.49 1884.46,1625.24 1901.92,1625.89 1919.37,1626.47 1936.83,1626.98 1954.28,1627.43 1965.98,1627.7 1977.69,1627.95 1989.39,1628.19 2001.09,1628.41 2012.79,1628.61 2024.49,1628.79 2036.19,1628.96 2047.89,1629.12 2059.59,1629.27 2071.3,1629.41 2083,1629.54 2094.7,1629.65 2106.4,1629.76 2118.1,1629.86 2129.8,1629.95 2141.5,1630.04 2153.2,1630.11 2164.9,1630.19 2176.61,1630.25 2188.31,1630.31 2200.01,1630.36 2211.71,1630.4 2223.41,1630.44 2235.11,1630.48 2246.81,1630.51 2258.51,1630.53 2270.21,1630.55 2281.92,1630.56 2293.62,1630.57 2305.32,1630.57 "/>
<polyline clip-path="url(#clip082)" style="stroke:#9457b1; stroke-linecap:round; stroke-linejoin:round; stroke-width:16; stroke-opacity:1; fill:none" points="813.798,1427.95 833.116,1428.19 852.435,1428.44 871.753,1428.69 891.072,1428.95 910.391,1429.22 929.709,1429.5 949.028,1429.81 968.347,1430.13 987.665,1430.49 1006.98,1430.88 1026.3,1431.31 1045.62,1431.8 1064.94,1432.34 1084.26,1432.96 1103.58,1433.65 1122.9,1434.44 1142.21,1435.33 1161.53,1436.32 1180.85,1437.43 1200.17,1438.65 1219.49,1439.99 1238.81,1441.45 1258.13,1443.02 1277.44,1444.71 1296.76,1446.5 1316.08,1448.39 1335.4,1450.38 1354.72,1452.45 1374.04,1454.61 1393.36,1456.83 1412.68,1459.1 1431.99,1461.43 1451.31,1463.78 1470.63,1466.16 1489.95,1468.55 1509.27,1470.93 1528.59,1473.29 1547.91,1475.62 1567.22,1477.91 1586.54,1480.14 1605.86,1482.3 1625.18,1484.39 1644.5,1486.39 1663.82,1488.3 1683.14,1490.11 1702.46,1491.82 1721.77,1493.42 1741.09,1494.92 1760.41,1496.32 1779.73,1497.61 1797.19,1498.7 1814.64,1499.7 1832.1,1500.63 1849.55,1501.49 1867.01,1502.28 1884.46,1503.01 1901.92,1503.68 1919.37,1504.29 1936.83,1504.86 1954.28,1505.38 1965.98,1505.7 1977.69,1506 1989.39,1506.29 2001.09,1506.56 2012.79,1506.82 2024.49,1507.06 2036.19,1507.29 2047.89,1507.5 2059.59,1507.7 2071.3,1507.88 2083,1508.06 2094.7,1508.22 2106.4,1508.37 2118.1,1508.52 2129.8,1508.65 2141.5,1508.77 2153.2,1508.88 2164.9,1508.98 2176.61,1509.08 2188.31,1509.16 2200.01,1509.24 2211.71,1509.31 2223.41,1509.36 2235.11,1509.42 2246.81,1509.46 2258.51,1509.49 2270.21,1509.52 2281.92,1509.54 2293.62,1509.55 2305.32,1509.56 "/>
<polyline clip-path="url(#clip082)" style="stroke:#9457b1; stroke-linecap:round; stroke-linejoin:round; stroke-width:16; stroke-opacity:1; fill:none" points="813.798,1346.41 833.116,1346.73 852.435,1347.06 871.753,1347.4 891.072,1347.74 910.391,1348.09 929.709,1348.46 949.028,1348.85 968.347,1349.26 987.665,1349.69 1006.98,1350.16 1026.3,1350.65 1045.62,1351.19 1064.94,1351.77 1084.26,1352.4 1103.58,1353.08 1122.9,1353.81 1142.21,1354.6 1161.53,1355.46 1180.85,1356.37 1200.17,1357.36 1219.49,1358.41 1238.81,1359.52 1258.13,1360.7 1277.44,1361.94 1296.76,1363.24 1316.08,1364.6 1335.4,1366.01 1354.72,1367.47 1374.04,1368.97 1393.36,1370.51 1412.68,1372.07 1431.99,1373.67 1451.31,1375.27 1470.63,1376.89 1489.95,1378.52 1509.27,1380.14 1528.59,1381.75 1547.91,1383.35 1567.22,1384.92 1586.54,1386.46 1605.86,1387.97 1625.18,1389.44 1644.5,1390.87 1663.82,1392.25 1683.14,1393.57 1702.46,1394.85 1721.77,1396.06 1741.09,1397.23 1760.41,1398.33 1779.73,1399.38 1797.19,1400.27 1814.64,1401.12 1832.1,1401.93 1849.55,1402.68 1867.01,1403.4 1884.46,1404.07 1901.92,1404.71 1919.37,1405.3 1936.83,1405.85 1954.28,1406.37 1965.98,1406.7 1977.69,1407.01 1989.39,1407.31 2001.09,1407.6 2012.79,1407.87 2024.49,1408.12 2036.19,1408.37 2047.89,1408.6 2059.59,1408.82 2071.3,1409.02 2083,1409.22 2094.7,1409.4 2106.4,1409.57 2118.1,1409.73 2129.8,1409.88 2141.5,1410.02 2153.2,1410.14 2164.9,1410.26 2176.61,1410.37 2188.31,1410.47 2200.01,1410.55 2211.71,1410.63 2223.41,1410.7 2235.11,1410.76 2246.81,1410.81 2258.51,1410.85 2270.21,1410.88 2281.92,1410.91 2293.62,1410.92 2305.32,1410.93 "/>
<polyline clip-path="url(#clip082)" style="stroke:#9457b1; stroke-linecap:round; stroke-linejoin:round; stroke-width:16; stroke-opacity:1; fill:none" points="813.798,1264.86 833.116,1265.22 852.435,1265.58 871.753,1265.95 891.072,1266.32 910.391,1266.7 929.709,1267.09 949.028,1267.5 968.347,1267.93 987.665,1268.38 1006.98,1268.85 1026.3,1269.35 1045.62,1269.87 1064.94,1270.43 1084.26,1271.02 1103.58,1271.65 1122.9,1272.31 1142.21,1273.01 1161.53,1273.75 1180.85,1274.54 1200.17,1275.36 1219.49,1276.23 1238.81,1277.14 1258.13,1278.08 1277.44,1279.07 1296.76,1280.1 1316.08,1281.16 1335.4,1282.26 1354.72,1283.38 1374.04,1284.54 1393.36,1285.71 1412.68,1286.91 1431.99,1288.13 1451.31,1289.36 1470.63,1290.6 1489.95,1291.84 1509.27,1293.09 1528.59,1294.33 1547.91,1295.56 1567.22,1296.79 1586.54,1298 1605.86,1299.19 1625.18,1300.36 1644.5,1301.5 1663.82,1302.62 1683.14,1303.71 1702.46,1304.77 1721.77,1305.79 1741.09,1306.78 1760.41,1307.74 1779.73,1308.65 1797.19,1309.44 1814.64,1310.21 1832.1,1310.94 1849.55,1311.64 1867.01,1312.3 1884.46,1312.94 1901.92,1313.54 1919.37,1314.12 1936.83,1314.66 1954.28,1315.17 1965.98,1315.5 1977.69,1315.81 1989.39,1316.11 2001.09,1316.4 2012.79,1316.68 2024.49,1316.94 2036.19,1317.19 2047.89,1317.43 2059.59,1317.66 2071.3,1317.87 2083,1318.07 2094.7,1318.27 2106.4,1318.45 2118.1,1318.62 2129.8,1318.77 2141.5,1318.92 2153.2,1319.06 2164.9,1319.18 2176.61,1319.3 2188.31,1319.4 2200.01,1319.5 2211.71,1319.58 2223.41,1319.66 2235.11,1319.72 2246.81,1319.78 2258.51,1319.82 2270.21,1319.86 2281.92,1319.88 2293.62,1319.89 2305.32,1319.9 "/>
<polyline clip-path="url(#clip082)" style="stroke:#9457b1; stroke-linecap:round; stroke-linejoin:round; stroke-width:16; stroke-opacity:1; fill:none" points="813.798,1183.32 833.116,1183.67 852.435,1184.02 871.753,1184.38 891.072,1184.74 910.391,1185.11 929.709,1185.5 949.028,1185.89 968.347,1186.3 987.665,1186.73 1006.98,1187.17 1026.3,1187.64 1045.62,1188.13 1064.94,1188.64 1084.26,1189.18 1103.58,1189.75 1122.9,1190.34 1142.21,1190.96 1161.53,1191.62 1180.85,1192.3 1200.17,1193.01 1219.49,1193.76 1238.81,1194.53 1258.13,1195.34 1277.44,1196.17 1296.76,1197.03 1316.08,1197.92 1335.4,1198.84 1354.72,1199.77 1374.04,1200.73 1393.36,1201.71 1412.68,1202.71 1431.99,1203.72 1451.31,1204.75 1470.63,1205.78 1489.95,1206.82 1509.27,1207.87 1528.59,1208.92 1547.91,1209.96 1567.22,1211.01 1586.54,1212.05 1605.86,1213.08 1625.18,1214.1 1644.5,1215.1 1663.82,1216.09 1683.14,1217.06 1702.46,1218.01 1721.77,1218.94 1741.09,1219.85 1760.41,1220.72 1779.73,1221.58 1797.19,1222.32 1814.64,1223.05 1832.1,1223.74 1849.55,1224.42 1867.01,1225.06 1884.46,1225.68 1901.92,1226.28 1919.37,1226.85 1936.83,1227.39 1954.28,1227.9 1965.98,1228.23 1977.69,1228.55 1989.39,1228.85 2001.09,1229.14 2012.79,1229.42 2024.49,1229.69 2036.19,1229.95 2047.89,1230.19 2059.59,1230.43 2071.3,1230.65 2083,1230.86 2094.7,1231.06 2106.4,1231.24 2118.1,1231.42 2129.8,1231.58 2141.5,1231.74 2153.2,1231.88 2164.9,1232.01 2176.61,1232.13 2188.31,1232.24 2200.01,1232.34 2211.71,1232.43 2223.41,1232.51 2235.11,1232.57 2246.81,1232.63 2258.51,1232.68 2270.21,1232.71 2281.92,1232.74 2293.62,1232.75 2305.32,1232.76 "/>
<polyline clip-path="url(#clip082)" style="stroke:#9457b1; stroke-linecap:round; stroke-linejoin:round; stroke-width:16; stroke-opacity:1; fill:none" points="813.798,1101.78 833.116,1102.09 852.435,1102.41 871.753,1102.73 891.072,1103.05 910.391,1103.38 929.709,1103.73 949.028,1104.08 968.347,1104.45 987.665,1104.83 1006.98,1105.23 1026.3,1105.65 1045.62,1106.09 1064.94,1106.55 1084.26,1107.04 1103.58,1107.54 1122.9,1108.07 1142.21,1108.63 1161.53,1109.21 1180.85,1109.81 1200.17,1110.44 1219.49,1111.1 1238.81,1111.79 1258.13,1112.5 1277.44,1113.23 1296.76,1113.99 1316.08,1114.78 1335.4,1115.58 1354.72,1116.41 1374.04,1117.26 1393.36,1118.13 1412.68,1119.01 1431.99,1119.92 1451.31,1120.83 1470.63,1121.76 1489.95,1122.7 1509.27,1123.65 1528.59,1124.6 1547.91,1125.56 1567.22,1126.52 1586.54,1127.48 1605.86,1128.44 1625.18,1129.39 1644.5,1130.34 1663.82,1131.28 1683.14,1132.21 1702.46,1133.12 1721.77,1134.02 1741.09,1134.9 1760.41,1135.77 1779.73,1136.61 1797.19,1137.35 1814.64,1138.07 1832.1,1138.77 1849.55,1139.45 1867.01,1140.11 1884.46,1140.74 1901.92,1141.34 1919.37,1141.92 1936.83,1142.48 1954.28,1143 1965.98,1143.34 1977.69,1143.67 1989.39,1143.98 2001.09,1144.28 2012.79,1144.57 2024.49,1144.85 2036.19,1145.12 2047.89,1145.37 2059.59,1145.61 2071.3,1145.84 2083,1146.05 2094.7,1146.26 2106.4,1146.45 2118.1,1146.63 2129.8,1146.8 2141.5,1146.96 2153.2,1147.1 2164.9,1147.24 2176.61,1147.36 2188.31,1147.47 2200.01,1147.57 2211.71,1147.66 2223.41,1147.74 2235.11,1147.81 2246.81,1147.87 2258.51,1147.92 2270.21,1147.95 2281.92,1147.98 2293.62,1148 2305.32,1148 "/>
<polyline clip-path="url(#clip082)" style="stroke:#9457b1; stroke-linecap:round; stroke-linejoin:round; stroke-width:16; stroke-opacity:1; fill:none" points="813.798,1020.24 833.116,1020.49 852.435,1020.74 871.753,1021 891.072,1021.26 910.391,1021.53 929.709,1021.81 949.028,1022.11 968.347,1022.42 987.665,1022.74 1006.98,1023.08 1026.3,1023.44 1045.62,1023.82 1064.94,1024.22 1084.26,1024.64 1103.58,1025.08 1122.9,1025.55 1142.21,1026.05 1161.53,1026.56 1180.85,1027.11 1200.17,1027.68 1219.49,1028.27 1238.81,1028.89 1258.13,1029.54 1277.44,1030.21 1296.76,1030.9 1316.08,1031.62 1335.4,1032.37 1354.72,1033.13 1374.04,1033.92 1393.36,1034.73 1412.68,1035.56 1431.99,1036.41 1451.31,1037.28 1470.63,1038.16 1489.95,1039.06 1509.27,1039.97 1528.59,1040.89 1547.91,1041.82 1567.22,1042.76 1586.54,1043.71 1605.86,1044.66 1625.18,1045.61 1644.5,1046.56 1663.82,1047.5 1683.14,1048.44 1702.46,1049.38 1721.77,1050.3 1741.09,1051.22 1760.41,1052.11 1779.73,1052.99 1797.19,1053.77 1814.64,1054.53 1832.1,1055.27 1849.55,1055.99 1867.01,1056.68 1884.46,1057.35 1901.92,1057.99 1919.37,1058.61 1936.83,1059.19 1954.28,1059.75 1965.98,1060.11 1977.69,1060.45 1989.39,1060.78 2001.09,1061.09 2012.79,1061.4 2024.49,1061.68 2036.19,1061.96 2047.89,1062.22 2059.59,1062.47 2071.3,1062.7 2083,1062.92 2094.7,1063.13 2106.4,1063.33 2118.1,1063.51 2129.8,1063.68 2141.5,1063.84 2153.2,1063.98 2164.9,1064.12 2176.61,1064.24 2188.31,1064.35 2200.01,1064.46 2211.71,1064.55 2223.41,1064.62 2235.11,1064.69 2246.81,1064.75 2258.51,1064.8 2270.21,1064.83 2281.92,1064.86 2293.62,1064.88 2305.32,1064.88 "/>
<polyline clip-path="url(#clip082)" style="stroke:#9457b1; stroke-linecap:round; stroke-linejoin:round; stroke-width:16; stroke-opacity:1; fill:none" points="813.798,938.694 833.116,938.856 852.435,939.021 871.753,939.19 891.072,939.368 910.391,939.555 929.709,939.754 949.028,939.968 968.347,940.197 987.665,940.443 1006.98,940.709 1026.3,940.996 1045.62,941.304 1064.94,941.636 1084.26,941.992 1103.58,942.373 1122.9,942.78 1142.21,943.213 1161.53,943.674 1180.85,944.162 1200.17,944.677 1219.49,945.221 1238.81,945.792 1258.13,946.392 1277.44,947.019 1296.76,947.674 1316.08,948.356 1335.4,949.066 1354.72,949.801 1374.04,950.562 1393.36,951.349 1412.68,952.159 1431.99,952.993 1451.31,953.849 1470.63,954.726 1489.95,955.623 1509.27,956.539 1528.59,957.473 1547.91,958.422 1567.22,959.385 1586.54,960.361 1605.86,961.348 1625.18,962.343 1644.5,963.344 1663.82,964.349 1683.14,965.356 1702.46,966.362 1721.77,967.363 1741.09,968.357 1760.41,969.341 1779.73,970.31 1797.19,971.17 1814.64,972.013 1832.1,972.835 1849.55,973.634 1867.01,974.406 1884.46,975.15 1901.92,975.861 1919.37,976.539 1936.83,977.181 1954.28,977.786 1965.98,978.17 1977.69,978.537 1989.39,978.886 2001.09,979.219 2012.79,979.534 2024.49,979.833 2036.19,980.115 2047.89,980.381 2059.59,980.632 2071.3,980.867 2083,981.087 2094.7,981.293 2106.4,981.485 2118.1,981.663 2129.8,981.829 2141.5,981.981 2153.2,982.121 2164.9,982.25 2176.61,982.367 2188.31,982.472 2200.01,982.567 2211.71,982.651 2223.41,982.724 2235.11,982.787 2246.81,982.841 2258.51,982.884 2270.21,982.918 2281.92,982.942 2293.62,982.956 2305.32,982.961 "/>
<polyline clip-path="url(#clip082)" style="stroke:#9457b1; stroke-linecap:round; stroke-linejoin:round; stroke-width:16; stroke-opacity:1; fill:none" points="813.798,857.152 833.116,857.193 852.435,857.238 871.753,857.289 891.072,857.351 910.391,857.426 929.709,857.517 949.028,857.626 968.347,857.755 987.665,857.906 1006.98,858.081 1026.3,858.282 1045.62,858.509 1064.94,858.763 1084.26,859.047 1103.58,859.359 1122.9,859.702 1142.21,860.076 1161.53,860.481 1180.85,860.917 1200.17,861.386 1219.49,861.886 1238.81,862.418 1258.13,862.983 1277.44,863.58 1296.76,864.209 1316.08,864.869 1335.4,865.561 1354.72,866.284 1374.04,867.038 1393.36,867.823 1412.68,868.637 1431.99,869.48 1451.31,870.351 1470.63,871.25 1489.95,872.176 1509.27,873.127 1528.59,874.104 1547.91,875.104 1567.22,876.126 1586.54,877.169 1605.86,878.231 1625.18,879.31 1644.5,880.405 1663.82,881.514 1683.14,882.633 1702.46,883.761 1721.77,884.893 1741.09,886.026 1760.41,887.157 1779.73,888.281 1797.19,889.285 1814.64,890.274 1832.1,891.244 1849.55,892.189 1867.01,893.103 1884.46,893.981 1901.92,894.817 1919.37,895.604 1936.83,896.338 1954.28,897.015 1965.98,897.437 1977.69,897.833 1989.39,898.203 2001.09,898.548 2012.79,898.869 2024.49,899.167 2036.19,899.443 2047.89,899.699 2059.59,899.935 2071.3,900.153 2083,900.354 2094.7,900.539 2106.4,900.71 2118.1,900.866 2129.8,901.008 2141.5,901.139 2153.2,901.257 2164.9,901.365 2176.61,901.462 2188.31,901.549 2200.01,901.627 2211.71,901.695 2223.41,901.755 2235.11,901.806 2246.81,901.848 2258.51,901.883 2270.21,901.91 2281.92,901.929 2293.62,901.94 2305.32,901.944 "/>
<polyline clip-path="url(#clip082)" style="stroke:#9457b1; stroke-linecap:round; stroke-linejoin:round; stroke-width:16; stroke-opacity:1; fill:none" points="813.798,775.609 833.116,775.479 852.435,775.355 871.753,775.244 891.072,775.149 910.391,775.075 929.709,775.026 949.028,775.003 968.347,775.009 987.665,775.045 1006.98,775.113 1026.3,775.213 1045.62,775.348 1064.94,775.517 1084.26,775.721 1103.58,775.961 1122.9,776.238 1142.21,776.551 1161.53,776.9 1180.85,777.287 1200.17,777.712 1219.49,778.173 1238.81,778.673 1258.13,779.209 1277.44,779.783 1296.76,780.395 1316.08,781.044 1335.4,781.73 1354.72,782.452 1374.04,783.212 1393.36,784.008 1412.68,784.84 1431.99,785.708 1451.31,786.611 1470.63,787.549 1489.95,788.522 1509.27,789.528 1528.59,790.568 1547.91,791.64 1567.22,792.744 1586.54,793.879 1605.86,795.044 1625.18,796.238 1644.5,797.459 1663.82,798.707 1683.14,799.98 1702.46,801.275 1721.77,802.59 1741.09,803.923 1760.41,805.27 1779.73,806.627 1797.19,807.857 1814.64,809.086 1832.1,810.308 1849.55,811.515 1867.01,812.698 1884.46,813.843 1901.92,814.934 1919.37,815.952 1936.83,816.874 1954.28,817.677 1965.98,818.141 1977.69,818.548 1989.39,818.907 2001.09,819.221 2012.79,819.498 2024.49,819.742 2036.19,819.958 2047.89,820.15 2059.59,820.32 2071.3,820.473 2083,820.609 2094.7,820.731 2106.4,820.841 2118.1,820.94 2129.8,821.029 2141.5,821.109 2153.2,821.18 2164.9,821.245 2176.61,821.302 2188.31,821.353 2200.01,821.398 2211.71,821.437 2223.41,821.471 2235.11,821.5 2246.81,821.524 2258.51,821.544 2270.21,821.559 2281.92,821.57 2293.62,821.576 2305.32,821.578 "/>
<polyline clip-path="url(#clip082)" style="stroke:#9457b1; stroke-linecap:round; stroke-linejoin:round; stroke-width:16; stroke-opacity:1; fill:none" points="813.798,694.066 833.116,693.641 852.435,693.256 871.753,692.911 891.072,692.608 910.391,692.345 929.709,692.126 949.028,691.948 968.347,691.813 987.665,691.719 1006.98,691.67 1026.3,691.663 1045.62,691.699 1064.94,691.779 1084.26,691.902 1103.58,692.068 1122.9,692.277 1142.21,692.53 1161.53,692.827 1180.85,693.167 1200.17,693.55 1219.49,693.977 1238.81,694.447 1258.13,694.96 1277.44,695.517 1296.76,696.117 1316.08,696.76 1335.4,697.446 1354.72,698.175 1374.04,698.947 1393.36,699.762 1412.68,700.619 1431.99,701.519 1451.31,702.462 1470.63,703.447 1489.95,704.475 1509.27,705.544 1528.59,706.656 1547.91,707.81 1567.22,709.005 1586.54,710.243 1605.86,711.522 1625.18,712.843 1644.5,714.205 1663.82,715.608 1683.14,717.053 1702.46,718.539 1721.77,720.066 1741.09,721.633 1760.41,723.242 1779.73,724.891 1797.19,726.415 1814.64,727.973 1832.1,729.564 1849.55,731.187 1867.01,732.843 1884.46,734.532 1901.92,736.254 1919.37,738.008 1936.83,739.794 1954.28,741.612 1965.98,741.612 1977.69,741.612 1989.39,741.612 2001.09,741.612 2012.79,741.612 2024.49,741.612 2036.19,741.612 2047.89,741.612 2059.59,741.612 2071.3,741.612 2083,741.612 2094.7,741.612 2106.4,741.612 2118.1,741.612 2129.8,741.612 2141.5,741.612 2153.2,741.612 2164.9,741.612 2176.61,741.612 2188.31,741.612 2200.01,741.612 2211.71,741.612 2223.41,741.612 2235.11,741.612 2246.81,741.612 2258.51,741.612 2270.21,741.612 2281.92,741.612 2293.62,741.612 2305.32,741.612 "/>
<path clip-path="url(#clip082)" d="M797.798 1493.49 L797.798 1525.49 L829.798 1525.49 L829.798 1493.49 L797.798 1493.49 Z" fill="#4062d7" fill-rule="evenodd" fill-opacity="1" stroke="none"/>
<path clip-path="url(#clip082)" d="M797.798 1411.95 L797.798 1443.95 L829.798 1443.95 L829.798 1411.95 L797.798 1411.95 Z" fill="#4062d7" fill-rule="evenodd" fill-opacity="1" stroke="none"/>
<path clip-path="url(#clip082)" d="M797.798 1330.41 L797.798 1362.41 L829.798 1362.41 L829.798 1330.41 L797.798 1330.41 Z" fill="#4062d7" fill-rule="evenodd" fill-opacity="1" stroke="none"/>
<path clip-path="url(#clip082)" d="M797.798 1248.86 L797.798 1280.86 L829.798 1280.86 L829.798 1248.86 L797.798 1248.86 Z" fill="#4062d7" fill-rule="evenodd" fill-opacity="1" stroke="none"/>
<path clip-path="url(#clip082)" d="M797.798 1167.32 L797.798 1199.32 L829.798 1199.32 L829.798 1167.32 L797.798 1167.32 Z" fill="#4062d7" fill-rule="evenodd" fill-opacity="1" stroke="none"/>
<path clip-path="url(#clip082)" d="M797.798 1085.78 L797.798 1117.78 L829.798 1117.78 L829.798 1085.78 L797.798 1085.78 Z" fill="#4062d7" fill-rule="evenodd" fill-opacity="1" stroke="none"/>
<path clip-path="url(#clip082)" d="M797.798 1004.24 L797.798 1036.24 L829.798 1036.24 L829.798 1004.24 L797.798 1004.24 Z" fill="#4062d7" fill-rule="evenodd" fill-opacity="1" stroke="none"/>
<path clip-path="url(#clip082)" d="M797.798 922.694 L797.798 954.694 L829.798 954.694 L829.798 922.694 L797.798 922.694 Z" fill="#4062d7" fill-rule="evenodd" fill-opacity="1" stroke="none"/>
<path clip-path="url(#clip082)" d="M797.798 841.152 L797.798 873.152 L829.798 873.152 L829.798 841.152 L797.798 841.152 Z" fill="#4062d7" fill-rule="evenodd" fill-opacity="1" stroke="none"/>
<path clip-path="url(#clip082)" d="M797.798 759.609 L797.798 791.609 L829.798 791.609 L829.798 759.609 L797.798 759.609 Z" fill="#4062d7" fill-rule="evenodd" fill-opacity="1" stroke="none"/>
<path clip-path="url(#clip082)" d="M797.798 678.066 L797.798 710.066 L829.798 710.066 L829.798 678.066 L797.798 678.066 Z" fill="#4062d7" fill-rule="evenodd" fill-opacity="1" stroke="none"/>
<polyline clip-path="url(#clip082)" style="stroke:#808080; stroke-linecap:round; stroke-linejoin:round; stroke-width:16; stroke-opacity:1; fill:none" stroke-dasharray="64, 32, 8, 32" points="199.113,1770.64 2305.32,1770.64 "/>
</svg>
