<?xml version="1.0" encoding="utf-8"?>
<svg xmlns="http://www.w3.org/2000/svg" xmlns:xlink="http://www.w3.org/1999/xlink" width="500" height="375" viewBox="0 0 2000 1500">
<defs>
  <clipPath id="clip470">
    <rect x="0" y="0" width="2000" height="1500"/>
  </clipPath>
</defs>
<defs>
  <clipPath id="clip471">
    <rect x="400" y="0" width="1401" height="1401"/>
  </clipPath>
</defs>
<defs>
  <clipPath id="clip472">
    <rect x="127" y="31" width="1842" height="1368"/>
  </clipPath>
</defs>
<path clip-path="url(#clip472)" d="M612.36 1006.54 L616.497 936.678 L620.848 866.818 L625.373 796.957 L630.028 727.097 L634.775 657.236 L639.572 587.376 L644.38 517.515 L649.16 447.654 L653.874 377.794 L658.487 307.933 L658.487 1013.78 L653.874 1013.78 L649.16 1013.78 L644.38 1013.78 L639.572 1013.78 L634.775 1013.78 L630.028 1013.78 L625.373 1013.78 L620.848 1013.78 L616.497 1013.78 L612.36 1013.78  Z" fill="#4062d7" fill-rule="evenodd" fill-opacity="0.333333"/>
<polyline clip-path="url(#clip472)" style="stroke:#4062d7; stroke-linecap:round; stroke-linejoin:round; stroke-width:4; stroke-opacity:1; fill:none" points="612.36,1006.54 616.497,936.678 620.848,866.818 625.373,796.957 630.028,727.097 634.775,657.236 639.572,587.376 644.38,517.515 649.16,447.654 653.874,377.794 658.487,307.933 "/>
<path clip-path="url(#clip472)" d="M909.985 1006.54 L897.573 936.678 L884.52 866.818 L870.948 796.957 L856.98 727.097 L842.74 657.236 L828.348 587.376 L813.925 517.515 L799.585 447.654 L785.442 377.794 L771.604 307.933 L771.604 1013.78 L785.442 1013.78 L799.585 1013.78 L813.925 1013.78 L828.348 1013.78 L842.74 1013.78 L856.98 1013.78 L870.948 1013.78 L884.52 1013.78 L897.573 1013.78 L909.985 1013.78  Z" fill="#4062d7" fill-rule="evenodd" fill-opacity="0.333333"/>
<polyline clip-path="url(#clip472)" style="stroke:#4062d7; stroke-linecap:round; stroke-linejoin:round; stroke-width:4; stroke-opacity:1; fill:none" points="909.985,1006.54 897.573,936.678 884.52,866.818 870.948,796.957 856.98,727.097 842.74,657.236 828.348,587.376 813.925,517.515 799.585,447.654 785.442,377.794 771.604,307.933 "/>
<path clip-path="url(#clip472)" d="M658.487 304.314 L771.604 304.314 L771.604 1013.78 L658.487 1013.78  Z" fill="#4062d7" fill-rule="evenodd" fill-opacity="0.333333"/>
<polyline clip-path="url(#clip472)" style="stroke:#69ae5f; stroke-linecap:round; stroke-linejoin:round; stroke-width:0; stroke-opacity:1; fill:none" points="658.487,304.314 771.604,304.314 "/>
<path clip-path="url(#clip472)" d="M180.006 289.835 L180.281 293.481 L181.373 296.8 L183.28 299.805 L186.002 302.507 L189.54 304.918 L193.893 307.051 L199.059 308.917 L205.039 310.528 L211.833 311.897 L219.439 313.034 L227.859 313.953 L237.09 314.666 L247.133 315.183 L257.987 315.517 L269.652 315.681 L282.127 315.685 L295.412 315.543 L309.507 315.266 L324.411 314.865 L340.124 314.354 L356.645 313.744 L373.974 313.046 L392.111 312.274 L411.055 311.438 L430.805 310.552 L451.362 309.626 L472.724 308.673 L494.892 307.704 L517.865 306.733 L541.642 305.77 L566.223 304.828 L591.609 303.919 L617.797 303.054 L644.789 302.247 L672.582 301.507 L701.178 300.849 L730.576 300.283 L760.775 299.821 L791.774 299.476 L823.574 299.26 L856.174 299.184 L889.574 299.26 L923.772 299.501 L958.77 299.919 L994.565 300.525 L1031.16 301.331 L1068.55 302.35 L1106.74 303.592 L1145.72 305.072 L1185.5 306.799 L1226.08 308.787 L1267.45 311.047 L1309.62 313.591 L1352.58 316.432 L1396.34 319.58 L1440.89 323.049 L1486.23 326.85 L1532.36 330.995 L1579.29 335.496 L1627.01 340.365 L1627.01 340.365 L1579.29 327.004 L1532.36 314.332 L1486.23 302.335 L1440.89 291 L1396.34 280.312 L1352.58 270.259 L1309.62 260.827 L1267.45 252.001 L1226.08 243.769 L1185.5 236.116 L1145.72 229.029 L1106.74 222.494 L1068.55 216.497 L1031.16 211.025 L994.565 206.065 L958.77 201.601 L923.772 197.622 L889.574 194.112 L856.174 191.059 L823.574 188.448 L791.774 186.266 L760.775 184.5 L730.576 183.135 L701.178 182.157 L672.582 181.555 L644.789 181.312 L617.797 181.417 L591.609 181.854 L566.223 182.611 L541.642 183.674 L517.865 185.029 L494.892 186.662 L472.724 188.559 L451.362 190.708 L430.805 193.094 L411.055 195.704 L392.111 198.524 L373.974 201.54 L356.645 204.738 L340.124 208.106 L324.411 211.628 L309.507 215.292 L295.412 219.084 L282.127 222.99 L269.652 226.996 L257.987 231.089 L247.133 235.255 L237.09 239.481 L227.859 243.752 L219.439 248.055 L211.833 252.377 L205.039 256.703 L199.059 261.02 L193.893 265.314 L189.54 269.572 L186.002 273.779 L183.28 277.923 L181.373 281.989 L180.281 285.965 L180.006 289.835  Z" fill="#389725" fill-rule="evenodd" fill-opacity="0.333333"/>
<polyline clip-path="url(#clip472)" style="stroke:#389725; stroke-linecap:round; stroke-linejoin:round; stroke-width:20; stroke-opacity:1; fill:none" points="180.006,289.835 180.281,293.481 181.373,296.8 183.28,299.805 186.002,302.507 189.54,304.918 193.893,307.051 199.059,308.917 205.039,310.528 211.833,311.897 219.439,313.034 227.859,313.953 237.09,314.666 247.133,315.183 257.987,315.517 269.652,315.681 282.127,315.685 295.412,315.543 309.507,315.266 324.411,314.865 340.124,314.354 356.645,313.744 373.974,313.046 392.111,312.274 411.055,311.438 430.805,310.552 451.362,309.626 472.724,308.673 494.892,307.704 517.865,306.733 541.642,305.77 566.223,304.828 591.609,303.919 617.797,303.054 644.789,302.247 672.582,301.507 701.178,300.849 730.576,300.283 760.775,299.821 791.774,299.476 823.574,299.26 856.174,299.184 889.574,299.26 923.772,299.501 958.77,299.919 994.565,300.525 1031.16,301.331 1068.55,302.35 1106.74,303.592 1145.72,305.072 1185.5,306.799 1226.08,308.787 1267.45,311.047 1309.62,313.591 1352.58,316.432 1396.34,319.58 1440.89,323.049 1486.23,326.85 1532.36,330.995 1579.29,335.496 1627.01,340.365 "/>
<polyline clip-path="url(#clip472)" style="stroke:#389725; stroke-linecap:round; stroke-linejoin:round; stroke-width:20; stroke-opacity:1; fill:none" points="180.006,289.835 180.544,285.965 181.89,281.989 184.044,277.923 187.006,273.779 190.775,269.572 195.35,265.314 200.732,261.02 206.919,256.703 213.911,252.377 221.709,248.055 230.31,243.752 239.715,239.481 249.924,235.255 260.935,231.089 272.748,226.996 285.364,222.99 298.781,219.084 312.998,215.292 328.016,211.628 343.834,208.106 360.452,204.738 377.868,201.54 396.083,198.524 415.096,195.704 434.907,193.094 455.514,190.708 476.918,188.559 499.119,186.662 522.115,185.029 545.906,183.674 570.491,182.611 595.871,181.854 622.045,181.417 649.012,181.312 676.771,181.555 705.323,182.157 734.667,183.135 764.802,184.5 795.728,186.266 827.444,188.448 859.95,191.059 893.246,194.112 927.33,197.622 962.203,201.601 997.864,206.065 1034.31,211.025 1071.55,216.497 1109.57,222.494 1148.38,229.029 1187.97,236.116 1228.35,243.769 1269.51,252.001 1311.46,260.827 1354.19,270.259 1397.71,280.312 1442,291 1487.08,302.335 1532.95,314.332 1579.59,327.004 1627.01,340.365 "/>
<path clip-path="url(#clip472)" d="M361.787 1191.35 L364.17 1182.22 L368.135 1169.61 L373.67 1155.34 L380.759 1140.57 L389.383 1125.94 L399.516 1111.82 L411.131 1098.45 L424.194 1085.94 L438.668 1074.39 L454.512 1063.84 L471.682 1054.31 L490.128 1045.83 L509.798 1038.38 L530.638 1031.95 L552.586 1026.54 L575.582 1022.13 L599.56 1018.68 L624.452 1016.17 L650.188 1014.57 L676.694 1013.83 L703.896 1013.78 L731.716 1013.78 L760.076 1013.78 L788.894 1013.78 L818.091 1013.78 L847.582 1013.78 L877.284 1013.78 L907.112 1013.78 L936.984 1014.37 L966.812 1015.91 L996.514 1018.4 L1026.01 1021.82 L1055.2 1026.12 L1084.02 1031.27 L1112.38 1037.22 L1140.2 1043.89 L1167.4 1051.23 L1193.91 1059.14 L1219.64 1067.55 L1244.54 1076.37 L1268.51 1085.49 L1291.51 1094.82 L1313.46 1104.26 L1334.3 1113.71 L1353.97 1123.05 L1372.41 1132.19 L1389.58 1141.03 L1405.43 1149.47 L1419.9 1157.42 L1432.97 1164.78 L1444.58 1171.49 L1454.71 1177.45 L1463.34 1182.62 L1470.43 1186.93 L1475.96 1190.33 L1479.93 1192.78 L1479.93 1194.76 L1475.96 1194.76 L1470.43 1194.76 L1463.34 1194.76 L1454.71 1194.76 L1444.58 1194.76 L1432.97 1194.76 L1419.9 1194.76 L1405.43 1194.76 L1389.58 1194.76 L1372.41 1194.76 L1353.97 1194.76 L1334.3 1194.76 L1313.46 1194.76 L1291.51 1194.76 L1268.51 1194.76 L1244.54 1194.76 L1219.64 1194.76 L1193.91 1194.76 L1167.4 1194.76 L1140.2 1194.76 L1112.38 1194.76 L1084.02 1194.76 L1055.2 1194.76 L1026.01 1194.76 L996.514 1194.76 L966.812 1194.76 L936.984 1194.76 L907.112 1194.76 L877.284 1194.76 L847.582 1194.76 L818.091 1194.76 L788.894 1194.76 L760.076 1194.76 L731.716 1194.76 L703.896 1194.76 L676.694 1194.76 L650.188 1194.76 L624.452 1194.76 L599.56 1194.76 L575.582 1194.76 L552.586 1194.76 L530.638 1194.76 L509.798 1194.76 L490.128 1194.76 L471.682 1194.76 L454.512 1194.76 L438.668 1194.76 L424.194 1194.76 L411.131 1194.76 L399.516 1194.76 L389.383 1194.76 L380.759 1194.76 L373.67 1194.76 L368.135 1194.76 L364.17 1194.76 L361.787 1194.76  Z" fill="#ca3b33" fill-rule="evenodd" fill-opacity="0.333333"/>
<polyline clip-path="url(#clip472)" style="stroke:#ca3b33; stroke-linecap:round; stroke-linejoin:round; stroke-width:20; stroke-opacity:1; fill:none" points="361.787,1191.35 364.17,1182.22 368.135,1169.61 373.67,1155.34 380.759,1140.57 389.383,1125.94 399.516,1111.82 411.131,1098.45 424.194,1085.94 438.668,1074.39 454.512,1063.84 471.682,1054.31 490.128,1045.83 509.798,1038.38 530.638,1031.95 552.586,1026.54 575.582,1022.13 599.56,1018.68 624.452,1016.17 650.188,1014.57 676.694,1013.83 703.896,1013.78 731.716,1013.78 760.076,1013.78 788.894,1013.78 818.091,1013.78 847.582,1013.78 877.284,1013.78 907.112,1013.78 936.984,1014.37 966.812,1015.91 996.514,1018.4 1026.01,1021.82 1055.2,1026.12 1084.02,1031.27 1112.38,1037.22 1140.2,1043.89 1167.4,1051.23 1193.91,1059.14 1219.64,1067.55 1244.54,1076.37 1268.51,1085.49 1291.51,1094.82 1313.46,1104.26 1334.3,1113.71 1353.97,1123.05 1372.41,1132.19 1389.58,1141.03 1405.43,1149.47 1419.9,1157.42 1432.97,1164.78 1444.58,1171.49 1454.71,1177.45 1463.34,1182.62 1470.43,1186.93 1475.96,1190.33 1479.93,1192.78 "/>
<polyline clip-path="url(#clip472)" style="stroke:#9457b1; stroke-linecap:round; stroke-linejoin:round; stroke-width:16; stroke-opacity:1; fill:none" points="686.766,980.19 702.693,980.265 718.62,980.344 734.547,980.426 750.473,980.512 766.4,980.603 782.327,980.701 798.254,980.807 814.18,980.924 830.107,981.056 846.034,981.205 861.961,981.38 877.887,981.59 893.814,981.851 909.741,982.188 925.668,982.646 941.594,983.253 957.521,984.033 973.448,984.995 989.375,986.143 1005.3,987.481 1021.23,989.01 1037.16,990.728 1053.08,992.635 1069.01,994.726 1084.94,996.997 1100.86,999.442 1116.79,1002.05 1132.72,1004.83 1148.64,1007.75 1164.57,1010.81 1180.5,1013.99 1196.42,1017.29 1212.35,1020.68 1228.28,1024.15 1244.2,1027.67 1260.13,1031.23 1276.06,1034.79 1291.98,1038.33 1307.91,1041.83 1323.84,1045.24 1339.76,1048.56 1355.69,1051.73 1371.62,1054.75 1387.54,1057.58 1403.47,1060.2 1419.4,1062.61 1435.32,1064.8 1451.25,1066.77 1467.18,1068.54 1483.1,1070.15 1497.49,1071.44 1511.89,1072.53 1526.28,1073.48 1540.67,1074.29 1555.06,1075 1569.45,1075.61 1583.84,1076.15 1598.23,1076.63 1612.62,1077.05 1627.01,1077.42 1636.66,1077.65 1646.3,1077.85 1655.95,1078.05 1665.6,1078.22 1675.24,1078.39 1684.89,1078.54 1694.54,1078.69 1704.18,1078.82 1713.83,1078.94 1723.48,1079.05 1733.12,1079.16 1742.77,1079.25 1752.42,1079.34 1762.06,1079.43 1771.71,1079.5 1781.36,1079.57 1791,1079.63 1800.65,1079.69 1810.3,1079.74 1819.94,1079.79 1829.59,1079.83 1839.24,1079.87 1848.88,1079.9 1858.53,1079.93 1868.18,1079.96 1877.82,1079.98 1887.47,1079.99 1897.12,1080 1906.77,1080.01 1916.41,1080.01 "/>
<polyline clip-path="url(#clip472)" style="stroke:#9457b1; stroke-linecap:round; stroke-linejoin:round; stroke-width:16; stroke-opacity:1; fill:none" points="686.766,912.965 702.693,913.165 718.62,913.367 734.547,913.573 750.473,913.786 766.4,914.009 782.327,914.244 798.254,914.495 814.18,914.765 830.107,915.059 846.034,915.381 861.961,915.738 877.887,916.137 893.814,916.586 909.741,917.092 925.668,917.665 941.594,918.314 957.521,919.045 973.448,919.865 989.375,920.778 1005.3,921.787 1021.23,922.892 1037.16,924.094 1053.08,925.39 1069.01,926.779 1084.94,928.256 1100.86,929.817 1116.79,931.456 1132.72,933.167 1148.64,934.941 1164.57,936.772 1180.5,938.649 1196.42,940.565 1212.35,942.508 1228.28,944.468 1244.2,946.435 1260.13,948.398 1276.06,950.345 1291.98,952.267 1307.91,954.152 1323.84,955.991 1339.76,957.775 1355.69,959.496 1371.62,961.146 1387.54,962.72 1403.47,964.212 1419.4,965.621 1435.32,966.943 1451.25,968.18 1467.18,969.33 1483.1,970.396 1497.49,971.29 1511.89,972.118 1526.28,972.885 1540.67,973.592 1555.06,974.244 1569.45,974.845 1583.84,975.397 1598.23,975.904 1612.62,976.369 1627.01,976.797 1636.66,977.063 1646.3,977.315 1655.95,977.552 1665.6,977.775 1675.24,977.986 1684.89,978.184 1694.54,978.37 1704.18,978.545 1713.83,978.71 1723.48,978.864 1733.12,979.008 1742.77,979.143 1752.42,979.268 1762.06,979.385 1771.71,979.494 1781.36,979.594 1791,979.686 1800.65,979.771 1810.3,979.848 1819.94,979.918 1829.59,979.98 1839.24,980.036 1848.88,980.085 1858.53,980.127 1868.18,980.162 1877.82,980.191 1887.47,980.214 1897.12,980.23 1906.77,980.239 1916.41,980.243 "/>
<polyline clip-path="url(#clip472)" style="stroke:#9457b1; stroke-linecap:round; stroke-linejoin:round; stroke-width:16; stroke-opacity:1; fill:none" points="686.766,845.739 702.693,846.008 718.62,846.279 734.547,846.554 750.473,846.836 766.4,847.128 782.327,847.432 798.254,847.751 814.18,848.088 830.107,848.446 846.034,848.829 861.961,849.24 877.887,849.682 893.814,850.16 909.741,850.677 925.668,851.236 941.594,851.841 957.521,852.495 973.448,853.199 989.375,853.956 1005.3,854.767 1021.23,855.633 1037.16,856.552 1053.08,857.524 1069.01,858.547 1084.94,859.62 1100.86,860.739 1116.79,861.902 1132.72,863.103 1148.64,864.34 1164.57,865.607 1180.5,866.899 1196.42,868.211 1212.35,869.538 1228.28,870.873 1244.2,872.212 1260.13,873.549 1276.06,874.877 1291.98,876.192 1307.91,877.488 1323.84,878.761 1339.76,880.005 1355.69,881.217 1371.62,882.392 1387.54,883.529 1403.47,884.623 1419.4,885.673 1435.32,886.678 1451.25,887.635 1467.18,888.545 1483.1,889.408 1497.49,890.146 1511.89,890.846 1526.28,891.509 1540.67,892.135 1555.06,892.725 1569.45,893.28 1583.84,893.801 1598.23,894.29 1612.62,894.748 1627.01,895.176 1636.66,895.447 1646.3,895.705 1655.95,895.951 1665.6,896.186 1675.24,896.408 1684.89,896.62 1694.54,896.82 1704.18,897.01 1713.83,897.19 1723.48,897.359 1733.12,897.519 1742.77,897.669 1752.42,897.81 1762.06,897.942 1771.71,898.065 1781.36,898.179 1791,898.284 1800.65,898.381 1810.3,898.47 1819.94,898.551 1829.59,898.623 1839.24,898.688 1848.88,898.745 1858.53,898.794 1868.18,898.835 1877.82,898.869 1887.47,898.895 1897.12,898.914 1906.77,898.925 1916.41,898.929 "/>
<polyline clip-path="url(#clip472)" style="stroke:#9457b1; stroke-linecap:round; stroke-linejoin:round; stroke-width:16; stroke-opacity:1; fill:none" points="686.766,778.513 702.693,778.808 718.62,779.104 734.547,779.404 750.473,779.711 766.4,780.025 782.327,780.351 798.254,780.688 814.18,781.041 830.107,781.411 846.034,781.799 861.961,782.21 877.887,782.643 893.814,783.102 909.741,783.589 925.668,784.105 941.594,784.651 957.521,785.23 973.448,785.841 989.375,786.487 1005.3,787.167 1021.23,787.882 1037.16,788.63 1053.08,789.412 1069.01,790.227 1084.94,791.073 1100.86,791.948 1116.79,792.851 1132.72,793.78 1148.64,794.731 1164.57,795.702 1180.5,796.691 1196.42,797.693 1212.35,798.707 1228.28,799.728 1244.2,800.753 1260.13,801.78 1276.06,802.803 1291.98,803.821 1307.91,804.831 1323.84,805.828 1339.76,806.81 1355.69,807.775 1371.62,808.72 1387.54,809.642 1403.47,810.54 1419.4,811.412 1435.32,812.257 1451.25,813.072 1467.18,813.857 1483.1,814.611 1497.49,815.266 1511.89,815.895 1526.28,816.497 1540.67,817.073 1555.06,817.623 1569.45,818.147 1583.84,818.645 1598.23,819.118 1612.62,819.565 1627.01,819.988 1636.66,820.258 1646.3,820.516 1655.95,820.764 1665.6,821.002 1675.24,821.229 1684.89,821.446 1694.54,821.652 1704.18,821.849 1713.83,822.036 1723.48,822.213 1733.12,822.38 1742.77,822.538 1752.42,822.687 1762.06,822.827 1771.71,822.957 1781.36,823.079 1791,823.191 1800.65,823.295 1810.3,823.39 1819.94,823.477 1829.59,823.555 1839.24,823.625 1848.88,823.686 1858.53,823.739 1868.18,823.784 1877.82,823.82 1887.47,823.849 1897.12,823.869 1906.77,823.881 1916.41,823.886 "/>
<polyline clip-path="url(#clip472)" style="stroke:#9457b1; stroke-linecap:round; stroke-linejoin:round; stroke-width:16; stroke-opacity:1; fill:none" points="686.766,711.287 702.693,711.576 718.62,711.865 734.547,712.159 750.473,712.458 766.4,712.764 782.327,713.079 798.254,713.405 814.18,713.743 830.107,714.095 846.034,714.462 861.961,714.847 877.887,715.251 893.814,715.674 909.741,716.118 925.668,716.585 941.594,717.074 957.521,717.588 973.448,718.126 989.375,718.69 1005.3,719.278 1021.23,719.892 1037.16,720.53 1053.08,721.194 1069.01,721.881 1084.94,722.591 1100.86,723.324 1116.79,724.077 1132.72,724.85 1148.64,725.641 1164.57,726.449 1180.5,727.271 1196.42,728.105 1212.35,728.949 1228.28,729.802 1244.2,730.661 1260.13,731.524 1276.06,732.389 1291.98,733.252 1307.91,734.113 1323.84,734.97 1339.76,735.818 1355.69,736.658 1371.62,737.487 1387.54,738.302 1403.47,739.102 1419.4,739.886 1435.32,740.652 1451.25,741.398 1467.18,742.123 1483.1,742.826 1497.49,743.441 1511.89,744.037 1526.28,744.612 1540.67,745.167 1555.06,745.7 1569.45,746.212 1583.84,746.702 1598.23,747.17 1612.62,747.615 1627.01,748.039 1636.66,748.31 1646.3,748.571 1655.95,748.822 1665.6,749.064 1675.24,749.295 1684.89,749.516 1694.54,749.728 1704.18,749.93 1713.83,750.122 1723.48,750.305 1733.12,750.478 1742.77,750.641 1752.42,750.795 1762.06,750.94 1771.71,751.075 1781.36,751.202 1791,751.319 1800.65,751.427 1810.3,751.527 1819.94,751.617 1829.59,751.699 1839.24,751.771 1848.88,751.836 1858.53,751.891 1868.18,751.938 1877.82,751.976 1887.47,752.006 1897.12,752.027 1906.77,752.04 1916.41,752.044 "/>
<polyline clip-path="url(#clip472)" style="stroke:#9457b1; stroke-linecap:round; stroke-linejoin:round; stroke-width:16; stroke-opacity:1; fill:none" points="686.766,644.062 702.693,644.319 718.62,644.579 734.547,644.841 750.473,645.109 766.4,645.384 782.327,645.667 798.254,645.959 814.18,646.263 830.107,646.58 846.034,646.91 861.961,647.256 877.887,647.618 893.814,647.997 909.741,648.395 925.668,648.812 941.594,649.248 957.521,649.706 973.448,650.184 989.375,650.684 1005.3,651.205 1021.23,651.748 1037.16,652.312 1053.08,652.897 1069.01,653.504 1084.94,654.13 1100.86,654.777 1116.79,655.442 1132.72,656.125 1148.64,656.825 1164.57,657.541 1180.5,658.271 1196.42,659.014 1212.35,659.77 1228.28,660.535 1244.2,661.309 1260.13,662.09 1276.06,662.877 1291.98,663.667 1307.91,664.458 1323.84,665.25 1339.76,666.04 1355.69,666.827 1371.62,667.608 1387.54,668.382 1403.47,669.147 1419.4,669.901 1435.32,670.643 1451.25,671.371 1467.18,672.082 1483.1,672.777 1497.49,673.388 1511.89,673.983 1526.28,674.561 1540.67,675.12 1555.06,675.66 1569.45,676.18 1583.84,676.679 1598.23,677.158 1612.62,677.614 1627.01,678.049 1636.66,678.328 1646.3,678.597 1655.95,678.855 1665.6,679.104 1675.24,679.342 1684.89,679.571 1694.54,679.789 1704.18,679.997 1713.83,680.195 1723.48,680.383 1733.12,680.561 1742.77,680.729 1752.42,680.888 1762.06,681.037 1771.71,681.176 1781.36,681.306 1791,681.426 1800.65,681.537 1810.3,681.639 1819.94,681.731 1829.59,681.815 1839.24,681.89 1848.88,681.955 1858.53,682.012 1868.18,682.06 1877.82,682.099 1887.47,682.129 1897.12,682.151 1906.77,682.164 1916.41,682.169 "/>
<polyline clip-path="url(#clip472)" style="stroke:#9457b1; stroke-linecap:round; stroke-linejoin:round; stroke-width:16; stroke-opacity:1; fill:none" points="686.766,576.836 702.693,577.042 718.62,577.25 734.547,577.462 750.473,577.679 766.4,577.903 782.327,578.136 798.254,578.378 814.18,578.632 830.107,578.899 846.034,579.18 861.961,579.476 877.887,579.789 893.814,580.118 909.741,580.466 925.668,580.833 941.594,581.219 957.521,581.625 973.448,582.052 989.375,582.5 1005.3,582.968 1021.23,583.458 1037.16,583.97 1053.08,584.502 1069.01,585.055 1084.94,585.629 1100.86,586.223 1116.79,586.836 1132.72,587.468 1148.64,588.119 1164.57,588.787 1180.5,589.471 1196.42,590.171 1212.35,590.886 1228.28,591.614 1244.2,592.353 1260.13,593.104 1276.06,593.864 1291.98,594.632 1307.91,595.406 1323.84,596.185 1339.76,596.967 1355.69,597.751 1371.62,598.534 1387.54,599.315 1403.47,600.092 1419.4,600.862 1435.32,601.625 1451.25,602.377 1467.18,603.116 1483.1,603.842 1497.49,604.483 1511.89,605.109 1526.28,605.718 1540.67,606.31 1555.06,606.882 1569.45,607.434 1583.84,607.963 1598.23,608.47 1612.62,608.953 1627.01,609.412 1636.66,609.706 1646.3,609.989 1655.95,610.26 1665.6,610.52 1675.24,610.769 1684.89,611.006 1694.54,611.232 1704.18,611.447 1713.83,611.651 1723.48,611.844 1733.12,612.026 1742.77,612.198 1752.42,612.359 1762.06,612.51 1771.71,612.651 1781.36,612.782 1791,612.903 1800.65,613.014 1810.3,613.116 1819.94,613.208 1829.59,613.291 1839.24,613.365 1848.88,613.43 1858.53,613.487 1868.18,613.534 1877.82,613.573 1887.47,613.603 1897.12,613.624 1906.77,613.637 1916.41,613.641 "/>
<polyline clip-path="url(#clip472)" style="stroke:#9457b1; stroke-linecap:round; stroke-linejoin:round; stroke-width:16; stroke-opacity:1; fill:none" points="686.766,509.61 702.693,509.744 718.62,509.88 734.547,510.02 750.473,510.166 766.4,510.32 782.327,510.484 798.254,510.66 814.18,510.849 830.107,511.052 846.034,511.272 861.961,511.508 877.887,511.762 893.814,512.036 909.741,512.329 925.668,512.643 941.594,512.979 957.521,513.336 973.448,513.716 989.375,514.118 1005.3,514.543 1021.23,514.991 1037.16,515.462 1053.08,515.957 1069.01,516.474 1084.94,517.014 1100.86,517.576 1116.79,518.161 1132.72,518.767 1148.64,519.395 1164.57,520.043 1180.5,520.711 1196.42,521.398 1212.35,522.104 1228.28,522.827 1244.2,523.567 1260.13,524.322 1276.06,525.092 1291.98,525.874 1307.91,526.669 1323.84,527.473 1339.76,528.286 1355.69,529.107 1371.62,529.932 1387.54,530.761 1403.47,531.591 1419.4,532.42 1435.32,533.246 1451.25,534.065 1467.18,534.876 1483.1,535.675 1497.49,536.384 1511.89,537.079 1526.28,537.757 1540.67,538.415 1555.06,539.052 1569.45,539.665 1583.84,540.252 1598.23,540.811 1612.62,541.34 1627.01,541.838 1636.66,542.155 1646.3,542.458 1655.95,542.746 1665.6,543.02 1675.24,543.28 1684.89,543.526 1694.54,543.759 1704.18,543.978 1713.83,544.185 1723.48,544.379 1733.12,544.56 1742.77,544.73 1752.42,544.888 1762.06,545.035 1771.71,545.171 1781.36,545.297 1791,545.413 1800.65,545.519 1810.3,545.615 1819.94,545.702 1829.59,545.78 1839.24,545.849 1848.88,545.91 1858.53,545.962 1868.18,546.006 1877.82,546.042 1887.47,546.069 1897.12,546.089 1906.77,546.101 1916.41,546.105 "/>
<polyline clip-path="url(#clip472)" style="stroke:#9457b1; stroke-linecap:round; stroke-linejoin:round; stroke-width:16; stroke-opacity:1; fill:none" points="686.766,442.385 702.693,442.419 718.62,442.456 734.547,442.498 750.473,442.549 766.4,442.611 782.327,442.686 798.254,442.776 814.18,442.882 830.107,443.007 846.034,443.151 861.961,443.316 877.887,443.503 893.814,443.713 909.741,443.947 925.668,444.205 941.594,444.488 957.521,444.796 973.448,445.129 989.375,445.489 1005.3,445.875 1021.23,446.288 1037.16,446.727 1053.08,447.192 1069.01,447.684 1084.94,448.203 1100.86,448.747 1116.79,449.318 1132.72,449.914 1148.64,450.536 1164.57,451.182 1180.5,451.853 1196.42,452.548 1212.35,453.267 1228.28,454.008 1244.2,454.771 1260.13,455.556 1276.06,456.36 1291.98,457.185 1307.91,458.027 1323.84,458.887 1339.76,459.763 1355.69,460.653 1371.62,461.556 1387.54,462.47 1403.47,463.392 1419.4,464.322 1435.32,465.255 1451.25,466.19 1467.18,467.122 1483.1,468.048 1497.49,468.876 1511.89,469.692 1526.28,470.491 1540.67,471.27 1555.06,472.024 1569.45,472.748 1583.84,473.437 1598.23,474.086 1612.62,474.691 1627.01,475.249 1636.66,475.597 1646.3,475.923 1655.95,476.228 1665.6,476.513 1675.24,476.777 1684.89,477.023 1694.54,477.251 1704.18,477.462 1713.83,477.657 1723.48,477.836 1733.12,478.002 1742.77,478.155 1752.42,478.295 1762.06,478.424 1771.71,478.541 1781.36,478.649 1791,478.747 1800.65,478.835 1810.3,478.915 1819.94,478.987 1829.59,479.051 1839.24,479.107 1848.88,479.156 1858.53,479.199 1868.18,479.234 1877.82,479.262 1887.47,479.285 1897.12,479.3 1906.77,479.31 1916.41,479.313 "/>
<polyline clip-path="url(#clip472)" style="stroke:#9457b1; stroke-linecap:round; stroke-linejoin:round; stroke-width:16; stroke-opacity:1; fill:none" points="686.766,375.159 702.693,375.052 718.62,374.95 734.547,374.858 750.473,374.78 766.4,374.719 782.327,374.678 798.254,374.659 814.18,374.664 830.107,374.694 846.034,374.75 861.961,374.833 877.887,374.944 893.814,375.083 909.741,375.251 925.668,375.449 941.594,375.677 957.521,375.935 973.448,376.224 989.375,376.543 1005.3,376.892 1021.23,377.273 1037.16,377.685 1053.08,378.127 1069.01,378.6 1084.94,379.105 1100.86,379.639 1116.79,380.205 1132.72,380.801 1148.64,381.427 1164.57,382.083 1180.5,382.769 1196.42,383.485 1212.35,384.229 1228.28,385.003 1244.2,385.805 1260.13,386.634 1276.06,387.491 1291.98,388.375 1307.91,389.286 1323.84,390.221 1339.76,391.182 1355.69,392.166 1371.62,393.173 1387.54,394.202 1403.47,395.251 1419.4,396.318 1435.32,397.403 1451.25,398.502 1467.18,399.612 1483.1,400.731 1497.49,401.745 1511.89,402.758 1526.28,403.766 1540.67,404.761 1555.06,405.736 1569.45,406.68 1583.84,407.58 1598.23,408.419 1612.62,409.179 1627.01,409.841 1636.66,410.223 1646.3,410.559 1655.95,410.855 1665.6,411.114 1675.24,411.342 1684.89,411.543 1694.54,411.721 1704.18,411.879 1713.83,412.02 1723.48,412.146 1733.12,412.258 1742.77,412.359 1752.42,412.45 1762.06,412.531 1771.71,412.604 1781.36,412.67 1791,412.729 1800.65,412.782 1810.3,412.829 1819.94,412.871 1829.59,412.908 1839.24,412.941 1848.88,412.969 1858.53,412.993 1868.18,413.013 1877.82,413.029 1887.47,413.041 1897.12,413.05 1906.77,413.056 1916.41,413.057 "/>
<polyline clip-path="url(#clip472)" style="stroke:#9457b1; stroke-linecap:round; stroke-linejoin:round; stroke-width:16; stroke-opacity:1; fill:none" points="686.766,307.933 702.693,307.583 718.62,307.265 734.547,306.981 750.473,306.731 766.4,306.515 782.327,306.333 798.254,306.187 814.18,306.075 830.107,305.998 846.034,305.958 861.961,305.952 877.887,305.982 893.814,306.047 909.741,306.149 925.668,306.285 941.594,306.458 957.521,306.667 973.448,306.911 989.375,307.192 1005.3,307.507 1021.23,307.859 1037.16,308.247 1053.08,308.67 1069.01,309.129 1084.94,309.624 1100.86,310.154 1116.79,310.719 1132.72,311.321 1148.64,311.957 1164.57,312.629 1180.5,313.336 1196.42,314.078 1212.35,314.855 1228.28,315.667 1244.2,316.514 1260.13,317.396 1276.06,318.312 1291.98,319.264 1307.91,320.249 1323.84,321.27 1339.76,322.324 1355.69,323.413 1371.62,324.536 1387.54,325.693 1403.47,326.884 1419.4,328.109 1435.32,329.368 1451.25,330.66 1467.18,331.986 1483.1,333.345 1497.49,334.602 1511.89,335.887 1526.28,337.198 1540.67,338.537 1555.06,339.902 1569.45,341.294 1583.84,342.714 1598.23,344.159 1612.62,345.632 1627.01,347.131 1636.66,347.131 1646.3,347.131 1655.95,347.131 1665.6,347.131 1675.24,347.131 1684.89,347.131 1694.54,347.131 1704.18,347.131 1713.83,347.131 1723.48,347.131 1733.12,347.131 1742.77,347.131 1752.42,347.131 1762.06,347.131 1771.71,347.131 1781.36,347.131 1791,347.131 1800.65,347.131 1810.3,347.131 1819.94,347.131 1829.59,347.131 1839.24,347.131 1848.88,347.131 1858.53,347.131 1868.18,347.131 1877.82,347.131 1887.47,347.131 1897.12,347.131 1906.77,347.131 1916.41,347.131 "/>
<path clip-path="url(#clip472)" d="M670.766 964.19 L670.766 996.19 L702.766 996.19 L702.766 964.19 L670.766 964.19 Z" fill="#4062d7" fill-rule="evenodd" fill-opacity="1" stroke="none"/>
<path clip-path="url(#clip472)" d="M670.766 896.965 L670.766 928.965 L702.766 928.965 L702.766 896.965 L670.766 896.965 Z" fill="#4062d7" fill-rule="evenodd" fill-opacity="1" stroke="none"/>
<path clip-path="url(#clip472)" d="M670.766 829.739 L670.766 861.739 L702.766 861.739 L702.766 829.739 L670.766 829.739 Z" fill="#4062d7" fill-rule="evenodd" fill-opacity="1" stroke="none"/>
<path clip-path="url(#clip472)" d="M670.766 762.513 L670.766 794.513 L702.766 794.513 L702.766 762.513 L670.766 762.513 Z" fill="#4062d7" fill-rule="evenodd" fill-opacity="1" stroke="none"/>
<path clip-path="url(#clip472)" d="M670.766 695.287 L670.766 727.287 L702.766 727.287 L702.766 695.287 L670.766 695.287 Z" fill="#4062d7" fill-rule="evenodd" fill-opacity="1" stroke="none"/>
<path clip-path="url(#clip472)" d="M670.766 628.062 L670.766 660.062 L702.766 660.062 L702.766 628.062 L670.766 628.062 Z" fill="#4062d7" fill-rule="evenodd" fill-opacity="1" stroke="none"/>
<path clip-path="url(#clip472)" d="M670.766 560.836 L670.766 592.836 L702.766 592.836 L702.766 560.836 L670.766 560.836 Z" fill="#4062d7" fill-rule="evenodd" fill-opacity="1" stroke="none"/>
<path clip-path="url(#clip472)" d="M670.766 493.61 L670.766 525.61 L702.766 525.61 L702.766 493.61 L670.766 493.61 Z" fill="#4062d7" fill-rule="evenodd" fill-opacity="1" stroke="none"/>
<path clip-path="url(#clip472)" d="M670.766 426.385 L670.766 458.385 L702.766 458.385 L702.766 426.385 L670.766 426.385 Z" fill="#4062d7" fill-rule="evenodd" fill-opacity="1" stroke="none"/>
<path clip-path="url(#clip472)" d="M670.766 359.159 L670.766 391.159 L702.766 391.159 L702.766 359.159 L670.766 359.159 Z" fill="#4062d7" fill-rule="evenodd" fill-opacity="1" stroke="none"/>
<path clip-path="url(#clip472)" d="M670.766 291.933 L670.766 323.933 L702.766 323.933 L702.766 291.933 L670.766 291.933 Z" fill="#4062d7" fill-rule="evenodd" fill-opacity="1" stroke="none"/>
<polyline clip-path="url(#clip472)" style="stroke:#808080; stroke-linecap:round; stroke-linejoin:round; stroke-width:16; stroke-opacity:1; fill:none" points="180.006,1195.49 1916.41,1195.49 "/>
<polyline clip-path="url(#clip472)" style="stroke:#808080; stroke-linecap:round; stroke-linejoin:round; stroke-width:16; stroke-opacity:1; fill:none" points="239.715,1249.06 239.715,1140.47 "/>
<polyline clip-path="url(#clip472)" style="stroke:#808080; stroke-linecap:round; stroke-linejoin:round; stroke-width:16; stroke-opacity:1; fill:none" points="294.011,1249.06 294.011,1140.47 "/>
<polyline clip-path="url(#clip472)" style="stroke:#808080; stroke-linecap:round; stroke-linejoin:round; stroke-width:16; stroke-opacity:1; fill:none" points="1868.18,1249.06 1868.18,1140.47 "/>
<polyline clip-path="url(#clip472)" style="stroke:#808080; stroke-linecap:round; stroke-linejoin:round; stroke-width:16; stroke-opacity:1; fill:none" points="1813.88,1249.06 1813.88,1140.47 "/>
</svg>
