<?xml version="1.0" encoding="utf-8"?>
<svg xmlns="http://www.w3.org/2000/svg" xmlns:xlink="http://www.w3.org/1999/xlink" width="500" height="375" viewBox="0 0 2000 1500">
<defs>
  <clipPath id="clip730">
    <rect x="0" y="0" width="2000" height="1500"/>
  </clipPath>
</defs>
<defs>
  <clipPath id="clip731">
    <rect x="400" y="0" width="1401" height="1401"/>
  </clipPath>
</defs>
<defs>
  <clipPath id="clip732">
    <rect x="127" y="31" width="1842" height="1368"/>
  </clipPath>
</defs>
<path clip-path="url(#clip732)" d="M612.36 1015.59 L616.497 945.728 L620.848 875.867 L625.373 806.006 L630.028 736.146 L634.775 666.285 L639.572 596.425 L644.38 526.564 L649.16 456.704 L653.874 386.843 L658.487 316.983 L658.487 1022.83 L653.874 1022.83 L649.16 1022.83 L644.38 1022.83 L639.572 1022.83 L634.775 1022.83 L630.028 1022.83 L625.373 1022.83 L620.848 1022.83 L616.497 1022.83 L612.36 1022.83  Z" fill="#4062d7" fill-rule="evenodd" fill-opacity="0.333333"/>
<polyline clip-path="url(#clip732)" style="stroke:#4062d7; stroke-linecap:round; stroke-linejoin:round; stroke-width:4; stroke-opacity:1; fill:none" points="612.36,1015.59 616.497,945.728 620.848,875.867 625.373,806.006 630.028,736.146 634.775,666.285 639.572,596.425 644.38,526.564 649.16,456.704 653.874,386.843 658.487,316.983 "/>
<path clip-path="url(#clip732)" d="M909.985 1015.59 L897.573 945.728 L884.52 875.867 L870.948 806.006 L856.98 736.146 L842.74 666.285 L828.348 596.425 L813.925 526.564 L799.585 456.704 L785.442 386.843 L771.604 316.983 L771.604 1022.83 L785.442 1022.83 L799.585 1022.83 L813.925 1022.83 L828.348 1022.83 L842.74 1022.83 L856.98 1022.83 L870.948 1022.83 L884.52 1022.83 L897.573 1022.83 L909.985 1022.83  Z" fill="#4062d7" fill-rule="evenodd" fill-opacity="0.333333"/>
<polyline clip-path="url(#clip732)" style="stroke:#4062d7; stroke-linecap:round; stroke-linejoin:round; stroke-width:4; stroke-opacity:1; fill:none" points="909.985,1015.59 897.573,945.728 884.52,875.867 870.948,806.006 856.98,736.146 842.74,666.285 828.348,596.425 813.925,526.564 799.585,456.704 785.442,386.843 771.604,316.983 "/>
<path clip-path="url(#clip732)" d="M658.487 313.363 L771.604 313.363 L771.604 1022.83 L658.487 1022.83  Z" fill="#4062d7" fill-rule="evenodd" fill-opacity="0.333333"/>
<polyline clip-path="url(#clip732)" style="stroke:#69ae5f; stroke-linecap:round; stroke-linejoin:round; stroke-width:0; stroke-opacity:1; fill:none" points="658.487,313.363 771.604,313.363 "/>
<path clip-path="url(#clip732)" d="M180.006 298.884 L180.281 302.53 L181.373 305.849 L183.28 308.854 L186.002 311.556 L189.54 313.967 L193.893 316.1 L199.059 317.966 L205.039 319.577 L211.833 320.946 L219.439 322.084 L227.859 323.003 L237.09 323.715 L247.133 324.232 L257.987 324.566 L269.652 324.73 L282.127 324.735 L295.412 324.592 L309.507 324.315 L324.411 323.915 L340.124 323.403 L356.645 322.793 L373.974 322.096 L392.111 321.323 L411.055 320.488 L430.805 319.601 L451.362 318.675 L472.724 317.722 L494.892 316.754 L517.865 315.782 L541.642 314.82 L566.223 313.878 L591.609 312.968 L617.797 312.104 L644.789 311.296 L672.582 310.557 L701.178 309.898 L730.576 309.332 L760.775 308.87 L791.774 308.525 L823.574 308.309 L856.174 308.233 L889.574 308.31 L923.772 308.551 L958.77 308.968 L994.565 309.574 L1031.16 310.38 L1068.55 311.399 L1106.74 312.642 L1145.72 314.121 L1185.5 315.848 L1226.08 317.836 L1267.45 320.096 L1309.62 322.641 L1352.58 325.481 L1396.34 328.63 L1440.89 332.098 L1486.23 335.899 L1532.36 340.044 L1579.29 344.545 L1627.01 349.415 L1627.01 349.415 L1579.29 336.053 L1532.36 323.381 L1486.23 311.384 L1440.89 300.049 L1396.34 289.362 L1352.58 279.309 L1309.62 269.876 L1267.45 261.05 L1226.08 252.818 L1185.5 245.165 L1145.72 238.078 L1106.74 231.543 L1068.55 225.546 L1031.16 220.075 L994.565 215.114 L958.77 210.651 L923.772 206.671 L889.574 203.161 L856.174 200.108 L823.574 197.497 L791.774 195.315 L760.775 193.549 L730.576 192.184 L701.178 191.207 L672.582 190.604 L644.789 190.361 L617.797 190.466 L591.609 190.903 L566.223 191.66 L541.642 192.723 L517.865 194.078 L494.892 195.711 L472.724 197.609 L451.362 199.758 L430.805 202.144 L411.055 204.753 L392.111 207.573 L373.974 210.589 L356.645 213.787 L340.124 217.155 L324.411 220.677 L309.507 224.341 L295.412 228.133 L282.127 232.039 L269.652 236.045 L257.987 240.138 L247.133 244.305 L237.09 248.53 L227.859 252.801 L219.439 257.104 L211.833 261.426 L205.039 265.752 L199.059 270.069 L193.893 274.363 L189.54 278.621 L186.002 282.829 L183.28 286.972 L181.373 291.039 L180.281 295.014 L180.006 298.884  Z" fill="#389725" fill-rule="evenodd" fill-opacity="0.333333"/>
<polyline clip-path="url(#clip732)" style="stroke:#389725; stroke-linecap:round; stroke-linejoin:round; stroke-width:20; stroke-opacity:1; fill:none" points="180.006,298.884 180.281,302.53 181.373,305.849 183.28,308.854 186.002,311.556 189.54,313.967 193.893,316.1 199.059,317.966 205.039,319.577 211.833,320.946 219.439,322.084 227.859,323.003 237.09,323.715 247.133,324.232 257.987,324.566 269.652,324.73 282.127,324.735 295.412,324.592 309.507,324.315 324.411,323.915 340.124,323.403 356.645,322.793 373.974,322.096 392.111,321.323 411.055,320.488 430.805,319.601 451.362,318.675 472.724,317.722 494.892,316.754 517.865,315.782 541.642,314.82 566.223,313.878 591.609,312.968 617.797,312.104 644.789,311.296 672.582,310.557 701.178,309.898 730.576,309.332 760.775,308.87 791.774,308.525 823.574,308.309 856.174,308.233 889.574,308.31 923.772,308.551 958.77,308.968 994.565,309.574 1031.16,310.38 1068.55,311.399 1106.74,312.642 1145.72,314.121 1185.5,315.848 1226.08,317.836 1267.45,320.096 1309.62,322.641 1352.58,325.481 1396.34,328.63 1440.89,332.098 1486.23,335.899 1532.36,340.044 1579.29,344.545 1627.01,349.415 "/>
<polyline clip-path="url(#clip732)" style="stroke:#389725; stroke-linecap:round; stroke-linejoin:round; stroke-width:20; stroke-opacity:1; fill:none" points="180.006,298.884 180.544,295.014 181.89,291.039 184.044,286.972 187.006,282.829 190.775,278.621 195.35,274.363 200.732,270.069 206.919,265.752 213.911,261.426 221.709,257.104 230.31,252.801 239.715,248.53 249.924,244.305 260.935,240.138 272.748,236.045 285.364,232.039 298.781,228.133 312.998,224.341 328.016,220.677 343.834,217.155 360.452,213.787 377.868,210.589 396.083,207.573 415.096,204.753 434.907,202.144 455.514,199.758 476.918,197.609 499.119,195.711 522.115,194.078 545.906,192.723 570.491,191.66 595.871,190.903 622.045,190.466 649.012,190.361 676.771,190.604 705.323,191.207 734.667,192.184 764.802,193.549 795.728,195.315 827.444,197.497 859.95,200.108 893.246,203.161 927.33,206.671 962.203,210.651 997.864,215.114 1034.31,220.075 1071.55,225.546 1109.57,231.543 1148.38,238.078 1187.97,245.165 1228.35,252.818 1269.51,261.05 1311.46,269.876 1354.19,279.309 1397.71,289.362 1442,300.049 1487.08,311.384 1532.95,323.381 1579.59,336.053 1627.01,349.415 "/>
<path clip-path="url(#clip732)" d="M361.787 1200.4 L364.17 1191.27 L368.135 1178.66 L373.67 1164.39 L380.759 1149.62 L389.383 1134.99 L399.516 1120.87 L411.131 1107.5 L424.194 1094.99 L438.668 1083.44 L454.512 1072.89 L471.682 1063.36 L490.128 1054.88 L509.798 1047.43 L530.638 1041 L552.586 1035.59 L575.582 1031.18 L599.56 1027.73 L624.452 1025.22 L650.188 1023.62 L676.694 1022.88 L703.896 1022.83 L731.716 1022.83 L760.076 1022.83 L788.894 1022.83 L818.091 1022.83 L847.582 1022.83 L877.284 1022.83 L907.112 1022.83 L936.984 1023.42 L966.812 1024.96 L996.514 1027.45 L1026.01 1030.87 L1055.2 1035.17 L1084.02 1040.32 L1112.38 1046.27 L1140.2 1052.94 L1167.4 1060.28 L1193.91 1068.19 L1219.64 1076.6 L1244.54 1085.42 L1268.51 1094.54 L1291.51 1103.87 L1313.46 1113.31 L1334.3 1122.76 L1353.97 1132.1 L1372.41 1141.24 L1389.58 1150.08 L1405.43 1158.52 L1419.9 1166.47 L1432.97 1173.83 L1444.58 1180.54 L1454.71 1186.5 L1463.34 1191.67 L1470.43 1195.98 L1475.96 1199.38 L1479.93 1201.83 L1479.93 1203.81 L1475.96 1203.81 L1470.43 1203.81 L1463.34 1203.81 L1454.71 1203.81 L1444.58 1203.81 L1432.97 1203.81 L1419.9 1203.81 L1405.43 1203.81 L1389.58 1203.81 L1372.41 1203.81 L1353.97 1203.81 L1334.3 1203.81 L1313.46 1203.81 L1291.51 1203.81 L1268.51 1203.81 L1244.54 1203.81 L1219.64 1203.81 L1193.91 1203.81 L1167.4 1203.81 L1140.2 1203.81 L1112.38 1203.81 L1084.02 1203.81 L1055.2 1203.81 L1026.01 1203.81 L996.514 1203.81 L966.812 1203.81 L936.984 1203.81 L907.112 1203.81 L877.284 1203.81 L847.582 1203.81 L818.091 1203.81 L788.894 1203.81 L760.076 1203.81 L731.716 1203.81 L703.896 1203.81 L676.694 1203.81 L650.188 1203.81 L624.452 1203.81 L599.56 1203.81 L575.582 1203.81 L552.586 1203.81 L530.638 1203.81 L509.798 1203.81 L490.128 1203.81 L471.682 1203.81 L454.512 1203.81 L438.668 1203.81 L424.194 1203.81 L411.131 1203.81 L399.516 1203.81 L389.383 1203.81 L380.759 1203.81 L373.67 1203.81 L368.135 1203.81 L364.17 1203.81 L361.787 1203.81  Z" fill="#ca3b33" fill-rule="evenodd" fill-opacity="0.333333"/>
<polyline clip-path="url(#clip732)" style="stroke:#ca3b33; stroke-linecap:round; stroke-linejoin:round; stroke-width:20; stroke-opacity:1; fill:none" points="361.787,1200.4 364.17,1191.27 368.135,1178.66 373.67,1164.39 380.759,1149.62 389.383,1134.99 399.516,1120.87 411.131,1107.5 424.194,1094.99 438.668,1083.44 454.512,1072.89 471.682,1063.36 490.128,1054.88 509.798,1047.43 530.638,1041 552.586,1035.59 575.582,1031.18 599.56,1027.73 624.452,1025.22 650.188,1023.62 676.694,1022.88 703.896,1022.83 731.716,1022.83 760.076,1022.83 788.894,1022.83 818.091,1022.83 847.582,1022.83 877.284,1022.83 907.112,1022.83 936.984,1023.42 966.812,1024.96 996.514,1027.45 1026.01,1030.87 1055.2,1035.17 1084.02,1040.32 1112.38,1046.27 1140.2,1052.94 1167.4,1060.28 1193.91,1068.19 1219.64,1076.6 1244.54,1085.42 1268.51,1094.54 1291.51,1103.87 1313.46,1113.31 1334.3,1122.76 1353.97,1132.1 1372.41,1141.24 1389.58,1150.08 1405.43,1158.52 1419.9,1166.47 1432.97,1173.83 1444.58,1180.54 1454.71,1186.5 1463.34,1191.67 1470.43,1195.98 1475.96,1199.38 1479.93,1201.83 "/>
<polyline clip-path="url(#clip732)" style="stroke:#9457b1; stroke-linecap:round; stroke-linejoin:round; stroke-width:16; stroke-opacity:1; fill:none" points="686.766,989.239 702.693,989.315 718.62,989.393 734.547,989.475 750.473,989.561 766.4,989.653 782.327,989.75 798.254,989.857 814.18,989.974 830.107,990.105 846.034,990.255 861.961,990.43 877.887,990.64 893.814,990.9 909.741,991.237 925.668,991.695 941.594,992.303 957.521,993.082 973.448,994.044 989.375,995.192 1005.3,996.53 1021.23,998.059 1037.16,999.778 1053.08,1001.68 1069.01,1003.78 1084.94,1006.05 1100.86,1008.49 1116.79,1011.1 1132.72,1013.88 1148.64,1016.8 1164.57,1019.86 1180.5,1023.04 1196.42,1026.34 1212.35,1029.73 1228.28,1033.2 1244.2,1036.72 1260.13,1040.28 1276.06,1043.84 1291.98,1047.38 1307.91,1050.88 1323.84,1054.29 1339.76,1057.61 1355.69,1060.78 1371.62,1063.8 1387.54,1066.63 1403.47,1069.25 1419.4,1071.66 1435.32,1073.85 1451.25,1075.82 1467.18,1077.59 1483.1,1079.2 1497.49,1080.49 1511.89,1081.58 1526.28,1082.53 1540.67,1083.34 1555.06,1084.05 1569.45,1084.66 1583.84,1085.2 1598.23,1085.68 1612.62,1086.1 1627.01,1086.47 1636.66,1086.69 1646.3,1086.9 1655.95,1087.1 1665.6,1087.27 1675.24,1087.44 1684.89,1087.59 1694.54,1087.73 1704.18,1087.87 1713.83,1087.99 1723.48,1088.1 1733.12,1088.21 1742.77,1088.3 1752.42,1088.39 1762.06,1088.47 1771.71,1088.55 1781.36,1088.62 1791,1088.68 1800.65,1088.74 1810.3,1088.79 1819.94,1088.84 1829.59,1088.88 1839.24,1088.92 1848.88,1088.95 1858.53,1088.98 1868.18,1089.01 1877.82,1089.02 1887.47,1089.04 1897.12,1089.05 1906.77,1089.06 1916.41,1089.06 "/>
<polyline clip-path="url(#clip732)" style="stroke:#9457b1; stroke-linecap:round; stroke-linejoin:round; stroke-width:16; stroke-opacity:1; fill:none" points="686.766,922.014 702.693,922.214 718.62,922.416 734.547,922.623 750.473,922.836 766.4,923.058 782.327,923.293 798.254,923.544 814.18,923.814 830.107,924.108 846.034,924.43 861.961,924.788 877.887,925.187 893.814,925.635 909.741,926.141 925.668,926.714 941.594,927.363 957.521,928.094 973.448,928.915 989.375,929.828 1005.3,930.836 1021.23,931.942 1037.16,933.143 1053.08,934.44 1069.01,935.829 1084.94,937.306 1100.86,938.867 1116.79,940.506 1132.72,942.216 1148.64,943.991 1164.57,945.821 1180.5,947.699 1196.42,949.614 1212.35,951.557 1228.28,953.517 1244.2,955.484 1260.13,957.447 1276.06,959.394 1291.98,961.316 1307.91,963.201 1323.84,965.04 1339.76,966.824 1355.69,968.545 1371.62,970.195 1387.54,971.769 1403.47,973.262 1419.4,974.67 1435.32,975.993 1451.25,977.229 1467.18,978.379 1483.1,979.446 1497.49,980.339 1511.89,981.167 1526.28,981.934 1540.67,982.641 1555.06,983.294 1569.45,983.894 1583.84,984.446 1598.23,984.953 1612.62,985.419 1627.01,985.846 1636.66,986.113 1646.3,986.364 1655.95,986.601 1665.6,986.825 1675.24,987.035 1684.89,987.233 1694.54,987.42 1704.18,987.595 1713.83,987.759 1723.48,987.913 1733.12,988.057 1742.77,988.192 1752.42,988.318 1762.06,988.435 1771.71,988.543 1781.36,988.643 1791,988.735 1800.65,988.82 1810.3,988.897 1819.94,988.967 1829.59,989.03 1839.24,989.085 1848.88,989.134 1858.53,989.176 1868.18,989.212 1877.82,989.241 1887.47,989.263 1897.12,989.279 1906.77,989.289 1916.41,989.292 "/>
<polyline clip-path="url(#clip732)" style="stroke:#9457b1; stroke-linecap:round; stroke-linejoin:round; stroke-width:16; stroke-opacity:1; fill:none" points="686.766,854.788 702.693,855.057 718.62,855.328 734.547,855.603 750.473,855.885 766.4,856.177 782.327,856.481 798.254,856.8 814.18,857.137 830.107,857.495 846.034,857.878 861.961,858.289 877.887,858.731 893.814,859.209 909.741,859.726 925.668,860.285 941.594,860.89 957.521,861.544 973.448,862.248 989.375,863.006 1005.3,863.817 1021.23,864.682 1037.16,865.601 1053.08,866.573 1069.01,867.597 1084.94,868.67 1100.86,869.789 1116.79,870.951 1132.72,872.153 1148.64,873.389 1164.57,874.656 1180.5,875.948 1196.42,877.26 1212.35,878.587 1228.28,879.923 1244.2,881.261 1260.13,882.598 1276.06,883.926 1291.98,885.241 1307.91,886.537 1323.84,887.81 1339.76,889.054 1355.69,890.266 1371.62,891.442 1387.54,892.578 1403.47,893.672 1419.4,894.722 1435.32,895.727 1451.25,896.684 1467.18,897.595 1483.1,898.457 1497.49,899.196 1511.89,899.896 1526.28,900.558 1540.67,901.184 1555.06,901.774 1569.45,902.329 1583.84,902.851 1598.23,903.34 1612.62,903.798 1627.01,904.226 1636.66,904.496 1646.3,904.755 1655.95,905.001 1665.6,905.235 1675.24,905.458 1684.89,905.669 1694.54,905.87 1704.18,906.06 1713.83,906.239 1723.48,906.409 1733.12,906.569 1742.77,906.719 1752.42,906.86 1762.06,906.991 1771.71,907.114 1781.36,907.228 1791,907.334 1800.65,907.431 1810.3,907.519 1819.94,907.6 1829.59,907.672 1839.24,907.737 1848.88,907.794 1858.53,907.843 1868.18,907.884 1877.82,907.918 1887.47,907.944 1897.12,907.963 1906.77,907.974 1916.41,907.978 "/>
<polyline clip-path="url(#clip732)" style="stroke:#9457b1; stroke-linecap:round; stroke-linejoin:round; stroke-width:16; stroke-opacity:1; fill:none" points="686.766,787.562 702.693,787.857 718.62,788.153 734.547,788.454 750.473,788.76 766.4,789.075 782.327,789.4 798.254,789.738 814.18,790.09 830.107,790.46 846.034,790.849 861.961,791.259 877.887,791.692 893.814,792.152 909.741,792.638 925.668,793.154 941.594,793.7 957.521,794.279 973.448,794.891 989.375,795.536 1005.3,796.216 1021.23,796.931 1037.16,797.679 1053.08,798.462 1069.01,799.276 1084.94,800.122 1100.86,800.998 1116.79,801.901 1132.72,802.829 1148.64,803.78 1164.57,804.752 1180.5,805.74 1196.42,806.743 1212.35,807.756 1228.28,808.777 1244.2,809.803 1260.13,810.829 1276.06,811.853 1291.98,812.871 1307.91,813.88 1323.84,814.877 1339.76,815.859 1355.69,816.824 1371.62,817.769 1387.54,818.691 1403.47,819.59 1419.4,820.462 1435.32,821.306 1451.25,822.121 1467.18,822.906 1483.1,823.661 1497.49,824.315 1511.89,824.944 1526.28,825.546 1540.67,826.123 1555.06,826.673 1569.45,827.197 1583.84,827.695 1598.23,828.167 1612.62,828.615 1627.01,829.037 1636.66,829.307 1646.3,829.566 1655.95,829.814 1665.6,830.051 1675.24,830.278 1684.89,830.495 1694.54,830.702 1704.18,830.898 1713.83,831.085 1723.48,831.262 1733.12,831.43 1742.77,831.588 1752.42,831.736 1762.06,831.876 1771.71,832.006 1781.36,832.128 1791,832.24 1800.65,832.344 1810.3,832.44 1819.94,832.526 1829.59,832.604 1839.24,832.674 1848.88,832.735 1858.53,832.788 1868.18,832.833 1877.82,832.87 1887.47,832.898 1897.12,832.919 1906.77,832.931 1916.41,832.935 "/>
<polyline clip-path="url(#clip732)" style="stroke:#9457b1; stroke-linecap:round; stroke-linejoin:round; stroke-width:16; stroke-opacity:1; fill:none" points="686.766,720.337 702.693,720.625 718.62,720.915 734.547,721.208 750.473,721.507 766.4,721.813 782.327,722.128 798.254,722.454 814.18,722.792 830.107,723.144 846.034,723.512 861.961,723.897 877.887,724.3 893.814,724.723 909.741,725.167 925.668,725.634 941.594,726.124 957.521,726.637 973.448,727.176 989.375,727.739 1005.3,728.327 1021.23,728.941 1037.16,729.58 1053.08,730.243 1069.01,730.93 1084.94,731.641 1100.86,732.373 1116.79,733.127 1132.72,733.9 1148.64,734.691 1164.57,735.498 1180.5,736.32 1196.42,737.154 1212.35,737.999 1228.28,738.851 1244.2,739.71 1260.13,740.573 1276.06,741.438 1291.98,742.302 1307.91,743.163 1323.84,744.019 1339.76,744.868 1355.69,745.707 1371.62,746.536 1387.54,747.351 1403.47,748.152 1419.4,748.935 1435.32,749.701 1451.25,750.447 1467.18,751.172 1483.1,751.875 1497.49,752.491 1511.89,753.086 1526.28,753.662 1540.67,754.216 1555.06,754.75 1569.45,755.261 1583.84,755.751 1598.23,756.219 1612.62,756.665 1627.01,757.088 1636.66,757.359 1646.3,757.62 1655.95,757.872 1665.6,758.113 1675.24,758.344 1684.89,758.566 1694.54,758.777 1704.18,758.979 1713.83,759.171 1723.48,759.354 1733.12,759.527 1742.77,759.69 1752.42,759.845 1762.06,759.989 1771.71,760.125 1781.36,760.251 1791,760.368 1800.65,760.477 1810.3,760.576 1819.94,760.666 1829.59,760.748 1839.24,760.821 1848.88,760.885 1858.53,760.94 1868.18,760.987 1877.82,761.026 1887.47,761.055 1897.12,761.077 1906.77,761.089 1916.41,761.094 "/>
<polyline clip-path="url(#clip732)" style="stroke:#9457b1; stroke-linecap:round; stroke-linejoin:round; stroke-width:16; stroke-opacity:1; fill:none" points="686.766,653.111 702.693,653.369 718.62,653.628 734.547,653.891 750.473,654.159 766.4,654.433 782.327,654.716 798.254,655.009 814.18,655.313 830.107,655.629 846.034,655.959 861.961,656.305 877.887,656.667 893.814,657.046 909.741,657.444 925.668,657.861 941.594,658.298 957.521,658.755 973.448,659.234 989.375,659.733 1005.3,660.254 1021.23,660.797 1037.16,661.361 1053.08,661.947 1069.01,662.553 1084.94,663.18 1100.86,663.826 1116.79,664.491 1132.72,665.174 1148.64,665.874 1164.57,666.59 1180.5,667.32 1196.42,668.064 1212.35,668.819 1228.28,669.584 1244.2,670.358 1260.13,671.14 1276.06,671.926 1291.98,672.716 1307.91,673.508 1323.84,674.3 1339.76,675.09 1355.69,675.876 1371.62,676.657 1387.54,677.431 1403.47,678.196 1419.4,678.95 1435.32,679.692 1451.25,680.42 1467.18,681.132 1483.1,681.826 1497.49,682.438 1511.89,683.032 1526.28,683.61 1540.67,684.169 1555.06,684.709 1569.45,685.229 1583.84,685.729 1598.23,686.207 1612.62,686.664 1627.01,687.098 1636.66,687.377 1646.3,687.646 1655.95,687.905 1665.6,688.153 1675.24,688.392 1684.89,688.62 1694.54,688.838 1704.18,689.046 1713.83,689.244 1723.48,689.432 1733.12,689.61 1742.77,689.779 1752.42,689.937 1762.06,690.086 1771.71,690.225 1781.36,690.355 1791,690.475 1800.65,690.586 1810.3,690.688 1819.94,690.781 1829.59,690.864 1839.24,690.939 1848.88,691.004 1858.53,691.061 1868.18,691.109 1877.82,691.148 1887.47,691.179 1897.12,691.2 1906.77,691.213 1916.41,691.218 "/>
<polyline clip-path="url(#clip732)" style="stroke:#9457b1; stroke-linecap:round; stroke-linejoin:round; stroke-width:16; stroke-opacity:1; fill:none" points="686.766,585.885 702.693,586.091 718.62,586.3 734.547,586.511 750.473,586.729 766.4,586.953 782.327,587.185 798.254,587.428 814.18,587.682 830.107,587.949 846.034,588.229 861.961,588.526 877.887,588.838 893.814,589.167 909.741,589.515 925.668,589.882 941.594,590.268 957.521,590.674 973.448,591.101 989.375,591.549 1005.3,592.018 1021.23,592.508 1037.16,593.019 1053.08,593.551 1069.01,594.104 1084.94,594.678 1100.86,595.272 1116.79,595.885 1132.72,596.518 1148.64,597.168 1164.57,597.836 1180.5,598.521 1196.42,599.221 1212.35,599.935 1228.28,600.663 1244.2,601.403 1260.13,602.153 1276.06,602.913 1291.98,603.681 1307.91,604.455 1323.84,605.234 1339.76,606.017 1355.69,606.8 1371.62,607.583 1387.54,608.364 1403.47,609.141 1419.4,609.911 1435.32,610.674 1451.25,611.426 1467.18,612.166 1483.1,612.891 1497.49,613.532 1511.89,614.158 1526.28,614.768 1540.67,615.359 1555.06,615.931 1569.45,616.483 1583.84,617.012 1598.23,617.519 1612.62,618.003 1627.01,618.462 1636.66,618.755 1646.3,619.038 1655.95,619.309 1665.6,619.569 1675.24,619.818 1684.89,620.055 1694.54,620.281 1704.18,620.496 1713.83,620.7 1723.48,620.893 1733.12,621.076 1742.77,621.247 1752.42,621.409 1762.06,621.559 1771.71,621.7 1781.36,621.831 1791,621.952 1800.65,622.063 1810.3,622.165 1819.94,622.257 1829.59,622.341 1839.24,622.415 1848.88,622.48 1858.53,622.536 1868.18,622.583 1877.82,622.622 1887.47,622.652 1897.12,622.673 1906.77,622.686 1916.41,622.691 "/>
<polyline clip-path="url(#clip732)" style="stroke:#9457b1; stroke-linecap:round; stroke-linejoin:round; stroke-width:16; stroke-opacity:1; fill:none" points="686.766,518.66 702.693,518.793 718.62,518.929 734.547,519.069 750.473,519.215 766.4,519.369 782.327,519.534 798.254,519.709 814.18,519.898 830.107,520.102 846.034,520.321 861.961,520.557 877.887,520.812 893.814,521.085 909.741,521.379 925.668,521.693 941.594,522.028 957.521,522.385 973.448,522.765 989.375,523.167 1005.3,523.592 1021.23,524.04 1037.16,524.512 1053.08,525.006 1069.01,525.523 1084.94,526.063 1100.86,526.625 1116.79,527.21 1132.72,527.816 1148.64,528.444 1164.57,529.092 1180.5,529.76 1196.42,530.448 1212.35,531.153 1228.28,531.877 1244.2,532.616 1260.13,533.372 1276.06,534.141 1291.98,534.924 1307.91,535.718 1323.84,536.522 1339.76,537.336 1355.69,538.156 1371.62,538.981 1387.54,539.81 1403.47,540.64 1419.4,541.469 1435.32,542.295 1451.25,543.115 1467.18,543.925 1483.1,544.724 1497.49,545.434 1511.89,546.128 1526.28,546.806 1540.67,547.465 1555.06,548.102 1569.45,548.714 1583.84,549.301 1598.23,549.86 1612.62,550.389 1627.01,550.888 1636.66,551.204 1646.3,551.507 1655.95,551.795 1665.6,552.069 1675.24,552.329 1684.89,552.576 1694.54,552.808 1704.18,553.028 1713.83,553.234 1723.48,553.428 1733.12,553.61 1742.77,553.779 1752.42,553.937 1762.06,554.084 1771.71,554.221 1781.36,554.346 1791,554.462 1800.65,554.568 1810.3,554.664 1819.94,554.751 1829.59,554.829 1839.24,554.898 1848.88,554.959 1858.53,555.011 1868.18,555.055 1877.82,555.091 1887.47,555.119 1897.12,555.138 1906.77,555.15 1916.41,555.154 "/>
<polyline clip-path="url(#clip732)" style="stroke:#9457b1; stroke-linecap:round; stroke-linejoin:round; stroke-width:16; stroke-opacity:1; fill:none" points="686.766,451.434 702.693,451.468 718.62,451.505 734.547,451.548 750.473,451.599 766.4,451.66 782.327,451.735 798.254,451.825 814.18,451.931 830.107,452.056 846.034,452.2 861.961,452.366 877.887,452.553 893.814,452.763 909.741,452.996 925.668,453.254 941.594,453.537 957.521,453.845 973.448,454.179 989.375,454.539 1005.3,454.925 1021.23,455.337 1037.16,455.776 1053.08,456.242 1069.01,456.734 1084.94,457.252 1100.86,457.796 1116.79,458.367 1132.72,458.963 1148.64,459.585 1164.57,460.231 1180.5,460.902 1196.42,461.597 1212.35,462.316 1228.28,463.057 1244.2,463.82 1260.13,464.605 1276.06,465.41 1291.98,466.234 1307.91,467.077 1323.84,467.936 1339.76,468.812 1355.69,469.702 1371.62,470.605 1387.54,471.519 1403.47,472.442 1419.4,473.371 1435.32,474.304 1451.25,475.239 1467.18,476.171 1483.1,477.097 1497.49,477.925 1511.89,478.741 1526.28,479.541 1540.67,480.32 1555.06,481.073 1569.45,481.797 1583.84,482.486 1598.23,483.135 1612.62,483.74 1627.01,484.299 1636.66,484.646 1646.3,484.973 1655.95,485.278 1665.6,485.562 1675.24,485.827 1684.89,486.072 1694.54,486.3 1704.18,486.511 1713.83,486.706 1723.48,486.886 1733.12,487.051 1742.77,487.204 1752.42,487.344 1762.06,487.473 1771.71,487.591 1781.36,487.698 1791,487.796 1800.65,487.885 1810.3,487.965 1819.94,488.036 1829.59,488.1 1839.24,488.157 1848.88,488.206 1858.53,488.248 1868.18,488.283 1877.82,488.312 1887.47,488.334 1897.12,488.35 1906.77,488.359 1916.41,488.362 "/>
<polyline clip-path="url(#clip732)" style="stroke:#9457b1; stroke-linecap:round; stroke-linejoin:round; stroke-width:16; stroke-opacity:1; fill:none" points="686.766,384.208 702.693,384.101 718.62,383.999 734.547,383.907 750.473,383.829 766.4,383.768 782.327,383.728 798.254,383.709 814.18,383.713 830.107,383.743 846.034,383.799 861.961,383.882 877.887,383.993 893.814,384.132 909.741,384.301 925.668,384.499 941.594,384.726 957.521,384.984 973.448,385.273 989.375,385.592 1005.3,385.942 1021.23,386.322 1037.16,386.734 1053.08,387.176 1069.01,387.65 1084.94,388.154 1100.86,388.689 1116.79,389.254 1132.72,389.85 1148.64,390.476 1164.57,391.133 1180.5,391.819 1196.42,392.534 1212.35,393.279 1228.28,394.052 1244.2,394.854 1260.13,395.684 1276.06,396.541 1291.98,397.425 1307.91,398.335 1323.84,399.27 1339.76,400.231 1355.69,401.215 1371.62,402.222 1387.54,403.251 1403.47,404.3 1419.4,405.368 1435.32,406.452 1451.25,407.551 1467.18,408.661 1483.1,409.78 1497.49,410.794 1511.89,411.808 1526.28,412.815 1540.67,413.81 1555.06,414.785 1569.45,415.729 1583.84,416.629 1598.23,417.468 1612.62,418.229 1627.01,418.89 1636.66,419.272 1646.3,419.609 1655.95,419.904 1665.6,420.163 1675.24,420.391 1684.89,420.593 1694.54,420.771 1704.18,420.929 1713.83,421.069 1723.48,421.195 1733.12,421.307 1742.77,421.408 1752.42,421.499 1762.06,421.58 1771.71,421.654 1781.36,421.719 1791,421.778 1800.65,421.831 1810.3,421.879 1819.94,421.92 1829.59,421.958 1839.24,421.99 1848.88,422.018 1858.53,422.042 1868.18,422.062 1877.82,422.078 1887.47,422.091 1897.12,422.1 1906.77,422.105 1916.41,422.107 "/>
<polyline clip-path="url(#clip732)" style="stroke:#9457b1; stroke-linecap:round; stroke-linejoin:round; stroke-width:16; stroke-opacity:1; fill:none" points="686.766,316.983 702.693,316.632 718.62,316.314 734.547,316.03 750.473,315.78 766.4,315.564 782.327,315.383 798.254,315.236 814.18,315.124 830.107,315.048 846.034,315.007 861.961,315.001 877.887,315.031 893.814,315.096 909.741,315.198 925.668,315.335 941.594,315.508 957.521,315.716 973.448,315.961 989.375,316.241 1005.3,316.557 1021.23,316.909 1037.16,317.296 1053.08,317.72 1069.01,318.178 1084.94,318.673 1100.86,319.203 1116.79,319.769 1132.72,320.37 1148.64,321.006 1164.57,321.678 1180.5,322.385 1196.42,323.127 1212.35,323.904 1228.28,324.716 1244.2,325.563 1260.13,326.445 1276.06,327.362 1291.98,328.313 1307.91,329.299 1323.84,330.319 1339.76,331.373 1355.69,332.462 1371.62,333.585 1387.54,334.742 1403.47,335.933 1419.4,337.158 1435.32,338.417 1451.25,339.709 1467.18,341.035 1483.1,342.395 1497.49,343.652 1511.89,344.936 1526.28,346.247 1540.67,347.586 1555.06,348.951 1569.45,350.344 1583.84,351.763 1598.23,353.209 1612.62,354.681 1627.01,356.181 1636.66,356.181 1646.3,356.181 1655.95,356.181 1665.6,356.181 1675.24,356.181 1684.89,356.181 1694.54,356.181 1704.18,356.181 1713.83,356.181 1723.48,356.181 1733.12,356.181 1742.77,356.181 1752.42,356.181 1762.06,356.181 1771.71,356.181 1781.36,356.181 1791,356.181 1800.65,356.181 1810.3,356.181 1819.94,356.181 1829.59,356.181 1839.24,356.181 1848.88,356.181 1858.53,356.181 1868.18,356.181 1877.82,356.181 1887.47,356.181 1897.12,356.181 1906.77,356.181 1916.41,356.181 "/>
<path clip-path="url(#clip732)" d="M666.766 969.239 L666.766 1009.24 L706.766 1009.24 L706.766 969.239 L666.766 969.239 Z" fill="#4062d7" fill-rule="evenodd" fill-opacity="1" stroke="none"/>
<path clip-path="url(#clip732)" d="M666.766 902.014 L666.766 942.014 L706.766 942.014 L706.766 902.014 L666.766 902.014 Z" fill="#4062d7" fill-rule="evenodd" fill-opacity="1" stroke="none"/>
<path clip-path="url(#clip732)" d="M666.766 834.788 L666.766 874.788 L706.766 874.788 L706.766 834.788 L666.766 834.788 Z" fill="#4062d7" fill-rule="evenodd" fill-opacity="1" stroke="none"/>
<path clip-path="url(#clip732)" d="M666.766 767.562 L666.766 807.562 L706.766 807.562 L706.766 767.562 L666.766 767.562 Z" fill="#4062d7" fill-rule="evenodd" fill-opacity="1" stroke="none"/>
<path clip-path="url(#clip732)" d="M666.766 700.337 L666.766 740.337 L706.766 740.337 L706.766 700.337 L666.766 700.337 Z" fill="#4062d7" fill-rule="evenodd" fill-opacity="1" stroke="none"/>
<path clip-path="url(#clip732)" d="M666.766 633.111 L666.766 673.111 L706.766 673.111 L706.766 633.111 L666.766 633.111 Z" fill="#4062d7" fill-rule="evenodd" fill-opacity="1" stroke="none"/>
<path clip-path="url(#clip732)" d="M666.766 565.885 L666.766 605.885 L706.766 605.885 L706.766 565.885 L666.766 565.885 Z" fill="#4062d7" fill-rule="evenodd" fill-opacity="1" stroke="none"/>
<path clip-path="url(#clip732)" d="M666.766 498.66 L666.766 538.66 L706.766 538.66 L706.766 498.66 L666.766 498.66 Z" fill="#4062d7" fill-rule="evenodd" fill-opacity="1" stroke="none"/>
<path clip-path="url(#clip732)" d="M666.766 431.434 L666.766 471.434 L706.766 471.434 L706.766 431.434 L666.766 431.434 Z" fill="#4062d7" fill-rule="evenodd" fill-opacity="1" stroke="none"/>
<path clip-path="url(#clip732)" d="M666.766 364.208 L666.766 404.208 L706.766 404.208 L706.766 364.208 L666.766 364.208 Z" fill="#4062d7" fill-rule="evenodd" fill-opacity="1" stroke="none"/>
<path clip-path="url(#clip732)" d="M666.766 296.983 L666.766 336.983 L706.766 336.983 L706.766 296.983 L666.766 296.983 Z" fill="#4062d7" fill-rule="evenodd" fill-opacity="1" stroke="none"/>
<polyline clip-path="url(#clip732)" style="stroke:#808080; stroke-linecap:round; stroke-linejoin:round; stroke-width:8; stroke-opacity:1; fill:none" points="180.006,1204.54 1916.41,1204.54 "/>
<polyline clip-path="url(#clip732)" style="stroke:#808080; stroke-linecap:round; stroke-linejoin:round; stroke-width:8; stroke-opacity:1; fill:none" points="239.715,1240.01 239.715,1167.62 "/>
<polyline clip-path="url(#clip732)" style="stroke:#808080; stroke-linecap:round; stroke-linejoin:round; stroke-width:8; stroke-opacity:1; fill:none" points="261.433,1240.01 261.433,1167.62 "/>
<polyline clip-path="url(#clip732)" style="stroke:#808080; stroke-linecap:round; stroke-linejoin:round; stroke-width:8; stroke-opacity:1; fill:none" points="1868.18,1240.01 1868.18,1167.62 "/>
<polyline clip-path="url(#clip732)" style="stroke:#808080; stroke-linecap:round; stroke-linejoin:round; stroke-width:8; stroke-opacity:1; fill:none" points="1846.46,1240.01 1846.46,1167.62 "/>
</svg>
