<?xml version="1.0" encoding="utf-8"?>
<svg xmlns="http://www.w3.org/2000/svg" xmlns:xlink="http://www.w3.org/1999/xlink" width="600" height="400" viewBox="0 0 2400 1600">
<defs>
  <clipPath id="clip120">
    <rect x="0" y="0" width="2400" height="1600"/>
  </clipPath>
</defs>
<defs>
  <clipPath id="clip121">
    <rect x="480" y="0" width="1681" height="1600"/>
  </clipPath>
</defs>
<defs>
  <clipPath id="clip122">
    <rect x="156" y="47" width="2197" height="1440"/>
  </clipPath>
</defs>
<path clip-path="url(#clip122)" d="M785.362 909.331 L787.161 869.165 L789.09 828.998 L791.133 788.832 L793.274 748.665 L795.495 708.499 L797.779 668.332 L800.11 628.166 L802.471 587.999 L804.844 547.833 L807.214 507.666 L807.214 917.969 L804.844 917.969 L802.471 917.969 L800.11 917.969 L797.779 917.969 L795.495 917.969 L793.274 917.969 L791.133 917.969 L789.09 917.969 L787.161 917.969 L785.362 917.969  Z" fill="#4062d7" fill-rule="evenodd" fill-opacity="0.333333"/>
<polyline clip-path="url(#clip122)" style="stroke:#4062d7; stroke-linecap:round; stroke-linejoin:round; stroke-width:4; stroke-opacity:1; fill:none" points="785.362,909.331 787.161,869.165 789.09,828.998 791.133,788.832 793.274,748.665 795.495,708.499 797.779,668.332 800.11,628.166 802.471,587.999 804.844,547.833 807.214,507.666 "/>
<path clip-path="url(#clip122)" d="M937.556 909.331 L932.161 869.165 L926.373 828.998 L920.243 788.832 L913.821 748.665 L907.158 708.499 L900.304 668.332 L893.312 628.166 L886.23 587.999 L879.11 547.833 L871.999 507.666 L871.999 917.969 L879.11 917.969 L886.23 917.969 L893.312 917.969 L900.304 917.969 L907.158 917.969 L913.821 917.969 L920.243 917.969 L926.373 917.969 L932.161 917.969 L937.556 917.969  Z" fill="#4062d7" fill-rule="evenodd" fill-opacity="0.333333"/>
<polyline clip-path="url(#clip122)" style="stroke:#4062d7; stroke-linecap:round; stroke-linejoin:round; stroke-width:4; stroke-opacity:1; fill:none" points="937.556,909.331 932.161,869.165 926.373,828.998 920.243,788.832 913.821,748.665 907.158,708.499 900.304,668.332 893.312,628.166 886.23,587.999 879.11,547.833 871.999,507.666 "/>
<path clip-path="url(#clip122)" d="M807.214 503.347 L871.999 503.347 L871.999 917.969 L807.214 917.969  Z" fill="#4062d7" fill-rule="evenodd" fill-opacity="0.333333"/>
<polyline clip-path="url(#clip122)" style="stroke:#3da44d; stroke-linecap:round; stroke-linejoin:round; stroke-width:0; stroke-opacity:1; fill:none" points="807.214,503.347 871.999,503.347 "/>
<path clip-path="url(#clip122)" d="M218.754 486.071 L219.082 490.421 L220.384 494.382 L222.66 497.967 L225.909 501.191 L230.13 504.068 L235.323 506.613 L241.487 508.84 L248.623 510.762 L256.729 512.395 L265.805 513.753 L275.85 514.849 L286.865 515.699 L298.848 516.316 L311.799 516.715 L325.717 516.91 L340.602 516.916 L356.454 516.746 L373.272 516.415 L391.055 515.937 L409.804 515.327 L429.516 514.599 L450.193 513.767 L471.833 512.845 L494.437 511.848 L518.002 510.79 L542.53 509.685 L568.019 508.548 L594.469 507.393 L621.88 506.234 L650.251 505.085 L679.581 503.961 L709.87 502.876 L741.118 501.845 L773.323 500.881 L806.487 499.999 L840.607 499.213 L875.683 498.537 L911.716 497.987 L948.704 497.575 L986.647 497.317 L1025.55 497.226 L1065.4 497.318 L1106.2 497.605 L1147.96 498.103 L1190.67 498.826 L1234.33 499.788 L1278.95 501.004 L1324.51 502.487 L1371.03 504.252 L1418.49 506.313 L1466.91 508.685 L1516.27 511.381 L1566.59 514.417 L1617.85 517.806 L1670.06 521.563 L1723.21 525.702 L1777.31 530.237 L1832.36 535.183 L1888.35 540.554 L1945.29 546.363 L1945.29 546.363 L1888.35 530.421 L1832.36 515.301 L1777.31 500.986 L1723.21 487.461 L1670.06 474.709 L1617.85 462.714 L1566.59 451.459 L1516.27 440.929 L1466.91 431.106 L1418.49 421.975 L1371.03 413.518 L1324.51 405.721 L1278.95 398.566 L1234.33 392.037 L1190.67 386.118 L1147.96 380.793 L1106.2 376.044 L1065.4 371.857 L1025.55 368.213 L986.647 365.098 L948.704 362.495 L911.716 360.387 L875.683 358.759 L840.607 357.593 L806.487 356.873 L773.323 356.584 L741.118 356.709 L709.87 357.231 L679.581 358.134 L650.251 359.402 L621.88 361.018 L594.469 362.967 L568.019 365.231 L542.53 367.795 L518.002 370.642 L494.437 373.756 L471.833 377.121 L450.193 380.719 L429.516 384.536 L409.804 388.553 L391.055 392.756 L373.272 397.128 L356.454 401.653 L340.602 406.313 L325.717 411.093 L311.799 415.977 L298.848 420.948 L286.865 425.99 L275.85 431.086 L265.805 436.221 L256.729 441.377 L248.623 446.539 L241.487 451.69 L235.323 456.813 L230.13 461.894 L225.909 466.914 L222.66 471.859 L220.384 476.71 L219.082 481.453 L218.754 486.071  Z" fill="#389725" fill-rule="evenodd" fill-opacity="0.333333"/>
<polyline clip-path="url(#clip122)" style="stroke:#389725; stroke-linecap:round; stroke-linejoin:round; stroke-width:12; stroke-opacity:1; fill:none" points="218.754,486.071 219.082,490.421 220.384,494.382 222.66,497.967 225.909,501.191 230.13,504.068 235.323,506.613 241.487,508.84 248.623,510.762 256.729,512.395 265.805,513.753 275.85,514.849 286.865,515.699 298.848,516.316 311.799,516.715 325.717,516.91 340.602,516.916 356.454,516.746 373.272,516.415 391.055,515.937 409.804,515.327 429.516,514.599 450.193,513.767 471.833,512.845 494.437,511.848 518.002,510.79 542.53,509.685 568.019,508.548 594.469,507.393 621.88,506.234 650.251,505.085 679.581,503.961 709.87,502.876 741.118,501.845 773.323,500.881 806.487,499.999 840.607,499.213 875.683,498.537 911.716,497.987 948.704,497.575 986.647,497.317 1025.55,497.226 1065.4,497.318 1106.2,497.605 1147.96,498.103 1190.67,498.826 1234.33,499.788 1278.95,501.004 1324.51,502.487 1371.03,504.252 1418.49,506.313 1466.91,508.685 1516.27,511.381 1566.59,514.417 1617.85,517.806 1670.06,521.563 1723.21,525.702 1777.31,530.237 1832.36,535.183 1888.35,540.554 1945.29,546.363 "/>
<polyline clip-path="url(#clip122)" style="stroke:#389725; stroke-linecap:round; stroke-linejoin:round; stroke-width:12; stroke-opacity:1; fill:none" points="218.754,486.071 219.395,481.453 221.001,476.71 223.572,471.859 227.105,466.914 231.602,461.894 237.062,456.813 243.483,451.69 250.866,446.539 259.209,441.377 268.512,436.221 278.775,431.086 289.998,425.99 302.178,420.948 315.316,415.977 329.412,411.093 344.465,406.313 360.473,401.653 377.438,397.128 395.357,392.756 414.231,388.553 434.058,384.536 454.839,380.719 476.573,377.121 499.259,373.756 522.896,370.642 547.485,367.795 573.024,365.231 599.513,362.967 626.951,361.018 655.338,359.402 684.673,358.134 714.956,357.231 746.186,356.709 778.362,356.584 811.485,356.873 845.552,357.593 880.565,358.759 916.521,360.387 953.421,362.495 991.265,365.098 1030.05,368.213 1069.78,371.857 1110.45,376.044 1152.06,380.793 1194.61,386.118 1238.1,392.037 1282.52,398.566 1327.89,405.721 1374.2,413.518 1421.44,421.975 1469.62,431.106 1518.73,440.929 1568.79,451.459 1619.77,462.714 1671.69,474.709 1724.55,487.461 1778.33,500.986 1833.06,515.301 1888.71,530.421 1945.29,546.363 "/>
<path clip-path="url(#clip122)" d="M435.651 1129.84 L438.495 1118.95 L443.226 1103.9 L449.83 1086.88 L458.288 1069.25 L468.578 1051.8 L480.669 1034.96 L494.527 1019 L510.114 1004.08 L527.384 990.293 L546.289 977.702 L566.776 966.337 L588.785 956.209 L612.256 947.319 L637.121 939.656 L663.309 933.202 L690.748 927.933 L719.358 923.818 L749.058 920.824 L779.766 918.911 L811.393 918.036 L843.849 917.969 L877.044 917.969 L910.882 917.969 L945.268 917.969 L980.104 917.969 L1015.29 917.969 L1050.73 917.969 L1086.32 917.977 L1121.97 918.672 L1157.56 920.513 L1193 923.486 L1228.18 927.56 L1263.02 932.698 L1297.41 938.845 L1331.24 945.939 L1364.44 953.903 L1396.9 962.655 L1428.52 972.099 L1459.23 982.134 L1488.93 992.651 L1517.54 1003.54 L1544.98 1014.67 L1571.17 1025.94 L1596.03 1037.2 L1619.5 1048.35 L1641.51 1059.26 L1662 1069.81 L1680.9 1079.88 L1698.17 1089.36 L1713.76 1098.15 L1727.62 1106.14 L1739.71 1113.26 L1750 1119.43 L1758.46 1124.57 L1765.06 1128.62 L1769.79 1131.55 L1769.79 1133.92 L1765.06 1133.92 L1758.46 1133.92 L1750 1133.92 L1739.71 1133.92 L1727.62 1133.92 L1713.76 1133.92 L1698.17 1133.92 L1680.9 1133.92 L1662 1133.92 L1641.51 1133.92 L1619.5 1133.92 L1596.03 1133.92 L1571.17 1133.92 L1544.98 1133.92 L1517.54 1133.92 L1488.93 1133.92 L1459.23 1133.92 L1428.52 1133.92 L1396.9 1133.92 L1364.44 1133.92 L1331.24 1133.92 L1297.41 1133.92 L1263.02 1133.92 L1228.18 1133.92 L1193 1133.92 L1157.56 1133.92 L1121.97 1133.92 L1086.32 1133.92 L1050.73 1133.92 L1015.29 1133.92 L980.104 1133.92 L945.268 1133.92 L910.882 1133.92 L877.044 1133.92 L843.849 1133.92 L811.393 1133.92 L779.766 1133.92 L749.058 1133.92 L719.358 1133.92 L690.748 1133.92 L663.309 1133.92 L637.121 1133.92 L612.256 1133.92 L588.785 1133.92 L566.776 1133.92 L546.289 1133.92 L527.384 1133.92 L510.114 1133.92 L494.527 1133.92 L480.669 1133.92 L468.578 1133.92 L458.288 1133.92 L449.83 1133.92 L443.226 1133.92 L438.495 1133.92 L435.651 1133.92  Z" fill="#ca3b33" fill-rule="evenodd" fill-opacity="0.333333"/>
<polyline clip-path="url(#clip122)" style="stroke:#ca3b33; stroke-linecap:round; stroke-linejoin:round; stroke-width:12; stroke-opacity:1; fill:none" points="435.651,1129.84 438.495,1118.95 443.226,1103.9 449.83,1086.88 458.288,1069.25 468.578,1051.8 480.669,1034.96 494.527,1019 510.114,1004.08 527.384,990.293 546.289,977.702 566.776,966.337 588.785,956.209 612.256,947.319 637.121,939.656 663.309,933.202 690.748,927.933 719.358,923.818 749.058,920.824 779.766,918.911 811.393,918.036 843.849,917.969 877.044,917.969 910.882,917.969 945.268,917.969 980.104,917.969 1015.29,917.969 1050.73,917.969 1086.32,917.977 1121.97,918.672 1157.56,920.513 1193,923.486 1228.18,927.56 1263.02,932.698 1297.41,938.845 1331.24,945.939 1364.44,953.903 1396.9,962.655 1428.52,972.099 1459.23,982.134 1488.93,992.651 1517.54,1003.54 1544.98,1014.67 1571.17,1025.94 1596.03,1037.2 1619.5,1048.35 1641.51,1059.26 1662,1069.81 1680.9,1079.88 1698.17,1089.36 1713.76,1098.15 1727.62,1106.14 1739.71,1113.26 1750,1119.43 1758.46,1124.57 1765.06,1128.62 1769.79,1131.55 "/>
<polyline clip-path="url(#clip122)" style="stroke:#9457b1; stroke-linecap:round; stroke-linejoin:round; stroke-width:6; stroke-opacity:1; fill:none" points="823.411,898.459 842.414,898.461 861.418,898.473 880.421,898.489 899.425,898.508 918.428,898.532 937.432,898.56 956.435,898.595 975.439,898.638 994.442,898.69 1013.45,898.757 1032.45,898.841 1051.45,898.954 1070.46,899.112 1089.46,899.354 1108.46,899.779 1127.47,900.429 1146.47,901.344 1165.47,902.528 1184.48,903.983 1203.48,905.71 1222.48,907.712 1241.49,909.987 1260.49,912.535 1279.49,915.351 1298.5,918.432 1317.5,921.775 1336.51,925.373 1355.51,929.219 1374.51,933.306 1393.52,937.624 1412.52,942.161 1431.52,946.905 1450.53,951.838 1469.53,956.942 1488.53,962.193 1507.54,967.565 1526.54,973.025 1545.54,978.534 1564.55,984.049 1583.55,989.518 1602.55,994.884 1621.56,1000.09 1640.56,1005.06 1659.56,1009.73 1678.57,1014.05 1697.57,1017.97 1716.58,1021.46 1735.58,1024.51 1754.58,1027.14 1773.59,1029.44 1790.76,1031.2 1807.93,1032.62 1825.1,1033.78 1842.27,1034.75 1859.44,1035.55 1876.61,1036.23 1893.78,1036.82 1910.95,1037.32 1928.12,1037.75 1945.29,1038.13 1956.8,1038.35 1968.31,1038.56 1979.82,1038.75 1991.33,1038.93 2002.84,1039.09 2014.35,1039.23 2025.86,1039.37 2037.37,1039.5 2048.89,1039.61 2060.4,1039.72 2071.91,1039.82 2083.42,1039.91 2094.93,1039.99 2106.44,1040.07 2117.95,1040.14 2129.46,1040.2 2140.97,1040.26 2152.48,1040.31 2163.99,1040.36 2175.5,1040.41 2187.01,1040.44 2198.52,1040.48 2210.03,1040.51 2221.54,1040.53 2233.05,1040.55 2244.56,1040.57 2256.07,1040.58 2267.58,1040.59 2279.09,1040.6 2290.6,1040.6 "/>
<polyline clip-path="url(#clip122)" style="stroke:#9457b1; stroke-linecap:round; stroke-linejoin:round; stroke-width:6; stroke-opacity:1; fill:none" points="823.411,859.38 842.414,859.417 861.418,859.456 880.421,859.501 899.425,859.554 918.428,859.617 937.432,859.692 956.435,859.782 975.439,859.893 994.442,860.028 1013.45,860.195 1032.45,860.403 1051.45,860.665 1070.46,860.998 1089.46,861.425 1108.46,861.977 1127.47,862.679 1146.47,863.549 1165.47,864.602 1184.48,865.845 1203.48,867.282 1222.48,868.914 1241.49,870.741 1260.49,872.761 1279.49,874.97 1298.5,877.362 1317.5,879.932 1336.51,882.67 1355.51,885.567 1374.51,888.612 1393.52,891.792 1412.52,895.094 1431.52,898.501 1450.53,901.995 1469.53,905.558 1488.53,909.168 1507.54,912.802 1526.54,916.435 1545.54,920.043 1564.55,923.598 1583.55,927.074 1602.55,930.444 1621.56,933.684 1640.56,936.77 1659.56,939.682 1678.57,942.405 1697.57,944.928 1716.58,947.245 1735.58,949.356 1754.58,951.265 1773.59,952.98 1790.76,954.372 1807.93,955.623 1825.1,956.743 1842.27,957.745 1859.44,958.64 1876.61,959.44 1893.78,960.156 1910.95,960.797 1928.12,961.372 1945.29,961.889 1956.8,962.205 1968.31,962.5 1979.82,962.774 1991.33,963.029 2002.84,963.267 2014.35,963.488 2025.86,963.693 2037.37,963.884 2048.89,964.062 2060.4,964.226 2071.91,964.379 2083.42,964.52 2094.93,964.65 2106.44,964.77 2117.95,964.881 2129.46,964.982 2140.97,965.074 2152.48,965.159 2163.99,965.235 2175.5,965.303 2187.01,965.364 2198.52,965.418 2210.03,965.465 2221.54,965.505 2233.05,965.539 2244.56,965.567 2256.07,965.588 2267.58,965.603 2279.09,965.612 2290.6,965.615 "/>
<polyline clip-path="url(#clip122)" style="stroke:#9457b1; stroke-linecap:round; stroke-linejoin:round; stroke-width:6; stroke-opacity:1; fill:none" points="823.411,820.301 842.414,820.354 861.418,820.411 880.421,820.475 899.425,820.548 918.428,820.635 937.432,820.739 956.435,820.864 975.439,821.015 994.442,821.199 1013.45,821.422 1032.45,821.692 1051.45,822.02 1070.46,822.417 1089.46,822.897 1108.46,823.475 1127.47,824.163 1146.47,824.973 1165.47,825.914 1184.48,826.992 1203.48,828.211 1222.48,829.574 1241.49,831.079 1260.49,832.726 1279.49,834.51 1298.5,836.427 1317.5,838.472 1336.51,840.636 1355.51,842.913 1374.51,845.292 1393.52,847.762 1412.52,850.312 1431.52,852.93 1450.53,855.602 1469.53,858.313 1488.53,861.048 1507.54,863.791 1526.54,866.526 1545.54,869.237 1564.55,871.908 1583.55,874.522 1602.55,877.065 1621.56,879.523 1640.56,881.883 1659.56,884.136 1678.57,886.272 1697.57,888.286 1716.58,890.173 1735.58,891.933 1754.58,893.565 1773.59,895.072 1790.76,896.33 1807.93,897.493 1825.1,898.565 1842.27,899.551 1859.44,900.457 1876.61,901.287 1893.78,902.047 1910.95,902.742 1928.12,903.377 1945.29,903.956 1956.8,904.315 1968.31,904.652 1979.82,904.968 1991.33,905.264 2002.84,905.541 2014.35,905.8 2025.86,906.043 2037.37,906.269 2048.89,906.479 2060.4,906.675 2071.91,906.857 2083.42,907.025 2094.93,907.182 2106.44,907.326 2117.95,907.458 2129.46,907.58 2140.97,907.691 2152.48,907.792 2163.99,907.883 2175.5,907.966 2187.01,908.039 2198.52,908.104 2210.03,908.161 2221.54,908.209 2233.05,908.25 2244.56,908.283 2256.07,908.309 2267.58,908.327 2279.09,908.338 2290.6,908.341 "/>
<polyline clip-path="url(#clip122)" style="stroke:#9457b1; stroke-linecap:round; stroke-linejoin:round; stroke-width:6; stroke-opacity:1; fill:none" points="823.411,781.221 842.414,781.278 861.418,781.338 880.421,781.405 899.425,781.484 918.428,781.578 937.432,781.692 956.435,781.83 975.439,781.997 994.442,782.198 1013.45,782.44 1032.45,782.729 1051.45,783.073 1070.46,783.479 1089.46,783.956 1108.46,784.512 1127.47,785.155 1146.47,785.893 1165.47,786.73 1184.48,787.671 1203.48,788.719 1222.48,789.875 1241.49,791.14 1260.49,792.511 1279.49,793.987 1298.5,795.563 1317.5,797.236 1336.51,799 1355.51,800.847 1374.51,802.772 1393.52,804.765 1412.52,806.819 1431.52,808.923 1450.53,811.068 1469.53,813.242 1488.53,815.436 1507.54,817.639 1526.54,819.838 1545.54,822.024 1564.55,824.184 1583.55,826.31 1602.55,828.391 1621.56,830.417 1640.56,832.382 1659.56,834.276 1678.57,836.096 1697.57,837.835 1716.58,839.49 1735.58,841.058 1754.58,842.539 1773.59,843.931 1790.76,845.114 1807.93,846.227 1825.1,847.27 1842.27,848.245 1859.44,849.155 1876.61,850.001 1893.78,850.786 1910.95,851.513 1928.12,852.183 1945.29,852.8 1956.8,853.185 1968.31,853.548 1979.82,853.89 1991.33,854.211 2002.84,854.513 2014.35,854.795 2025.86,855.059 2037.37,855.306 2048.89,855.537 2060.4,855.751 2071.91,855.95 2083.42,856.135 2094.93,856.306 2106.44,856.464 2117.95,856.609 2129.46,856.742 2140.97,856.863 2152.48,856.974 2163.99,857.074 2175.5,857.163 2187.01,857.243 2198.52,857.314 2210.03,857.376 2221.54,857.429 2233.05,857.473 2244.56,857.509 2256.07,857.537 2267.58,857.556 2279.09,857.568 2290.6,857.572 "/>
<polyline clip-path="url(#clip122)" style="stroke:#9457b1; stroke-linecap:round; stroke-linejoin:round; stroke-width:6; stroke-opacity:1; fill:none" points="823.411,742.142 842.414,742.186 861.418,742.235 880.421,742.291 899.425,742.36 918.428,742.445 937.432,742.551 956.435,742.682 975.439,742.843 994.442,743.038 1013.45,743.273 1032.45,743.552 1051.45,743.881 1070.46,744.266 1089.46,744.713 1108.46,745.226 1127.47,745.81 1146.47,746.471 1165.47,747.211 1184.48,748.033 1203.48,748.94 1222.48,749.932 1241.49,751.01 1260.49,752.171 1279.49,753.415 1298.5,754.739 1317.5,756.139 1336.51,757.611 1355.51,759.151 1374.51,760.752 1393.52,762.41 1412.52,764.117 1431.52,765.867 1450.53,767.652 1469.53,769.465 1488.53,771.298 1507.54,773.143 1526.54,774.993 1545.54,776.839 1564.55,778.674 1583.55,780.49 1602.55,782.281 1621.56,784.04 1640.56,785.76 1659.56,787.437 1678.57,789.065 1697.57,790.639 1716.58,792.157 1735.58,793.615 1754.58,795.01 1773.59,796.34 1790.76,797.485 1807.93,798.575 1825.1,799.609 1842.27,800.587 1859.44,801.509 1876.61,802.374 1893.78,803.184 1910.95,803.938 1928.12,804.637 1945.29,805.283 1956.8,805.687 1968.31,806.069 1979.82,806.428 1991.33,806.765 2002.84,807.082 2014.35,807.379 2025.86,807.656 2037.37,807.915 2048.89,808.156 2060.4,808.38 2071.91,808.588 2083.42,808.78 2094.93,808.957 2106.44,809.121 2117.95,809.271 2129.46,809.408 2140.97,809.533 2152.48,809.646 2163.99,809.749 2175.5,809.841 2187.01,809.923 2198.52,809.995 2210.03,810.058 2221.54,810.112 2233.05,810.157 2244.56,810.193 2256.07,810.222 2267.58,810.242 2279.09,810.254 2290.6,810.258 "/>
<polyline clip-path="url(#clip122)" style="stroke:#9457b1; stroke-linecap:round; stroke-linejoin:round; stroke-width:6; stroke-opacity:1; fill:none" points="823.411,703.063 842.414,703.08 861.418,703.102 880.421,703.133 899.425,703.176 918.428,703.237 937.432,703.319 956.435,703.426 975.439,703.563 994.442,703.734 1013.45,703.943 1032.45,704.194 1051.45,704.491 1070.46,704.838 1089.46,705.239 1108.46,705.698 1127.47,706.218 1146.47,706.802 1165.47,707.452 1184.48,708.17 1203.48,708.958 1222.48,709.815 1241.49,710.743 1260.49,711.739 1279.49,712.803 1298.5,713.934 1317.5,715.127 1336.51,716.381 1355.51,717.692 1374.51,719.056 1393.52,720.469 1412.52,721.926 1431.52,723.422 1450.53,724.951 1469.53,726.509 1488.53,728.089 1507.54,729.687 1526.54,731.296 1545.54,732.911 1564.55,734.527 1583.55,736.137 1602.55,737.737 1621.56,739.321 1640.56,740.885 1659.56,742.424 1678.57,743.934 1697.57,745.411 1716.58,746.85 1735.58,748.25 1754.58,749.605 1773.59,750.912 1790.76,752.05 1807.93,753.143 1825.1,754.191 1842.27,755.19 1859.44,756.138 1876.61,757.034 1893.78,757.875 1910.95,758.661 1928.12,759.391 1945.29,760.065 1956.8,760.485 1968.31,760.881 1979.82,761.253 1991.33,761.601 2002.84,761.927 2014.35,762.231 2025.86,762.513 2037.37,762.776 2048.89,763.019 2060.4,763.244 2071.91,763.452 2083.42,763.643 2094.93,763.819 2106.44,763.981 2117.95,764.128 2129.46,764.262 2140.97,764.385 2152.48,764.495 2163.99,764.595 2175.5,764.684 2187.01,764.763 2198.52,764.832 2210.03,764.892 2221.54,764.944 2233.05,764.987 2244.56,765.022 2256.07,765.049 2267.58,765.068 2279.09,765.08 2290.6,765.084 "/>
<polyline clip-path="url(#clip122)" style="stroke:#9457b1; stroke-linecap:round; stroke-linejoin:round; stroke-width:6; stroke-opacity:1; fill:none" points="823.411,663.983 842.414,663.959 861.418,663.939 880.421,663.929 899.425,663.932 918.428,663.954 937.432,663.998 956.435,664.067 975.439,664.167 994.442,664.3 1013.45,664.47 1032.45,664.68 1051.45,664.934 1070.46,665.233 1089.46,665.582 1108.46,665.981 1127.47,666.435 1146.47,666.945 1165.47,667.511 1184.48,668.137 1203.48,668.821 1222.48,669.566 1241.49,670.37 1260.49,671.233 1279.49,672.154 1298.5,673.132 1317.5,674.165 1336.51,675.251 1355.51,676.387 1374.51,677.571 1393.52,678.8 1412.52,680.07 1431.52,681.378 1450.53,682.72 1469.53,684.092 1488.53,685.49 1507.54,686.911 1526.54,688.349 1545.54,689.802 1564.55,691.265 1583.55,692.734 1602.55,694.205 1621.56,695.675 1640.56,697.139 1659.56,698.593 1678.57,700.034 1697.57,701.459 1716.58,702.863 1735.58,704.243 1754.58,705.594 1773.59,706.912 1790.76,708.071 1807.93,709.196 1825.1,710.282 1842.27,711.326 1859.44,712.323 1876.61,713.269 1893.78,714.159 1910.95,714.99 1928.12,715.759 1945.29,716.463 1956.8,716.9 1968.31,717.308 1979.82,717.688 1991.33,718.041 2002.84,718.368 2014.35,718.671 2025.86,718.949 2037.37,719.206 2048.89,719.442 2060.4,719.658 2071.91,719.856 2083.42,720.037 2094.93,720.202 2106.44,720.353 2117.95,720.49 2129.46,720.614 2140.97,720.726 2152.48,720.827 2163.99,720.917 2175.5,720.998 2187.01,721.069 2198.52,721.132 2210.03,721.186 2221.54,721.232 2233.05,721.271 2244.56,721.302 2256.07,721.326 2267.58,721.343 2279.09,721.354 2290.6,721.357 "/>
<polyline clip-path="url(#clip122)" style="stroke:#9457b1; stroke-linecap:round; stroke-linejoin:round; stroke-width:6; stroke-opacity:1; fill:none" points="823.411,624.904 842.414,624.822 861.418,624.745 880.421,624.678 899.425,624.627 918.428,624.596 937.432,624.589 956.435,624.609 975.439,624.66 994.442,624.745 1013.45,624.867 1032.45,625.028 1051.45,625.231 1070.46,625.477 1089.46,625.769 1108.46,626.108 1127.47,626.496 1146.47,626.934 1165.47,627.424 1184.48,627.966 1203.48,628.56 1222.48,629.207 1241.49,629.907 1260.49,630.66 1279.49,631.464 1298.5,632.319 1317.5,633.224 1336.51,634.176 1355.51,635.176 1374.51,636.22 1393.52,637.306 1412.52,638.433 1431.52,639.598 1450.53,640.798 1469.53,642.031 1488.53,643.294 1507.54,644.585 1526.54,645.9 1545.54,647.236 1564.55,648.592 1583.55,649.963 1602.55,651.347 1621.56,652.742 1640.56,654.144 1659.56,655.55 1678.57,656.958 1697.57,658.364 1716.58,659.765 1735.58,661.156 1754.58,662.535 1773.59,663.896 1790.76,665.105 1807.93,666.29 1825.1,667.447 1842.27,668.567 1859.44,669.645 1876.61,670.672 1893.78,671.64 1910.95,672.54 1928.12,673.364 1945.29,674.109 1956.8,674.562 1968.31,674.979 1979.82,675.361 1991.33,675.709 2002.84,676.026 2014.35,676.314 2025.86,676.575 2037.37,676.812 2048.89,677.026 2060.4,677.22 2071.91,677.396 2083.42,677.554 2094.93,677.697 2106.44,677.827 2117.95,677.943 2129.46,678.048 2140.97,678.142 2152.48,678.227 2163.99,678.302 2175.5,678.369 2187.01,678.428 2198.52,678.479 2210.03,678.523 2221.54,678.561 2233.05,678.593 2244.56,678.618 2256.07,678.638 2267.58,678.652 2279.09,678.66 2290.6,678.663 "/>
<polyline clip-path="url(#clip122)" style="stroke:#9457b1; stroke-linecap:round; stroke-linejoin:round; stroke-width:6; stroke-opacity:1; fill:none" points="823.411,585.825 842.414,585.666 861.418,585.513 880.421,585.374 899.425,585.254 918.428,585.157 937.432,585.088 956.435,585.049 975.439,585.043 994.442,585.073 1013.45,585.14 1032.45,585.246 1051.45,585.394 1070.46,585.584 1089.46,585.818 1108.46,586.096 1127.47,586.421 1146.47,586.792 1165.47,587.21 1184.48,587.677 1203.48,588.191 1222.48,588.753 1241.49,589.364 1260.49,590.022 1279.49,590.729 1298.5,591.481 1317.5,592.281 1336.51,593.125 1355.51,594.014 1374.51,594.945 1393.52,595.919 1412.52,596.933 1431.52,597.986 1450.53,599.076 1469.53,600.202 1488.53,601.362 1507.54,602.554 1526.54,603.776 1545.54,605.028 1564.55,606.306 1583.55,607.609 1602.55,608.935 1621.56,610.282 1640.56,611.649 1659.56,613.033 1678.57,614.432 1697.57,615.843 1716.58,617.264 1735.58,618.693 1754.58,620.125 1773.59,621.556 1790.76,622.844 1807.93,624.122 1825.1,625.384 1842.27,626.623 1859.44,627.829 1876.61,628.989 1893.78,630.088 1910.95,631.107 1928.12,632.026 1945.29,632.829 1956.8,633.298 1968.31,633.714 1979.82,634.08 1991.33,634.402 2002.84,634.685 2014.35,634.933 2025.86,635.152 2037.37,635.346 2048.89,635.518 2060.4,635.67 2071.91,635.805 2083.42,635.926 2094.93,636.033 2106.44,636.129 2117.95,636.215 2129.46,636.292 2140.97,636.36 2152.48,636.421 2163.99,636.475 2175.5,636.522 2187.01,636.564 2198.52,636.6 2210.03,636.632 2221.54,636.658 2233.05,636.68 2244.56,636.698 2256.07,636.712 2267.58,636.722 2279.09,636.728 2290.6,636.73 "/>
<polyline clip-path="url(#clip122)" style="stroke:#9457b1; stroke-linecap:round; stroke-linejoin:round; stroke-width:6; stroke-opacity:1; fill:none" points="823.411,546.745 842.414,546.483 861.418,546.233 880.421,546.002 899.425,545.798 918.428,545.624 937.432,545.484 956.435,545.378 975.439,545.309 994.442,545.279 1013.45,545.288 1032.45,545.338 1051.45,545.429 1070.46,545.563 1089.46,545.739 1108.46,545.959 1127.47,546.222 1146.47,546.53 1165.47,546.883 1184.48,547.28 1203.48,547.722 1222.48,548.209 1241.49,548.742 1260.49,549.319 1279.49,549.941 1298.5,550.607 1317.5,551.317 1336.51,552.07 1355.51,552.867 1374.51,553.706 1393.52,554.586 1412.52,555.508 1431.52,556.47 1450.53,557.472 1469.53,558.512 1488.53,559.59 1507.54,560.706 1526.54,561.857 1545.54,563.044 1564.55,564.265 1583.55,565.519 1602.55,566.806 1621.56,568.124 1640.56,569.472 1659.56,570.85 1678.57,572.256 1697.57,573.688 1716.58,575.147 1735.58,576.628 1754.58,578.132 1773.59,579.654 1790.76,581.044 1807.93,582.443 1825.1,583.848 1842.27,585.252 1859.44,586.647 1876.61,588.019 1893.78,589.35 1910.95,590.606 1928.12,591.736 1945.29,592.664 1956.8,593.13 1968.31,593.496 1979.82,593.787 1991.33,594.022 2002.84,594.214 2014.35,594.373 2025.86,594.508 2037.37,594.623 2048.89,594.721 2060.4,594.807 2071.91,594.882 2083.42,594.948 2094.93,595.005 2106.44,595.057 2117.95,595.102 2129.46,595.142 2140.97,595.178 2152.48,595.209 2163.99,595.237 2175.5,595.261 2187.01,595.283 2198.52,595.302 2210.03,595.318 2221.54,595.331 2233.05,595.342 2244.56,595.352 2256.07,595.358 2267.58,595.363 2279.09,595.366 2290.6,595.367 "/>
<polyline clip-path="url(#clip122)" style="stroke:#9457b1; stroke-linecap:round; stroke-linejoin:round; stroke-width:6; stroke-opacity:1; fill:none" points="823.411,507.666 842.414,507.248 861.418,506.869 880.421,506.529 899.425,506.231 918.428,505.973 937.432,505.757 956.435,505.582 975.439,505.449 994.442,505.357 1013.45,505.309 1032.45,505.302 1051.45,505.338 1070.46,505.416 1089.46,505.537 1108.46,505.7 1127.47,505.906 1146.47,506.155 1165.47,506.447 1184.48,506.781 1203.48,507.158 1222.48,507.578 1241.49,508.04 1260.49,508.545 1279.49,509.093 1298.5,509.683 1317.5,510.316 1336.51,510.99 1355.51,511.708 1374.51,512.467 1393.52,513.268 1412.52,514.112 1431.52,514.997 1450.53,515.925 1469.53,516.894 1488.53,517.904 1507.54,518.957 1526.54,520.05 1545.54,521.185 1564.55,522.361 1583.55,523.579 1602.55,524.837 1621.56,526.136 1640.56,527.476 1659.56,528.857 1678.57,530.278 1697.57,531.739 1716.58,533.241 1735.58,534.783 1754.58,536.365 1773.59,537.987 1790.76,539.487 1807.93,541.02 1825.1,542.584 1842.27,544.181 1859.44,545.81 1876.61,547.472 1893.78,549.165 1910.95,550.89 1928.12,552.648 1945.29,554.436 1956.8,554.436 1968.31,554.436 1979.82,554.436 1991.33,554.436 2002.84,554.436 2014.35,554.436 2025.86,554.436 2037.37,554.436 2048.89,554.436 2060.4,554.436 2071.91,554.436 2083.42,554.436 2094.93,554.436 2106.44,554.436 2117.95,554.436 2129.46,554.436 2140.97,554.436 2152.48,554.436 2163.99,554.436 2175.5,554.436 2187.01,554.436 2198.52,554.436 2210.03,554.436 2221.54,554.436 2233.05,554.436 2244.56,554.436 2256.07,554.436 2267.58,554.436 2279.09,554.436 2290.6,554.436 "/>
<circle clip-path="url(#clip122)" cx="823.411" cy="898.459" r="10.8" fill="#4062d7" fill-rule="evenodd" fill-opacity="1" stroke="none"/>
<circle clip-path="url(#clip122)" cx="823.411" cy="859.38" r="10.8" fill="#4062d7" fill-rule="evenodd" fill-opacity="1" stroke="none"/>
<circle clip-path="url(#clip122)" cx="823.411" cy="820.301" r="10.8" fill="#4062d7" fill-rule="evenodd" fill-opacity="1" stroke="none"/>
<circle clip-path="url(#clip122)" cx="823.411" cy="781.221" r="10.8" fill="#4062d7" fill-rule="evenodd" fill-opacity="1" stroke="none"/>
<circle clip-path="url(#clip122)" cx="823.411" cy="742.142" r="10.8" fill="#4062d7" fill-rule="evenodd" fill-opacity="1" stroke="none"/>
<circle clip-path="url(#clip122)" cx="823.411" cy="703.063" r="10.8" fill="#4062d7" fill-rule="evenodd" fill-opacity="1" stroke="none"/>
<circle clip-path="url(#clip122)" cx="823.411" cy="663.983" r="10.8" fill="#4062d7" fill-rule="evenodd" fill-opacity="1" stroke="none"/>
<circle clip-path="url(#clip122)" cx="823.411" cy="624.904" r="10.8" fill="#4062d7" fill-rule="evenodd" fill-opacity="1" stroke="none"/>
<circle clip-path="url(#clip122)" cx="823.411" cy="585.825" r="10.8" fill="#4062d7" fill-rule="evenodd" fill-opacity="1" stroke="none"/>
<circle clip-path="url(#clip122)" cx="823.411" cy="546.745" r="10.8" fill="#4062d7" fill-rule="evenodd" fill-opacity="1" stroke="none"/>
<circle clip-path="url(#clip122)" cx="823.411" cy="507.666" r="10.8" fill="#4062d7" fill-rule="evenodd" fill-opacity="1" stroke="none"/>
<polyline clip-path="url(#clip122)" style="stroke:#000000; stroke-linecap:round; stroke-linejoin:round; stroke-width:4; stroke-opacity:1; fill:none" points="218.754,1134.78 2290.6,1134.78 "/>
<polyline clip-path="url(#clip122)" style="stroke:#000000; stroke-linecap:round; stroke-linejoin:round; stroke-width:4; stroke-opacity:1; fill:none" points="289.998,1177.11 289.998,1090.73 "/>
<polyline clip-path="url(#clip122)" style="stroke:#000000; stroke-linecap:round; stroke-linejoin:round; stroke-width:4; stroke-opacity:1; fill:none" points="315.911,1177.11 315.911,1090.73 "/>
<polyline clip-path="url(#clip122)" style="stroke:#000000; stroke-linecap:round; stroke-linejoin:round; stroke-width:4; stroke-opacity:1; fill:none" points="2233.05,1177.11 2233.05,1090.73 "/>
<polyline clip-path="url(#clip122)" style="stroke:#000000; stroke-linecap:round; stroke-linejoin:round; stroke-width:4; stroke-opacity:1; fill:none" points="2207.14,1177.11 2207.14,1090.73 "/>
</svg>
