<?xml version="1.0" encoding="utf-8"?>
<svg xmlns="http://www.w3.org/2000/svg" xmlns:xlink="http://www.w3.org/1999/xlink" width="500" height="375" viewBox="0 0 2000 1500">
<defs>
  <clipPath id="clip330">
    <rect x="0" y="0" width="2000" height="1500"/>
  </clipPath>
</defs>
<path clip-path="url(#clip330)" d="M0 1500 L2000 1500 L2000 0 L0 0  Z" fill="#ffffff" fill-rule="evenodd" fill-opacity="1"/>
<defs>
  <clipPath id="clip331">
    <rect x="400" y="0" width="1401" height="1401"/>
  </clipPath>
</defs>
<defs>
  <clipPath id="clip332">
    <rect x="207" y="110" width="1684" height="1211"/>
  </clipPath>
</defs>
<path clip-path="url(#clip332)" d="M688.92 824.35 L690.298 793.576 L691.776 762.803 L693.342 732.03 L694.982 701.257 L696.684 670.484 L698.434 639.711 L700.22 608.937 L702.028 578.164 L703.846 547.391 L705.662 516.618 L705.662 830.967 L703.846 830.967 L702.028 830.967 L700.22 830.967 L698.434 830.967 L696.684 830.967 L694.982 830.967 L693.342 830.967 L691.776 830.967 L690.298 830.967 L688.92 830.967  Z" fill="#4062d7" fill-rule="evenodd" fill-opacity="0.333333"/>
<polyline clip-path="url(#clip332)" style="stroke:#4062d7; stroke-linecap:round; stroke-linejoin:round; stroke-width:4; stroke-opacity:1; fill:none" points="688.92,824.35 690.298,793.576 691.776,762.803 693.342,732.03 694.982,701.257 696.684,670.484 698.434,639.711 700.22,608.937 702.028,578.164 703.846,547.391 705.662,516.618 "/>
<path clip-path="url(#clip332)" d="M805.523 824.35 L801.389 793.576 L796.955 762.803 L792.258 732.03 L787.338 701.257 L782.233 670.484 L776.982 639.711 L771.625 608.937 L766.2 578.164 L760.744 547.391 L755.297 516.618 L755.297 830.967 L760.744 830.967 L766.2 830.967 L771.625 830.967 L776.982 830.967 L782.233 830.967 L787.338 830.967 L792.258 830.967 L796.955 830.967 L801.389 830.967 L805.523 830.967  Z" fill="#4062d7" fill-rule="evenodd" fill-opacity="0.333333"/>
<polyline clip-path="url(#clip332)" style="stroke:#4062d7; stroke-linecap:round; stroke-linejoin:round; stroke-width:4; stroke-opacity:1; fill:none" points="805.523,824.35 801.389,793.576 796.955,762.803 792.258,732.03 787.338,701.257 782.233,670.484 776.982,639.711 771.625,608.937 766.2,578.164 760.744,547.391 755.297,516.618 "/>
<path clip-path="url(#clip332)" d="M705.662 513.309 L755.297 513.309 L755.297 830.967 L705.662 830.967  Z" fill="#4062d7" fill-rule="evenodd" fill-opacity="0.333333"/>
<polyline clip-path="url(#clip332)" style="stroke:#fa4b4b; stroke-linecap:round; stroke-linejoin:round; stroke-width:0; stroke-opacity:1; fill:none" points="705.662,513.309 755.297,513.309 "/>
<path clip-path="url(#clip332)" d="M254.819 500.073 L255.07 503.406 L256.068 506.44 L257.812 509.187 L260.301 511.657 L263.535 513.862 L267.513 515.811 L272.236 517.517 L277.703 518.99 L283.913 520.241 L290.867 521.281 L298.563 522.121 L307.002 522.772 L316.182 523.245 L326.104 523.551 L336.768 523.7 L348.172 523.704 L360.317 523.574 L373.202 523.321 L386.826 522.955 L401.19 522.487 L416.293 521.929 L432.134 521.292 L448.713 520.586 L466.031 519.822 L484.085 519.011 L502.877 518.165 L522.405 517.294 L542.67 516.409 L563.67 515.521 L585.406 514.641 L607.877 513.779 L631.083 512.948 L655.023 512.158 L679.697 511.419 L705.105 510.744 L731.246 510.141 L758.119 509.624 L785.725 509.202 L814.063 508.887 L843.133 508.689 L872.934 508.62 L903.466 508.69 L934.729 508.91 L966.721 509.291 L999.444 509.845 L1032.9 510.582 L1067.08 511.513 L1101.99 512.65 L1137.62 514.002 L1173.99 515.581 L1211.08 517.398 L1248.9 519.464 L1287.45 521.79 L1326.72 524.387 L1366.72 527.265 L1407.44 530.436 L1448.89 533.91 L1491.07 537.7 L1533.97 541.814 L1577.59 546.265 L1577.59 546.265 L1533.97 534.051 L1491.07 522.467 L1448.89 511.5 L1407.44 501.138 L1366.72 491.368 L1326.72 482.178 L1287.45 473.556 L1248.9 465.488 L1211.08 457.962 L1173.99 450.966 L1137.62 444.488 L1101.99 438.514 L1067.08 433.032 L1032.9 428.03 L999.444 423.495 L966.721 419.415 L934.729 415.777 L903.466 412.569 L872.934 409.777 L843.133 407.391 L814.063 405.396 L785.725 403.782 L758.119 402.534 L731.246 401.641 L705.105 401.089 L679.697 400.868 L655.023 400.963 L631.083 401.363 L607.877 402.055 L585.406 403.027 L563.67 404.265 L542.67 405.758 L522.405 407.493 L502.877 409.457 L484.085 411.639 L466.031 414.024 L448.713 416.602 L432.134 419.359 L416.293 422.283 L401.19 425.361 L386.826 428.581 L373.202 431.93 L360.317 435.397 L348.172 438.967 L336.768 442.63 L326.104 446.371 L316.182 450.18 L307.002 454.042 L298.563 457.947 L290.867 461.881 L283.913 465.831 L277.703 469.786 L272.236 473.732 L267.513 477.658 L263.535 481.55 L260.301 485.396 L257.812 489.184 L256.068 492.901 L255.07 496.535 L254.819 500.073  Z" fill="#389725" fill-rule="evenodd" fill-opacity="0.333333"/>
<polyline clip-path="url(#clip332)" style="stroke:#389725; stroke-linecap:round; stroke-linejoin:round; stroke-width:12; stroke-opacity:1; fill:none" points="254.819,500.073 255.07,503.406 256.068,506.44 257.812,509.187 260.301,511.657 263.535,513.862 267.513,515.811 272.236,517.517 277.703,518.99 283.913,520.241 290.867,521.281 298.563,522.121 307.002,522.772 316.182,523.245 326.104,523.551 336.768,523.7 348.172,523.704 360.317,523.574 373.202,523.321 386.826,522.955 401.19,522.487 416.293,521.929 432.134,521.292 448.713,520.586 466.031,519.822 484.085,519.011 502.877,518.165 522.405,517.294 542.67,516.409 563.67,515.521 585.406,514.641 607.877,513.779 631.083,512.948 655.023,512.158 679.697,511.419 705.105,510.744 731.246,510.141 758.119,509.624 785.725,509.202 814.063,508.887 843.133,508.689 872.934,508.62 903.466,508.69 934.729,508.91 966.721,509.291 999.444,509.845 1032.9,510.582 1067.08,511.513 1101.99,512.65 1137.62,514.002 1173.99,515.581 1211.08,517.398 1248.9,519.464 1287.45,521.79 1326.72,524.387 1366.72,527.265 1407.44,530.436 1448.89,533.91 1491.07,537.7 1533.97,541.814 1577.59,546.265 "/>
<polyline clip-path="url(#clip332)" style="stroke:#389725; stroke-linecap:round; stroke-linejoin:round; stroke-width:12; stroke-opacity:1; fill:none" points="254.819,500.073 255.31,496.535 256.541,492.901 258.51,489.184 261.218,485.396 264.663,481.55 268.846,477.658 273.765,473.732 279.421,469.786 285.813,465.831 292.941,461.881 300.804,457.947 309.402,454.042 318.734,450.18 328.8,446.371 339.599,442.63 351.131,438.967 363.396,435.397 376.393,431.93 390.122,428.581 404.582,425.361 419.772,422.283 435.694,419.359 452.345,416.602 469.725,414.024 487.835,411.639 506.673,409.457 526.24,407.493 546.534,405.758 567.555,404.265 589.304,403.027 611.779,402.055 634.98,401.363 658.906,400.963 683.558,400.868 708.934,401.089 735.035,401.641 761.859,402.534 789.407,403.782 817.677,405.396 846.671,407.391 876.386,409.777 906.823,412.569 937.981,415.777 969.86,419.415 1002.46,423.495 1035.78,428.03 1069.82,433.032 1104.57,438.514 1140.05,444.488 1176.24,450.966 1213.16,457.962 1250.79,465.488 1289.13,473.556 1328.19,482.178 1367.97,491.368 1408.47,501.138 1449.68,511.5 1491.6,522.467 1534.24,534.051 1577.59,546.265 "/>
<path clip-path="url(#clip332)" d="M420.993 993.291 L423.172 984.946 L426.796 973.417 L431.856 960.378 L438.336 946.873 L446.219 933.498 L455.483 920.596 L466.1 908.368 L478.042 896.938 L491.273 886.377 L505.757 876.731 L521.453 868.024 L538.315 860.264 L556.297 853.453 L575.347 847.582 L595.411 842.638 L616.432 838.601 L638.352 835.449 L661.107 833.154 L684.633 831.689 L708.863 831.019 L733.73 830.967 L759.161 830.967 L785.086 830.967 L811.431 830.967 L838.12 830.967 L865.079 830.967 L892.231 830.967 L919.499 830.974 L946.806 831.506 L974.073 832.917 L1001.23 835.194 L1028.18 838.316 L1054.87 842.252 L1081.22 846.962 L1107.14 852.396 L1132.57 858.498 L1157.44 865.203 L1181.67 872.438 L1205.2 880.127 L1227.95 888.185 L1249.87 896.524 L1270.89 905.056 L1290.96 913.685 L1310.01 922.318 L1327.99 930.86 L1344.85 939.217 L1360.55 947.297 L1375.03 955.011 L1388.26 962.275 L1400.2 969.008 L1410.82 975.136 L1420.09 980.591 L1427.97 985.314 L1434.45 989.25 L1439.51 992.359 L1443.13 994.604 L1443.13 996.415 L1439.51 996.415 L1434.45 996.415 L1427.97 996.415 L1420.09 996.415 L1410.82 996.415 L1400.2 996.415 L1388.26 996.415 L1375.03 996.415 L1360.55 996.415 L1344.85 996.415 L1327.99 996.415 L1310.01 996.415 L1290.96 996.415 L1270.89 996.415 L1249.87 996.415 L1227.95 996.415 L1205.2 996.415 L1181.67 996.415 L1157.44 996.415 L1132.57 996.415 L1107.14 996.415 L1081.22 996.415 L1054.87 996.415 L1028.18 996.415 L1001.23 996.415 L974.073 996.415 L946.806 996.415 L919.499 996.415 L892.231 996.415 L865.079 996.415 L838.12 996.415 L811.431 996.415 L785.086 996.415 L759.161 996.415 L733.73 996.415 L708.863 996.415 L684.633 996.415 L661.107 996.415 L638.352 996.415 L616.432 996.415 L595.411 996.415 L575.347 996.415 L556.297 996.415 L538.315 996.415 L521.453 996.415 L505.757 996.415 L491.273 996.415 L478.042 996.415 L466.1 996.415 L455.483 996.415 L446.219 996.415 L438.336 996.415 L431.856 996.415 L426.796 996.415 L423.172 996.415 L420.993 996.415  Z" fill="#ca3b33" fill-rule="evenodd" fill-opacity="0.333333"/>
<polyline clip-path="url(#clip332)" style="stroke:#ca3b33; stroke-linecap:round; stroke-linejoin:round; stroke-width:12; stroke-opacity:1; fill:none" points="420.993,993.291 423.172,984.946 426.796,973.417 431.856,960.378 438.336,946.873 446.219,933.498 455.483,920.596 466.1,908.368 478.042,896.938 491.273,886.377 505.757,876.731 521.453,868.024 538.315,860.264 556.297,853.453 575.347,847.582 595.411,842.638 616.432,838.601 638.352,835.449 661.107,833.154 684.633,831.689 708.863,831.019 733.73,830.967 759.161,830.967 785.086,830.967 811.431,830.967 838.12,830.967 865.079,830.967 892.231,830.967 919.499,830.974 946.806,831.506 974.073,832.917 1001.23,835.194 1028.18,838.316 1054.87,842.252 1081.22,846.962 1107.14,852.396 1132.57,858.498 1157.44,865.203 1181.67,872.438 1205.2,880.127 1227.95,888.185 1249.87,896.524 1270.89,905.056 1290.96,913.685 1310.01,922.318 1327.99,930.86 1344.85,939.217 1360.55,947.297 1375.03,955.011 1388.26,962.275 1400.2,969.008 1410.82,975.136 1420.09,980.591 1427.97,985.314 1434.45,989.25 1439.51,992.359 1443.13,994.604 "/>
<polyline clip-path="url(#clip332)" style="stroke:#9457b1; stroke-linecap:round; stroke-linejoin:round; stroke-width:6; stroke-opacity:1; fill:none" points="718.071,816.02 732.63,816.022 747.19,816.03 761.749,816.043 776.308,816.058 790.868,816.076 805.427,816.098 819.986,816.124 834.546,816.157 849.105,816.197 863.664,816.248 878.224,816.313 892.783,816.399 907.342,816.52 921.902,816.706 936.461,817.031 951.021,817.53 965.58,818.23 980.139,819.138 994.699,820.252 1009.26,821.576 1023.82,823.109 1038.38,824.852 1052.94,826.804 1067.5,828.961 1082.05,831.322 1096.61,833.883 1111.17,836.64 1125.73,839.586 1140.29,842.718 1154.85,846.026 1169.41,849.502 1183.97,853.136 1198.53,856.916 1213.09,860.826 1227.65,864.849 1242.21,868.965 1256.77,873.148 1271.33,877.369 1285.89,881.594 1300.44,885.784 1315,889.895 1329.56,893.88 1344.12,897.688 1358.68,901.271 1373.24,904.582 1387.8,907.585 1402.36,910.255 1416.92,912.59 1431.48,914.61 1446.04,916.373 1459.19,917.72 1472.35,918.807 1485.5,919.697 1498.66,920.435 1511.81,921.053 1524.97,921.575 1538.12,922.021 1551.28,922.404 1564.43,922.736 1577.59,923.025 1586.41,923.198 1595.23,923.357 1604.05,923.503 1612.86,923.637 1621.68,923.76 1630.5,923.873 1639.32,923.978 1648.14,924.074 1656.96,924.163 1665.77,924.245 1674.59,924.321 1683.41,924.39 1692.23,924.454 1701.05,924.513 1709.87,924.567 1718.69,924.616 1727.5,924.661 1736.32,924.701 1745.14,924.738 1753.96,924.771 1762.78,924.801 1771.6,924.826 1780.41,924.849 1789.23,924.868 1798.05,924.885 1806.87,924.898 1815.69,924.908 1824.51,924.915 1833.33,924.92 1842.14,924.921 "/>
<polyline clip-path="url(#clip332)" style="stroke:#9457b1; stroke-linecap:round; stroke-linejoin:round; stroke-width:6; stroke-opacity:1; fill:none" points="718.071,786.08 732.63,786.108 747.19,786.138 761.749,786.173 776.308,786.213 790.868,786.261 805.427,786.319 819.986,786.388 834.546,786.473 849.105,786.577 863.664,786.705 878.224,786.864 892.783,787.064 907.342,787.319 921.902,787.647 936.461,788.07 951.021,788.607 965.58,789.274 980.139,790.081 994.699,791.033 1009.26,792.134 1023.82,793.384 1038.38,794.784 1052.94,796.332 1067.5,798.024 1082.05,799.857 1096.61,801.826 1111.17,803.923 1125.73,806.143 1140.29,808.476 1154.85,810.912 1169.41,813.442 1183.97,816.052 1198.53,818.729 1213.09,821.459 1227.65,824.224 1242.21,827.009 1256.77,829.792 1271.33,832.556 1285.89,835.28 1300.44,837.943 1315,840.525 1329.56,843.007 1344.12,845.371 1358.68,847.603 1373.24,849.689 1387.8,851.622 1402.36,853.397 1416.92,855.014 1431.48,856.477 1446.04,857.791 1459.19,858.857 1472.35,859.816 1485.5,860.674 1498.66,861.441 1511.81,862.127 1524.97,862.74 1538.12,863.289 1551.28,863.78 1564.43,864.22 1577.59,864.616 1586.41,864.858 1595.23,865.084 1604.05,865.294 1612.86,865.49 1621.68,865.672 1630.5,865.841 1639.32,865.999 1648.14,866.145 1656.96,866.281 1665.77,866.407 1674.59,866.524 1683.41,866.632 1692.23,866.732 1701.05,866.824 1709.87,866.908 1718.69,866.986 1727.5,867.057 1736.32,867.121 1745.14,867.179 1753.96,867.232 1762.78,867.279 1771.6,867.32 1780.41,867.356 1789.23,867.387 1798.05,867.413 1806.87,867.434 1815.69,867.45 1824.51,867.462 1833.33,867.469 1842.14,867.471 "/>
<polyline clip-path="url(#clip332)" style="stroke:#9457b1; stroke-linecap:round; stroke-linejoin:round; stroke-width:6; stroke-opacity:1; fill:none" points="718.071,756.14 732.63,756.181 747.19,756.224 761.749,756.273 776.308,756.329 790.868,756.396 805.427,756.475 819.986,756.571 834.546,756.687 849.105,756.828 863.664,756.999 878.224,757.206 892.783,757.457 907.342,757.761 921.902,758.129 936.461,758.571 951.021,759.099 965.58,759.719 980.139,760.44 994.699,761.266 1009.26,762.201 1023.82,763.244 1038.38,764.398 1052.94,765.659 1067.5,767.026 1082.05,768.495 1096.61,770.061 1111.17,771.72 1125.73,773.464 1140.29,775.286 1154.85,777.179 1169.41,779.133 1183.97,781.139 1198.53,783.185 1213.09,785.262 1227.65,787.358 1242.21,789.459 1256.77,791.555 1271.33,793.632 1285.89,795.678 1300.44,797.681 1315,799.629 1329.56,801.512 1344.12,803.321 1358.68,805.047 1373.24,806.683 1387.8,808.226 1402.36,809.672 1416.92,811.02 1431.48,812.271 1446.04,813.425 1459.19,814.389 1472.35,815.28 1485.5,816.101 1498.66,816.857 1511.81,817.551 1524.97,818.187 1538.12,818.769 1551.28,819.302 1564.43,819.788 1577.59,820.231 1586.41,820.507 1595.23,820.765 1604.05,821.007 1612.86,821.234 1621.68,821.446 1630.5,821.645 1639.32,821.83 1648.14,822.003 1656.96,822.164 1665.77,822.315 1674.59,822.454 1683.41,822.583 1692.23,822.703 1701.05,822.813 1709.87,822.915 1718.69,823.008 1727.5,823.093 1736.32,823.17 1745.14,823.24 1753.96,823.304 1762.78,823.36 1771.6,823.41 1780.41,823.453 1789.23,823.49 1798.05,823.521 1806.87,823.547 1815.69,823.566 1824.51,823.58 1833.33,823.589 1842.14,823.591 "/>
<polyline clip-path="url(#clip332)" style="stroke:#9457b1; stroke-linecap:round; stroke-linejoin:round; stroke-width:6; stroke-opacity:1; fill:none" points="718.071,726.199 732.63,726.243 747.19,726.289 761.749,726.34 776.308,726.401 790.868,726.473 805.427,726.56 819.986,726.666 834.546,726.794 849.105,726.948 863.664,727.133 878.224,727.355 892.783,727.618 907.342,727.929 921.902,728.294 936.461,728.721 951.021,729.214 965.58,729.779 980.139,730.42 994.699,731.141 1009.26,731.944 1023.82,732.83 1038.38,733.798 1052.94,734.849 1067.5,735.98 1082.05,737.187 1096.61,738.469 1111.17,739.82 1125.73,741.236 1140.29,742.71 1154.85,744.238 1169.41,745.811 1183.97,747.423 1198.53,749.066 1213.09,750.732 1227.65,752.413 1242.21,754.1 1256.77,755.785 1271.33,757.46 1285.89,759.115 1300.44,760.744 1315,762.338 1329.56,763.891 1344.12,765.395 1358.68,766.847 1373.24,768.241 1387.8,769.573 1402.36,770.841 1416.92,772.043 1431.48,773.177 1446.04,774.244 1459.19,775.15 1472.35,776.003 1485.5,776.802 1498.66,777.549 1511.81,778.246 1524.97,778.895 1538.12,779.496 1551.28,780.053 1564.43,780.566 1577.59,781.039 1586.41,781.334 1595.23,781.612 1604.05,781.874 1612.86,782.12 1621.68,782.351 1630.5,782.567 1639.32,782.77 1648.14,782.959 1656.96,783.136 1665.77,783.3 1674.59,783.452 1683.41,783.594 1692.23,783.725 1701.05,783.846 1709.87,783.957 1718.69,784.059 1727.5,784.152 1736.32,784.236 1745.14,784.313 1753.96,784.382 1762.78,784.443 1771.6,784.497 1780.41,784.544 1789.23,784.585 1798.05,784.619 1806.87,784.646 1815.69,784.668 1824.51,784.683 1833.33,784.692 1842.14,784.695 "/>
<polyline clip-path="url(#clip332)" style="stroke:#9457b1; stroke-linecap:round; stroke-linejoin:round; stroke-width:6; stroke-opacity:1; fill:none" points="718.071,696.259 732.63,696.293 747.19,696.33 761.749,696.374 776.308,696.426 790.868,696.492 805.427,696.573 819.986,696.673 834.546,696.796 849.105,696.946 863.664,697.125 878.224,697.339 892.783,697.592 907.342,697.887 921.902,698.229 936.461,698.622 951.021,699.07 965.58,699.576 980.139,700.143 994.699,700.773 1009.26,701.468 1023.82,702.228 1038.38,703.053 1052.94,703.943 1067.5,704.896 1082.05,705.91 1096.61,706.983 1111.17,708.111 1125.73,709.29 1140.29,710.517 1154.85,711.787 1169.41,713.095 1183.97,714.436 1198.53,715.804 1213.09,717.193 1227.65,718.597 1242.21,720.011 1256.77,721.428 1271.33,722.842 1285.89,724.248 1300.44,725.639 1315,727.011 1329.56,728.359 1344.12,729.677 1358.68,730.961 1373.24,732.209 1387.8,733.415 1402.36,734.578 1416.92,735.695 1431.48,736.763 1446.04,737.783 1459.19,738.66 1472.35,739.495 1485.5,740.287 1498.66,741.037 1511.81,741.743 1524.97,742.406 1538.12,743.026 1551.28,743.603 1564.43,744.139 1577.59,744.634 1586.41,744.944 1595.23,745.236 1604.05,745.511 1612.86,745.77 1621.68,746.013 1630.5,746.24 1639.32,746.452 1648.14,746.651 1656.96,746.835 1665.77,747.007 1674.59,747.166 1683.41,747.313 1692.23,747.449 1701.05,747.574 1709.87,747.689 1718.69,747.794 1727.5,747.89 1736.32,747.977 1745.14,748.056 1753.96,748.126 1762.78,748.189 1771.6,748.244 1780.41,748.292 1789.23,748.334 1798.05,748.368 1806.87,748.396 1815.69,748.418 1824.51,748.433 1833.33,748.442 1842.14,748.445 "/>
<polyline clip-path="url(#clip332)" style="stroke:#9457b1; stroke-linecap:round; stroke-linejoin:round; stroke-width:6; stroke-opacity:1; fill:none" points="718.071,666.319 732.63,666.332 747.19,666.349 761.749,666.373 776.308,666.406 790.868,666.452 805.427,666.515 819.986,666.597 834.546,666.703 849.105,666.833 863.664,666.993 878.224,667.186 892.783,667.413 907.342,667.679 921.902,667.987 936.461,668.338 951.021,668.737 965.58,669.184 980.139,669.682 994.699,670.232 1009.26,670.836 1023.82,671.492 1038.38,672.203 1052.94,672.966 1067.5,673.782 1082.05,674.648 1096.61,675.562 1111.17,676.523 1125.73,677.527 1140.29,678.572 1154.85,679.655 1169.41,680.771 1183.97,681.917 1198.53,683.089 1213.09,684.282 1227.65,685.493 1242.21,686.717 1256.77,687.95 1271.33,689.187 1285.89,690.425 1300.44,691.659 1315,692.884 1329.56,694.098 1344.12,695.296 1358.68,696.475 1373.24,697.632 1387.8,698.764 1402.36,699.867 1416.92,700.939 1431.48,701.977 1446.04,702.978 1459.19,703.85 1472.35,704.688 1485.5,705.49 1498.66,706.256 1511.81,706.982 1524.97,707.669 1538.12,708.313 1551.28,708.915 1564.43,709.475 1577.59,709.991 1586.41,710.313 1595.23,710.616 1604.05,710.901 1612.86,711.168 1621.68,711.417 1630.5,711.65 1639.32,711.867 1648.14,712.068 1656.96,712.254 1665.77,712.427 1674.59,712.586 1683.41,712.732 1692.23,712.867 1701.05,712.991 1709.87,713.104 1718.69,713.207 1727.5,713.3 1736.32,713.385 1745.14,713.461 1753.96,713.529 1762.78,713.59 1771.6,713.643 1780.41,713.689 1789.23,713.729 1798.05,713.762 1806.87,713.789 1815.69,713.809 1824.51,713.824 1833.33,713.833 1842.14,713.836 "/>
<polyline clip-path="url(#clip332)" style="stroke:#9457b1; stroke-linecap:round; stroke-linejoin:round; stroke-width:6; stroke-opacity:1; fill:none" points="718.071,636.379 732.63,636.36 747.19,636.345 761.749,636.337 776.308,636.34 790.868,636.356 805.427,636.39 819.986,636.443 834.546,636.52 849.105,636.622 863.664,636.752 878.224,636.913 892.783,637.107 907.342,637.336 921.902,637.603 936.461,637.91 951.021,638.257 965.58,638.648 980.139,639.082 994.699,639.561 1009.26,640.085 1023.82,640.656 1038.38,641.272 1052.94,641.933 1067.5,642.639 1082.05,643.388 1096.61,644.179 1111.17,645.011 1125.73,645.882 1140.29,646.789 1154.85,647.73 1169.41,648.703 1183.97,649.705 1198.53,650.733 1213.09,651.785 1227.65,652.856 1242.21,653.944 1256.77,655.047 1271.33,656.16 1285.89,657.281 1300.44,658.406 1315,659.533 1329.56,660.659 1344.12,661.78 1358.68,662.895 1373.24,663.999 1387.8,665.09 1402.36,666.166 1416.92,667.223 1431.48,668.258 1446.04,669.268 1459.19,670.156 1472.35,671.018 1485.5,671.85 1498.66,672.65 1511.81,673.414 1524.97,674.139 1538.12,674.82 1551.28,675.457 1564.43,676.046 1577.59,676.586 1586.41,676.92 1595.23,677.233 1604.05,677.524 1612.86,677.795 1621.68,678.045 1630.5,678.277 1639.32,678.49 1648.14,678.687 1656.96,678.868 1665.77,679.033 1674.59,679.185 1683.41,679.324 1692.23,679.45 1701.05,679.566 1709.87,679.671 1718.69,679.766 1727.5,679.851 1736.32,679.929 1745.14,679.998 1753.96,680.06 1762.78,680.115 1771.6,680.163 1780.41,680.204 1789.23,680.24 1798.05,680.269 1806.87,680.293 1815.69,680.312 1824.51,680.325 1833.33,680.332 1842.14,680.335 "/>
<polyline clip-path="url(#clip332)" style="stroke:#9457b1; stroke-linecap:round; stroke-linejoin:round; stroke-width:6; stroke-opacity:1; fill:none" points="718.071,606.439 732.63,606.376 747.19,606.317 761.749,606.266 776.308,606.226 790.868,606.203 805.427,606.197 819.986,606.213 834.546,606.252 849.105,606.317 863.664,606.41 878.224,606.534 892.783,606.689 907.342,606.877 921.902,607.101 936.461,607.361 951.021,607.658 965.58,607.994 980.139,608.369 994.699,608.784 1009.26,609.24 1023.82,609.736 1038.38,610.272 1052.94,610.848 1067.5,611.464 1082.05,612.119 1096.61,612.813 1111.17,613.543 1125.73,614.308 1140.29,615.108 1154.85,615.94 1169.41,616.804 1183.97,617.696 1198.53,618.616 1213.09,619.56 1227.65,620.528 1242.21,621.517 1256.77,622.524 1271.33,623.548 1285.89,624.587 1300.44,625.637 1315,626.698 1329.56,627.766 1344.12,628.84 1358.68,629.918 1373.24,630.997 1387.8,632.074 1402.36,633.147 1416.92,634.213 1431.48,635.269 1446.04,636.311 1459.19,637.238 1472.35,638.146 1485.5,639.032 1498.66,639.891 1511.81,640.716 1524.97,641.503 1538.12,642.245 1551.28,642.934 1564.43,643.566 1577.59,644.136 1586.41,644.483 1595.23,644.803 1604.05,645.095 1612.86,645.362 1621.68,645.605 1630.5,645.826 1639.32,646.026 1648.14,646.207 1656.96,646.371 1665.77,646.52 1674.59,646.654 1683.41,646.776 1692.23,646.886 1701.05,646.985 1709.87,647.074 1718.69,647.154 1727.5,647.227 1736.32,647.291 1745.14,647.349 1753.96,647.4 1762.78,647.445 1771.6,647.484 1780.41,647.519 1789.23,647.548 1798.05,647.572 1806.87,647.591 1815.69,647.606 1824.51,647.617 1833.33,647.623 1842.14,647.625 "/>
<polyline clip-path="url(#clip332)" style="stroke:#9457b1; stroke-linecap:round; stroke-linejoin:round; stroke-width:6; stroke-opacity:1; fill:none" points="718.071,576.498 732.63,576.377 747.19,576.26 761.749,576.153 776.308,576.061 790.868,575.987 805.427,575.934 819.986,575.904 834.546,575.899 849.105,575.922 863.664,575.974 878.224,576.055 892.783,576.168 907.342,576.314 921.902,576.493 936.461,576.706 951.021,576.955 965.58,577.239 980.139,577.56 994.699,577.917 1009.26,578.311 1023.82,578.742 1038.38,579.21 1052.94,579.714 1067.5,580.255 1082.05,580.832 1096.61,581.444 1111.17,582.091 1125.73,582.772 1140.29,583.486 1154.85,584.232 1169.41,585.009 1183.97,585.815 1198.53,586.651 1213.09,587.513 1227.65,588.402 1242.21,589.315 1256.77,590.252 1271.33,591.21 1285.89,592.19 1300.44,593.188 1315,594.204 1329.56,595.236 1344.12,596.283 1358.68,597.344 1373.24,598.415 1387.8,599.497 1402.36,600.585 1416.92,601.68 1431.48,602.777 1446.04,603.873 1459.19,604.86 1472.35,605.839 1485.5,606.807 1498.66,607.756 1511.81,608.68 1524.97,609.568 1538.12,610.41 1551.28,611.191 1564.43,611.895 1577.59,612.51 1586.41,612.87 1595.23,613.188 1604.05,613.469 1612.86,613.715 1621.68,613.932 1630.5,614.122 1639.32,614.29 1648.14,614.439 1656.96,614.57 1665.77,614.687 1674.59,614.79 1683.41,614.883 1692.23,614.965 1701.05,615.039 1709.87,615.104 1718.69,615.163 1727.5,615.215 1736.32,615.262 1745.14,615.303 1753.96,615.34 1762.78,615.372 1771.6,615.4 1780.41,615.424 1789.23,615.444 1798.05,615.461 1806.87,615.475 1815.69,615.485 1824.51,615.493 1833.33,615.497 1842.14,615.499 "/>
<polyline clip-path="url(#clip332)" style="stroke:#9457b1; stroke-linecap:round; stroke-linejoin:round; stroke-width:6; stroke-opacity:1; fill:none" points="718.071,546.558 732.63,546.357 747.19,546.165 761.749,545.989 776.308,545.832 790.868,545.699 805.427,545.591 819.986,545.51 834.546,545.458 849.105,545.435 863.664,545.442 878.224,545.48 892.783,545.55 907.342,545.652 921.902,545.787 936.461,545.955 951.021,546.157 965.58,546.393 980.139,546.663 994.699,546.968 1009.26,547.306 1023.82,547.68 1038.38,548.087 1052.94,548.53 1067.5,549.006 1082.05,549.516 1096.61,550.06 1111.17,550.638 1125.73,551.248 1140.29,551.891 1154.85,552.565 1169.41,553.272 1183.97,554.009 1198.53,554.776 1213.09,555.573 1227.65,556.399 1242.21,557.254 1256.77,558.136 1271.33,559.045 1285.89,559.98 1300.44,560.941 1315,561.927 1329.56,562.937 1344.12,563.97 1358.68,565.025 1373.24,566.103 1387.8,567.2 1402.36,568.317 1416.92,569.453 1431.48,570.604 1446.04,571.771 1459.19,572.836 1472.35,573.907 1485.5,574.984 1498.66,576.059 1511.81,577.128 1524.97,578.18 1538.12,579.199 1551.28,580.161 1564.43,581.027 1577.59,581.738 1586.41,582.095 1595.23,582.376 1604.05,582.599 1612.86,582.778 1621.68,582.925 1630.5,583.048 1639.32,583.151 1648.14,583.239 1656.96,583.314 1665.77,583.38 1674.59,583.437 1683.41,583.488 1692.23,583.532 1701.05,583.571 1709.87,583.606 1718.69,583.637 1727.5,583.664 1736.32,583.688 1745.14,583.709 1753.96,583.728 1762.78,583.745 1771.6,583.759 1780.41,583.771 1789.23,583.782 1798.05,583.79 1806.87,583.797 1815.69,583.803 1824.51,583.806 1833.33,583.809 1842.14,583.809 "/>
<polyline clip-path="url(#clip332)" style="stroke:#9457b1; stroke-linecap:round; stroke-linejoin:round; stroke-width:6; stroke-opacity:1; fill:none" points="718.071,516.618 732.63,516.297 747.19,516.007 761.749,515.747 776.308,515.519 790.868,515.321 805.427,515.155 819.986,515.021 834.546,514.919 849.105,514.849 863.664,514.812 878.224,514.806 892.783,514.834 907.342,514.894 921.902,514.986 936.461,515.111 951.021,515.269 965.58,515.46 980.139,515.684 994.699,515.94 1009.26,516.229 1023.82,516.55 1038.38,516.904 1052.94,517.292 1067.5,517.711 1082.05,518.163 1096.61,518.648 1111.17,519.165 1125.73,519.714 1140.29,520.296 1154.85,520.91 1169.41,521.556 1183.97,522.235 1198.53,522.945 1213.09,523.688 1227.65,524.462 1242.21,525.268 1256.77,526.106 1271.33,526.975 1285.89,527.877 1300.44,528.809 1315,529.773 1329.56,530.768 1344.12,531.795 1358.68,532.853 1373.24,533.942 1387.8,535.061 1402.36,536.212 1416.92,537.393 1431.48,538.605 1446.04,539.848 1459.19,540.997 1472.35,542.171 1485.5,543.37 1498.66,544.594 1511.81,545.842 1524.97,547.115 1538.12,548.412 1551.28,549.734 1564.43,551.08 1577.59,552.45 1586.41,552.45 1595.23,552.45 1604.05,552.45 1612.86,552.45 1621.68,552.45 1630.5,552.45 1639.32,552.45 1648.14,552.45 1656.96,552.45 1665.77,552.45 1674.59,552.45 1683.41,552.45 1692.23,552.45 1701.05,552.45 1709.87,552.45 1718.69,552.45 1727.5,552.45 1736.32,552.45 1745.14,552.45 1753.96,552.45 1762.78,552.45 1771.6,552.45 1780.41,552.45 1789.23,552.45 1798.05,552.45 1806.87,552.45 1815.69,552.45 1824.51,552.45 1833.33,552.45 1842.14,552.45 "/>
<circle clip-path="url(#clip332)" cx="718.071" cy="816.02" r="10.8" fill="#4062d7" fill-rule="evenodd" fill-opacity="1" stroke="none"/>
<circle clip-path="url(#clip332)" cx="718.071" cy="786.08" r="10.8" fill="#4062d7" fill-rule="evenodd" fill-opacity="1" stroke="none"/>
<circle clip-path="url(#clip332)" cx="718.071" cy="756.14" r="10.8" fill="#4062d7" fill-rule="evenodd" fill-opacity="1" stroke="none"/>
<circle clip-path="url(#clip332)" cx="718.071" cy="726.199" r="10.8" fill="#4062d7" fill-rule="evenodd" fill-opacity="1" stroke="none"/>
<circle clip-path="url(#clip332)" cx="718.071" cy="696.259" r="10.8" fill="#4062d7" fill-rule="evenodd" fill-opacity="1" stroke="none"/>
<circle clip-path="url(#clip332)" cx="718.071" cy="666.319" r="10.8" fill="#4062d7" fill-rule="evenodd" fill-opacity="1" stroke="none"/>
<circle clip-path="url(#clip332)" cx="718.071" cy="636.379" r="10.8" fill="#4062d7" fill-rule="evenodd" fill-opacity="1" stroke="none"/>
<circle clip-path="url(#clip332)" cx="718.071" cy="606.439" r="10.8" fill="#4062d7" fill-rule="evenodd" fill-opacity="1" stroke="none"/>
<circle clip-path="url(#clip332)" cx="718.071" cy="576.498" r="10.8" fill="#4062d7" fill-rule="evenodd" fill-opacity="1" stroke="none"/>
<circle clip-path="url(#clip332)" cx="718.071" cy="546.558" r="10.8" fill="#4062d7" fill-rule="evenodd" fill-opacity="1" stroke="none"/>
<circle clip-path="url(#clip332)" cx="718.071" cy="516.618" r="10.8" fill="#4062d7" fill-rule="evenodd" fill-opacity="1" stroke="none"/>
<polyline clip-path="url(#clip332)" style="stroke:#000000; stroke-linecap:round; stroke-linejoin:round; stroke-width:4; stroke-opacity:1; fill:none" points="254.819,997.076 1842.14,997.076 "/>
<polyline clip-path="url(#clip332)" style="stroke:#000000; stroke-linecap:round; stroke-linejoin:round; stroke-width:4; stroke-opacity:1; fill:none" points="309.402,1029.5 309.402,963.325 "/>
<polyline clip-path="url(#clip332)" style="stroke:#000000; stroke-linecap:round; stroke-linejoin:round; stroke-width:4; stroke-opacity:1; fill:none" points="329.255,1029.5 329.255,963.325 "/>
<polyline clip-path="url(#clip332)" style="stroke:#000000; stroke-linecap:round; stroke-linejoin:round; stroke-width:4; stroke-opacity:1; fill:none" points="1798.05,1029.5 1798.05,963.325 "/>
<polyline clip-path="url(#clip332)" style="stroke:#000000; stroke-linecap:round; stroke-linejoin:round; stroke-width:4; stroke-opacity:1; fill:none" points="1778.2,1029.5 1778.2,963.325 "/>
</svg>
